<?xml version="1.0" encoding="UTF-8" standalone="no"?>
<!-- Created with Inkscape (http://www.inkscape.org/) -->

<svg
   width="100mm"
   height="100mm"
   viewBox="0 0 100 100"
   version="1.1"
   id="svg9538"
   inkscape:version="1.1.1 (c3084ef, 2021-09-22)"
   sodipodi:docname="Novis_B&amp;W_Square_Icon.svg"
   xmlns:inkscape="http://www.inkscape.org/namespaces/inkscape"
   xmlns:sodipodi="http://sodipodi.sourceforge.net/DTD/sodipodi-0.dtd"
   xmlns="http://www.w3.org/2000/svg"
   xmlns:svg="http://www.w3.org/2000/svg">
  <sodipodi:namedview
     id="namedview9540"
     pagecolor="#ffffff"
     bordercolor="#666666"
     borderopacity="1.0"
     inkscape:pageshadow="2"
     inkscape:pageopacity="0.0"
     inkscape:pagecheckerboard="true"
     inkscape:document-units="mm"
     showgrid="false"
     inkscape:zoom="0.55890834"
     inkscape:cx="185.18242"
     inkscape:cy="316.68878"
     inkscape:window-width="1440"
     inkscape:window-height="798"
     inkscape:window-x="0"
     inkscape:window-y="159"
     inkscape:window-maximized="0"
     inkscape:current-layer="layer1"
     width="100mm" />
  <defs
     id="defs9535" />
  <g
     inkscape:label="Layer 1"
     inkscape:groupmode="layer"
     id="layer1">
    <rect
       style="fill:#ffffff;fill-rule:evenodd;stroke:#000000;stroke-width:7.40672;stroke-miterlimit:4;stroke-dasharray:none"
       id="rect1508-4"
       width="92.593277"
       x="4.312201"
       y="3.9267778"
       height="92.593285" />
    <ellipse
       style="fill:#000000;stroke-width:0.12521"
       id="path95-5-8-7"
       cx="60.403145"
       cy="-35.164959"
       rx="8.4047852"
       ry="8.6765623"
       transform="matrix(0.49337549,0.86981643,-0.88663394,0.4624719,0,0)" />
    <path
       style="fill:none;stroke:#000000;stroke-width:1.98574;stroke-linecap:butt;stroke-linejoin:miter;stroke-miterlimit:4;stroke-dasharray:none;stroke-opacity:1"
       d="m 52.073338,33.180623 -27.92678,19.12216"
       id="path3359-2-3-2-1"
       sodipodi:nodetypes="cc" />
    <path
       style="fill:none;stroke:#000000;stroke-width:1.98574;stroke-linecap:butt;stroke-linejoin:miter;stroke-miterlimit:4;stroke-dasharray:none;stroke-opacity:1"
       d="M 57.866798,44.869139 26.026248,57.060643"
       id="path3359-8-1-4-9-3"
       sodipodi:nodetypes="cc" />
    <path
       style="fill:none;stroke:#000000;stroke-width:2.26346;stroke-linecap:butt;stroke-linejoin:miter;stroke-miterlimit:4;stroke-dasharray:none;stroke-opacity:1"
       d="m 26.661378,53.939695 c -2.40026,1.623713 -4.28716,3.092245 -5.69355,4.415503 -3.05648,2.875837 -3.84351,5.065602 -2.6987,6.671384 1.87296,2.627068 8.91664,3.69103 19.6527,3.638774"
       id="path4413-2-3-8-8"
       sodipodi:nodetypes="cssc" />
    <path
       style="fill:none;stroke:#000000;stroke-width:1.89112;stroke-linecap:butt;stroke-linejoin:miter;stroke-miterlimit:4;stroke-dasharray:none;stroke-opacity:1"
       d="m 37.471998,68.862273 c 8.69937,-0.395962 24.59511,-1.998062 34.40778,-5.174473 4.81076,-1.557281 7.13752,-4.268026 5.65548,-7.151892"
       id="path11256-7-2-4"
       inkscape:transform-center-x="-0.53661389"
       inkscape:transform-center-y="0.015376552"
       sodipodi:nodetypes="csc" />
    <path
       style="fill:none;stroke:#000000;stroke-width:1.59346;stroke-linecap:butt;stroke-linejoin:miter;stroke-miterlimit:4;stroke-dasharray:none;stroke-opacity:1"
       d="m 37.431638,68.29939 c 17.84034,0.741195 42.62397,-10.433814 41.64374,-14.678776"
       id="path11508-5-0-8"
       sodipodi:nodetypes="cc" />
    <path
       style="fill:none;stroke:#000000;stroke-width:2.14499;stroke-linecap:butt;stroke-linejoin:miter;stroke-miterlimit:4;stroke-dasharray:none;stroke-opacity:1"
       d="m 24.583278,51.175267 1.68752,3.729565 1.0801,2.387178"
       id="path2077-7-9-9-7-0"
       inkscape:transform-center-x="-14.114106"
       inkscape:transform-center-y="-7.2224859"
       sodipodi:nodetypes="ccc" />
    <ellipse
       style="fill:#ffffff;fill-opacity:1;stroke-width:0.116784"
       id="path95-5-7-8-4"
       transform="matrix(0.49171789,0.87075457,-0.88578879,0.4640886,0,0)"
       cx="60.461246"
       cy="-35.265629"
       rx="7.8483939"
       ry="8.0827942" />
    <path
       style="fill:none;stroke:#000000;stroke-width:3.07823;stroke-linecap:round;stroke-linejoin:miter;stroke-miterlimit:4;stroke-dasharray:none;stroke-opacity:1"
       d="m 58.070538,29.251232 3.79698,8.237346 2.43031,5.272432"
       id="path2077-4-4-0-3-6"
       inkscape:transform-center-x="13.44141"
       inkscape:transform-center-y="6.0017464"
       sodipodi:nodetypes="ccc" />
    <path
       style="fill:none;stroke:#000000;stroke-width:0.247803;stroke-linecap:round;stroke-linejoin:miter;stroke-miterlimit:4;stroke-dasharray:none;stroke-opacity:1"
       d="m 54.076078,31.716892 5.49189,12.233381"
       id="path17473-06-0" />
    <path
       style="fill:none;stroke:#000000;stroke-width:0.241163;stroke-linecap:round;stroke-linejoin:miter;stroke-miterlimit:4;stroke-dasharray:none;stroke-opacity:1"
       d="m 55.306508,30.360241 6.33225,13.670075"
       id="path17473-0-2-3" />
    <path
       style="fill:none;stroke:#000000;stroke-width:0.250692;stroke-linecap:round;stroke-linejoin:miter;stroke-miterlimit:4;stroke-dasharray:none;stroke-opacity:1"
       d="m 60.905418,28.46221 6.04635,13.122253"
       id="path17473-1-2-2" />
    <path
       style="fill:none;stroke:#000000;stroke-width:0.241163;stroke-linecap:round;stroke-linejoin:miter;stroke-miterlimit:4;stroke-dasharray:none;stroke-opacity:1"
       d="m 62.610628,28.630544 5.60887,11.531767"
       id="path17473-6-5-6" />
    <path
       style="fill:none;stroke:#000000;stroke-width:0.272237;stroke-linecap:round;stroke-linejoin:miter;stroke-miterlimit:4;stroke-dasharray:none;stroke-opacity:1"
       d="m 64.485668,28.845438 4.71057,9.35167"
       id="path17473-4-2-9"
       inkscape:transform-center-x="-2.1163593"
       inkscape:transform-center-y="1.3478679" />
    <path
       style="fill:none;stroke:#000000;stroke-width:0.241163;stroke-linecap:butt;stroke-linejoin:miter;stroke-miterlimit:4;stroke-dasharray:none;stroke-opacity:1"
       d="m 53.120508,34.132479 10.31457,-5.462021"
       id="path18066-2-4" />
    <path
       style="fill:none;stroke:#000000;stroke-width:0.241163;stroke-linecap:butt;stroke-linejoin:miter;stroke-miterlimit:4;stroke-dasharray:none;stroke-opacity:1"
       d="m 53.356108,33.082445 8.77983,-4.729397"
       id="path18066-3-7-1" />
    <path
       style="fill:none;stroke:#000000;stroke-width:2.98962;stroke-linecap:round;stroke-linejoin:miter;stroke-miterlimit:4;stroke-dasharray:none;stroke-dashoffset:0;stroke-opacity:1;paint-order:normal"
       d="m 50.866338,32.306789 3.9355,8.597746 2.51897,5.503093"
       id="path2077-4-8-1-3"
       inkscape:transform-center-x="10.987661"
       inkscape:transform-center-y="7.9953311"
       sodipodi:nodetypes="ccc" />
    <path
       style="fill:none;stroke:#000000;stroke-width:0.241163;stroke-linecap:butt;stroke-linejoin:miter;stroke-miterlimit:4;stroke-dasharray:none;stroke-opacity:1"
       d="m 53.579978,32.120241 7.22583,-3.891218"
       id="path18066-3-2-5-7" />
    <path
       style="fill:none;stroke:#000000;stroke-width:0.241163;stroke-linecap:butt;stroke-linejoin:miter;stroke-miterlimit:4;stroke-dasharray:none;stroke-opacity:1"
       d="M 52.659948,35.410971 64.472728,29.11064"
       id="path18066-32-2-8" />
    <path
       style="fill:none;stroke:#000000;stroke-width:0.242691;stroke-linecap:butt;stroke-linejoin:miter;stroke-miterlimit:4;stroke-dasharray:none;stroke-opacity:1"
       d="m 53.333778,36.046067 12.15869,-6.400318"
       id="path18066-7-1-8" />
    <path
       style="fill:none;stroke:#000000;stroke-width:0.241163;stroke-linecap:butt;stroke-linejoin:miter;stroke-miterlimit:4;stroke-dasharray:none;stroke-opacity:1"
       d="m 53.819188,36.861937 12.71583,-6.791302"
       id="path18066-1-1-3" />
    <path
       style="fill:none;stroke:#000000;stroke-width:0.241163;stroke-linecap:butt;stroke-linejoin:miter;stroke-miterlimit:4;stroke-dasharray:none;stroke-opacity:1"
       d="m 53.630978,38.063306 13.37942,-7.126329"
       id="path18066-0-0-8" />
    <path
       style="fill:none;stroke:#000000;stroke-width:0.241163;stroke-linecap:butt;stroke-linejoin:miter;stroke-miterlimit:4;stroke-dasharray:none;stroke-opacity:1"
       d="m 54.128968,38.906859 13.67874,-7.371904"
       id="path18066-09-1-1" />
    <path
       style="fill:none;stroke:#000000;stroke-width:0.241163;stroke-linecap:butt;stroke-linejoin:miter;stroke-miterlimit:4;stroke-dasharray:none;stroke-opacity:1"
       d="m 54.527288,39.859748 13.67874,-7.371901"
       id="path18066-09-0-87-5" />
    <path
       style="fill:none;stroke:#000000;stroke-width:0.241163;stroke-linecap:butt;stroke-linejoin:miter;stroke-miterlimit:4;stroke-dasharray:none;stroke-opacity:1"
       d="m 55.090898,40.698747 13.67876,-7.37191"
       id="path18066-09-0-1-6-3" />
    <path
       style="fill:none;stroke:#000000;stroke-width:0.241163;stroke-linecap:butt;stroke-linejoin:miter;stroke-miterlimit:4;stroke-dasharray:none;stroke-opacity:1"
       d="m 55.441878,41.663182 13.67874,-7.37192"
       id="path18066-09-0-7-0-5" />
    <path
       style="fill:none;stroke:#000000;stroke-width:0.241163;stroke-linecap:butt;stroke-linejoin:miter;stroke-miterlimit:4;stroke-dasharray:none;stroke-opacity:1"
       d="M 55.852378,42.602793 69.531108,35.23089"
       id="path18066-09-0-6-0-4" />
    <path
       style="fill:none;stroke:#000000;stroke-width:0.241163;stroke-linecap:butt;stroke-linejoin:miter;stroke-miterlimit:4;stroke-dasharray:none;stroke-opacity:1"
       d="m 56.494908,43.395906 12.98011,-7.048594"
       id="path18066-09-0-8-9-3" />
    <path
       style="fill:none;stroke:#000000;stroke-width:0.241163;stroke-linecap:butt;stroke-linejoin:miter;stroke-miterlimit:4;stroke-dasharray:none;stroke-opacity:1"
       d="m 57.487378,43.950361 11.81618,-6.460174"
       id="path18066-09-0-5-5-6" />
    <path
       style="fill:none;stroke:#000000;stroke-width:0.241163;stroke-linecap:butt;stroke-linejoin:miter;stroke-miterlimit:4;stroke-dasharray:none;stroke-opacity:1"
       d="m 59.151788,44.176286 9.92406,-5.578351"
       id="path18066-09-0-4-6-5" />
    <path
       style="fill:none;stroke:#000000;stroke-width:0.243376;stroke-linecap:butt;stroke-linejoin:miter;stroke-miterlimit:4;stroke-dasharray:none;stroke-opacity:1"
       d="m 60.496038,44.373422 8.32282,-4.552925"
       id="path18066-09-0-79-2-9" />
    <path
       style="fill:none;stroke:#000000;stroke-width:1.34064;stroke-linecap:butt;stroke-linejoin:miter;stroke-miterlimit:4;stroke-dasharray:none;stroke-opacity:1"
       d="m 60.372698,65.292714 17.49842,-5.514142"
       id="path1366-8-5" />
    <path
       style="fill:none;stroke:#000000;stroke-width:1.34064;stroke-linecap:butt;stroke-linejoin:miter;stroke-miterlimit:4;stroke-dasharray:none;stroke-opacity:1"
       d="m 59.357488,66.812635 17.4984,-5.514158"
       id="path1366-3-5-4" />
    <path
       style="fill:none;stroke:#000000;stroke-width:2.24341;stroke-linecap:butt;stroke-linejoin:miter;stroke-miterlimit:4;stroke-dasharray:none;stroke-opacity:1"
       d="m 71.199388,61.097065 c 4.01522,0.08153 5.52243,-1.547864 5.95294,-3.911591"
       id="path2683-9-9"
       sodipodi:nodetypes="cc" />
    <path
       sodipodi:type="star"
       style="fill:#000000;stroke-width:3.77953;stroke-linecap:butt;stroke-linejoin:round;stroke-miterlimit:4;stroke-dasharray:none"
       id="path15557-4-1"
       inkscape:flatsided="false"
       sodipodi:sides="4"
       sodipodi:cx="328.7854"
       sodipodi:cy="55.160465"
       sodipodi:r1="50.888573"
       sodipodi:r2="25.444286"
       sodipodi:arg1="1.5137155"
       sodipodi:arg2="2.2991137"
       inkscape:rounded="0"
       inkscape:randomized="0"
       transform="matrix(0.14716396,0.01090991,-0.01557324,0.22389922,31.493268,39.737751)"
       d="M 331.68859,105.96616 311.84931,74.14942 277.97971,58.06365 309.79645,38.224371 325.88222,4.3547731 345.7215,36.17151 379.59109,52.257281 347.77436,72.09656 Z" />
    <path
       sodipodi:type="star"
       style="fill:#ffffff;stroke-width:3.77953;stroke-linecap:butt;stroke-linejoin:round;stroke-miterlimit:4;stroke-dasharray:none"
       id="path15557-4-4-75"
       inkscape:flatsided="false"
       sodipodi:sides="4"
       sodipodi:cx="328.7854"
       sodipodi:cy="55.160465"
       sodipodi:r1="50.888573"
       sodipodi:r2="25.444286"
       sodipodi:arg1="1.5137155"
       sodipodi:arg2="2.2991137"
       inkscape:rounded="0"
       inkscape:randomized="0"
       transform="matrix(0.09369091,0.00822056,-0.00991459,0.16870668,48.858528,43.531548)"
       d="M 331.68859,105.96616 311.84931,74.14942 277.97971,58.06365 309.79645,38.224371 325.88222,4.3547731 345.7215,36.17151 379.59109,52.257281 347.77436,72.09656 Z" />
    <path
       sodipodi:type="star"
       style="fill:#000000;stroke-width:3.77953;stroke-linecap:butt;stroke-linejoin:round;stroke-miterlimit:4;stroke-dasharray:none"
       id="path15557-4-7-5"
       inkscape:flatsided="false"
       sodipodi:sides="4"
       sodipodi:cx="328.7854"
       sodipodi:cy="55.160465"
       sodipodi:r1="50.888573"
       sodipodi:r2="25.444286"
       sodipodi:arg1="1.5137155"
       sodipodi:arg2="2.2991137"
       inkscape:rounded="0"
       inkscape:randomized="0"
       transform="matrix(0.07636112,0.00610105,-0.0080807,0.12520918,41.564488,44.589381)"
       d="M 331.68859,105.96616 311.84931,74.14942 277.97971,58.06365 309.79645,38.224371 325.88222,4.3547731 345.7215,36.17151 379.59109,52.257281 347.77436,72.09656 Z" />
    <path
       sodipodi:type="star"
       style="fill:#ffffff;stroke-width:3.77953;stroke-linecap:butt;stroke-linejoin:round;stroke-miterlimit:4;stroke-dasharray:none"
       id="path15557-4-4-0-4"
       inkscape:flatsided="false"
       sodipodi:sides="4"
       sodipodi:cx="328.7854"
       sodipodi:cy="55.160465"
       sodipodi:r1="50.888573"
       sodipodi:r2="25.444286"
       sodipodi:arg1="1.5137155"
       sodipodi:arg2="2.2991137"
       inkscape:rounded="0"
       inkscape:randomized="0"
       transform="matrix(0.04210651,0.00437997,-0.00445582,0.089888,52.655878,47.104394)"
       d="M 331.68859,105.96616 311.84931,74.14942 277.97971,58.06365 309.79645,38.224371 325.88222,4.3547731 345.7215,36.17151 379.59109,52.257281 347.77436,72.09656 Z" />
    <path
       sodipodi:type="star"
       style="fill:#000000;stroke-width:3.77953;stroke-linecap:butt;stroke-linejoin:round;stroke-miterlimit:4;stroke-dasharray:none"
       id="path15557-4-6-1"
       inkscape:flatsided="false"
       sodipodi:sides="4"
       sodipodi:cx="328.7854"
       sodipodi:cy="55.160465"
       sodipodi:r1="50.888573"
       sodipodi:r2="25.444286"
       sodipodi:arg1="1.5137155"
       sodipodi:arg2="2.2991137"
       inkscape:rounded="0"
       inkscape:randomized="0"
       transform="matrix(0.05238083,0.0039363,-0.00554307,0.08078269,55.422538,40.877127)"
       d="M 331.68859,105.96616 311.84931,74.14942 277.97971,58.06365 309.79645,38.224371 325.88222,4.3547731 345.7215,36.17151 379.59109,52.257281 347.77436,72.09656 Z" />
    <path
       sodipodi:type="star"
       style="fill:#ffffff;stroke-width:3.77953;stroke-linecap:butt;stroke-linejoin:round;stroke-miterlimit:4;stroke-dasharray:none"
       id="path15557-4-4-7-8"
       inkscape:flatsided="false"
       sodipodi:sides="4"
       sodipodi:cx="328.7854"
       sodipodi:cy="55.160465"
       sodipodi:r1="50.888573"
       sodipodi:r2="25.444286"
       sodipodi:arg1="1.5137155"
       sodipodi:arg2="2.2991137"
       inkscape:rounded="0"
       inkscape:randomized="0"
       transform="matrix(0.02543438,0.00255799,-0.00269153,0.05249667,64.107958,42.829083)"
       d="M 331.68859,105.96616 311.84931,74.14942 277.97971,58.06365 309.79645,38.224371 325.88222,4.3547731 345.7215,36.17151 379.59109,52.257281 347.77436,72.09656 Z" />
    <path
       style="fill:#000000;stroke-width:3.88533"
       id="path7686-8"
       d="m 27.746318,55.606965 c 0.0675,-0.02681 0.13317,-0.0586 0.20241,-0.08077 0.0331,-0.01004 0.12163,0.01136 0.10293,-0.01726 -0.0671,-0.102952 -0.18013,-0.169407 -0.27567,-0.248006 -0.0107,-0.0088 -0.0451,-0.0246 -0.0402,-0.01135 0.0333,0.08796 0.0478,0.203666 0.13074,0.250732 0.13416,0.07608 0.30498,0.0552 0.45746,0.08277 0.0588,-0.02492 0.20704,-0.02002 0.17616,-0.07484 -0.11781,-0.209217 -0.32453,-0.358837 -0.50872,-0.515699 -0.0169,-0.01435 -0.0764,0.02027 -0.0582,0.03287 0.22691,0.157429 0.43633,0.410487 0.71429,0.422237 0.23544,0.01004 0.40248,-0.24001 0.59931,-0.366741 0.0717,-0.04613 -0.14904,0.08316 -0.22356,0.124751 -0.11551,-0.125129 -0.51875,-0.383652 -0.34654,-0.375444 0.25847,0.01261 0.40716,0.378521 0.66564,0.390624 0.30308,0.01428 0.56553,-0.215251 0.84957,-0.31961 0.27374,-0.100539 0.54914,-0.196781 0.82371,-0.295189 0,0 3.00746,-2.280066 3.00746,-2.280066 v 0 c -0.20962,0.05434 -0.41587,0.123111 -0.62887,0.162892 -0.11786,0.02208 -0.29982,-0.08015 -0.35928,0.02176 -0.002,0.004 0.22289,1.621797 -0.0283,-0.188897 -0.14894,0.04818 -0.29932,0.09236 -0.44684,0.144534 -0.0975,0.03453 -0.28046,0.01428 -0.28783,0.115424 -0.0176,0.241775 0.0882,0.492366 0.22899,0.69182 0.0404,0.05733 0.19638,-0.05504 0.17403,-0.121092 -0.0766,-0.226533 -0.23115,-0.432542 -0.41442,-0.590061 -0.0473,-0.04068 -0.10852,0.0626 -0.16279,0.09402 0.0362,0.07862 0.0743,0.156427 0.10865,0.235854 0.0291,0.06725 0.0379,0.144842 0.0817,0.203941 0.0237,0.03202 0.004,-0.08406 -0.0175,-0.117441 -0.32465,-0.500898 -0.18193,-0.29544 -0.5711,-0.3403 0,0 -3.95327,2.968938 -3.95327,2.968938 z" />
    <path
       style="fill:#000000;stroke-width:3.88533"
       id="path7688-3"
       d="m 31.213578,54.780901 c 0.96729,-0.338796 0.5015,-0.160899 1.78312,-0.711582 0.46539,-0.199953 0.92925,-0.403279 1.39387,-0.604918 0,0 2.33083,-1.786723 2.33083,-1.786723 v 0 c -0.30772,0.08746 -0.61086,0.192003 -0.92316,0.26219 -0.31318,0.07041 -0.56271,0.06939 -0.86937,0.08013 0,0 -3.71529,2.760934 -3.71529,2.760934 z" />
    <path
       style="fill:#000000;stroke-width:3.88533"
       id="path7690-5"
       d="m 35.530148,52.375302 c 0.25305,-0.303256 0.10032,-0.132028 0.47145,-0.502079 0,0 -3.4637,1.339887 -3.4637,1.339887 v 0 c -1.14569,0.704995 -0.67821,0.39164 -1.42319,0.909789 0,0 4.41544,-1.747597 4.41544,-1.747597 z" />
    <path
       style="fill:#000000;stroke-width:3.88533"
       id="path7692-2"
       d="m 31.516978,53.997722 c 0.15395,-0.0731 0.31394,-0.135222 0.46187,-0.219405 10.75252,-6.119659 2.84788,-1.643655 2.13597,-1.32537 -0.47272,0.211362 0.89004,-0.525309 1.33505,-0.787964 0,0 2.15605,-1.706501 2.15605,-1.706501 v 0 c -0.33345,0.174689 -0.66964,0.344489 -1.00037,0.524049 -2.52294,1.369827 -7.26893,4.039239 -1.00686,0.439434 0.0181,-0.01004 -0.0239,0.03375 -0.0359,0.05061 0,0 -4.04587,3.025135 -4.04587,3.025135 z" />
    <path
       style="fill:#000000;stroke-width:3.88533"
       id="path7694-2"
       d="m 42.963958,47.604203 c 0.0745,-0.05355 0.15152,-0.10396 0.2236,-0.160629 0.11438,-0.08997 0.22289,-0.186808 0.33547,-0.278883 0.38031,-0.311054 0.76692,-0.614719 1.14644,-0.926696 0.23978,-0.197096 0.47319,-0.401575 0.71474,-0.596599 0.25977,-0.209745 0.52602,-0.411708 0.78903,-0.617558 0.24714,-0.186224 0.49428,-0.372448 0.74141,-0.558671 0,0 -3.44746,1.36172 -3.44746,1.36172 v 0 c -0.16808,0.153981 -0.33616,0.307978 -0.50424,0.461975 -0.22986,0.191217 -0.45389,0.389354 -0.68958,0.57367 -1.15569,0.90379 -2.38583,1.719691 -3.69216,2.400574 0,0 4.38275,-1.658896 4.38275,-1.658903 z" />
    <path
       style="fill:#000000;stroke-width:3.88533"
       id="path7696-6"
       d="m 25.123808,52.837894 c 0.14679,-0.01135 0.28722,-0.06529 0.43362,-0.07751 0.56207,-0.04676 1.13558,0.04218 1.67478,0.195607 0.18382,0.05228 0.36024,0.126834 0.54036,0.190238 0.41964,0.174616 0.82657,0.389574 1.18628,0.66609 0.31447,0.241753 0.18748,0.180018 0.45004,0.428473 0.0676,0.06402 0.14192,0.120966 0.21288,0.181517 0.14747,0.143241 0.30068,0.283684 0.41918,0.45204 0.0629,0.08946 0.1157,0.184387 0.1809,0.272796 0.0611,0.08378 0.16167,0.138802 0.22131,0.223274 0.0231,0.03279 0.0206,0.123113 0.057,0.105477 4.61262,-2.243544 5.10414,-0.778118 4.41764,-2.532817 -0.0794,-0.156836 -0.043,-0.093 -0.10375,-0.194536 0,0 -4.439,2.41402 -4.439,2.41402 v 0 c -0.0102,0.04912 -2.4e-4,0.02586 -0.0561,-0.05284 -0.94916,-1.571268 -0.18738,-0.190742 4.3698,-2.458585 0.0271,-0.01348 0.008,0.06994 -0.0159,0.08758 -0.0231,0.0168 -0.18619,-0.0998 -0.20075,-0.117939 -0.28279,-0.238817 -0.61922,-0.407315 -0.9242,-0.616605 -0.0821,-0.05621 -0.16111,-0.116935 -0.24629,-0.168473 -0.11143,-0.06742 -0.5707,-0.303025 -0.66594,-0.351442 -0.14002,-0.0712 -0.27758,-0.147405 -0.42129,-0.211173 -0.2732,-0.121226 -0.74578,-0.284607 -1.02154,-0.383557 -0.50268,-0.178694 -1.01109,-0.358522 -1.47761,-0.61912 -0.0966,-0.05394 -0.18404,-0.122236 -0.27606,-0.183275 -0.054,-0.04061 -0.10379,-0.08719 -0.16202,-0.121723 -0.0235,-0.01397 -0.053,-0.01435 -0.0795,-0.02152 0,0 -4.0737,2.894098 -4.0737,2.894098 z" />
    <path
       style="fill:#000000;stroke-width:3.88533"
       id="path7698-6"
       d="m 25.054728,54.498997 c 0.0553,0.144063 0.0157,0.05622 0.13892,0.254124 0,0 4.27256,-2.201869 4.27256,-2.201869 v 0 c 0.069,-0.219469 0.0404,-0.121227 0.0883,-0.294212 0,0 -4.49983,2.241957 -4.49983,2.241957 z" />
    <path
       style="fill:#000000;stroke-width:3.88533"
       id="path7702-7"
       d="m 25.332438,54.330231 c 0.42581,0.214477 0.77983,0.541033 1.10975,0.875482 0.25757,0.283574 0.43923,0.634204 0.4911,1.011707 10e-4,0.127982 0.005,0.06159 -0.0147,0.19914 0,0 4.3839,-2.205986 4.3839,-2.205986 v 0 c -0.0371,-0.200014 -0.0161,-0.09401 -0.064,-0.317907 -0.0553,-0.103322 -0.0965,-0.188967 -0.16783,-0.284638 -0.19993,-0.268079 -0.49607,-0.457662 -0.67122,-0.747127 -0.19847,-0.228315 -0.18876,-0.211733 -0.37295,-0.444471 -0.0736,-0.093 -0.20687,-0.254162 -0.25564,-0.369735 -0.0345,-0.08192 -0.0334,-0.154778 -0.0374,-0.238109 0,0 -4.40096,2.521653 -4.40096,2.521653 z" />
    <path
       style="fill:#000000;stroke-width:3.88533"
       id="path7704-8"
       d="m 30.700988,53.4477 c -0.21106,-0.18299 -0.34611,-0.436302 -0.45576,-0.686837 -0.0628,-0.205126 -0.15433,-0.399556 -0.23449,-0.59816 -0.063,-0.103075 -0.10534,-0.218514 -0.16433,-0.323174 -0.0226,-0.04022 -0.083,-0.100681 -0.10872,-0.128796 -0.14402,-0.129373 -0.28415,-0.260312 -0.41926,-0.39843 0,0 -4.24906,2.605163 -4.24906,2.605163 v 0 c 0.1395,0.08216 0.26252,0.191555 0.36579,0.314492 0.0228,0.03312 0.0394,0.07041 0.0646,0.101938 0.06,0.07507 0.14241,0.133218 0.17405,0.229844 0.10689,0.191381 0.18902,0.394661 0.31434,0.576019 0.13344,0.212317 0.29424,0.470548 0.28249,0.727178 0,0 4.43036,-2.419184 4.43036,-2.419184 z" />
    <ellipse
       id="path7706-4"
       style="fill:#000000;stroke:#000000;stroke-width:0.337157"
       cx="27.022753"
       cy="52.493443"
       rx="0.10817172"
       ry="0.10577375" />
    <ellipse
       id="path7708-1"
       style="fill:#000000;stroke:#000000;stroke-width:0.337157"
       cx="27.022753"
       cy="52.493443"
       rx="0.10817172"
       ry="0.10577375" />
    <ellipse
       id="path7710-7"
       style="fill:#000000;stroke:#000000;stroke-width:0.337157"
       cx="27.163698"
       cy="52.906868"
       rx="0.10817172"
       ry="0.10577375" />
    <ellipse
       id="path7712-1"
       style="fill:#000000;stroke:#000000;stroke-width:0.337157"
       cx="27.163698"
       cy="52.906868"
       rx="0.10817172"
       ry="0.10577375" />
    <path
       style="fill:#000000;stroke-width:3.88533"
       id="path7714-8"
       d="m 24.220318,54.371037 c 0.1047,-0.02681 0.21324,-0.02965 0.32056,-0.03683 0,0 4.01829,-2.854729 4.01829,-2.854729 v 0 c -0.0725,-0.0063 -0.15105,-0.0023 -0.21693,-0.03682 0,0 -4.12192,2.92836 -4.12192,2.92836 z" />
    <ellipse
       id="path7716-7"
       style="fill:#000000;stroke:#000000;stroke-width:0.337157"
       cx="26.670397"
       cy="52.769066"
       rx="0.10817172"
       ry="0.10577375" />
    <ellipse
       id="path7718-8"
       style="fill:#000000;stroke:#000000;stroke-width:0.337157"
       cx="26.670397"
       cy="52.769066"
       rx="0.10817172"
       ry="0.10577375" />
    <ellipse
       id="path7720-7"
       style="fill:#000000;stroke:#000000;stroke-width:0.337157"
       cx="26.670397"
       cy="52.769066"
       rx="0.10817172"
       ry="0.10577375" />
    <ellipse
       id="path7722-7"
       style="fill:#000000;stroke:#000000;stroke-width:0.337157"
       cx="26.670397"
       cy="52.769066"
       rx="0.10817172"
       ry="0.10577375" />
    <path
       style="fill:#000000;stroke-width:3.88533"
       id="path7724-4"
       d="m 36.207658,47.57789 c 0.12447,0.159903 0.24445,0.326042 0.31088,0.517944 0.0199,0.0809 0.0232,0.146515 0.0825,0.212757 0.0307,0.0343 0.0716,0.05882 0.10322,0.09235 0.0704,0.07458 0.15695,0.202042 0.21416,0.281784 0.18659,0.305968 0.3398,0.63638 0.44499,0.977791 0.0755,0.207774 0.11972,0.426013 0.19633,0.632965 0.066,0.17249 0.15445,0.335626 0.2241,0.507782 0.0871,0.186706 0.12583,0.388801 0.19527,0.581594 0.008,0.03335 0.0134,0.06742 0.0231,0.100306 0.0184,0.06221 0.0454,0.121849 0.0638,0.184007 0.0221,0.07421 0.0301,0.141965 0.0575,0.215187 0.0267,0.06505 0.0154,0.03335 0.0348,0.09464 0,0 4.41281,-2.454943 4.41281,-2.454943 v 0 c -0.0349,-0.04596 -0.0179,-0.02113 -0.05,-0.07458 -0.0985,-0.10484 -0.11926,-0.271895 -0.19275,-0.392523 -0.0543,-0.208768 -0.11835,-0.415611 -0.20062,-0.615651 -0.0667,-0.178164 -0.13562,-0.355423 -0.20192,-0.533209 -0.0928,-0.196017 -0.20801,-0.380041 -0.31259,-0.570114 -0.082,-0.155234 -0.15165,-0.317686 -0.23703,-0.470997 -0.0954,-0.1714 -0.21014,-0.333472 -0.28162,-0.517416 -0.0415,-0.111141 -0.0894,-0.227629 -0.11664,-0.343691 -0.0332,-0.141656 -0.019,-0.199124 -0.12673,-0.313238 -0.0915,-0.139008 -0.19674,-0.310888 -0.16363,-0.481752 0,0 -4.48003,2.369004 -4.48003,2.369004 z" />
    <path
       style="fill:#000000;stroke-width:3.88533"
       id="path7726-4"
       d="m 29.493088,54.491728 c 0.13999,-0.03642 0.28081,-0.0697 0.41995,-0.109124 1.25324,-0.354611 -0.0189,-0.02049 1.36281,-0.393375 0.67661,-0.182619 1.35619,-0.355179 2.03302,-0.5372 0.69974,-0.18833 1.37921,-0.43758 2.03836,-0.733132 0.20414,-0.101564 0.41535,-0.191868 0.61621,-0.299698 0.27716,-0.148809 -0.0229,-0.0063 0.24832,-0.130397 0.27833,-0.146058 0.54441,-0.248501 0.85922,-0.286381 2.15291,-0.121094 -2.15623,1.907208 4.27208,-2.82259 -0.66752,-0.08455 -1.34199,-0.07914 -2.01116,-0.148902 -0.42036,-0.04384 -0.58675,-0.07775 -0.98956,-0.145404 -0.16594,-0.03242 -0.47626,-0.101178 -0.65642,-0.108113 -0.0846,-0.004 -0.18017,-0.02492 -0.25331,0.01681 -1.40737,0.800794 -2.81863,1.600513 -4.16435,2.49693 -0.039,0.02595 -0.0342,0.500835 -0.0346,0.553074 -1.43054,0.971555 -0.0994,0.06451 3.88178,-2.369924 0.0809,-0.04952 -0.15141,0.11845 -0.24044,0.15219 -0.36939,0.139828 -0.81926,0.159108 -1.21048,0.216118 -1.3895,0.792986 -2.82083,1.519715 -4.16851,2.37893 -0.10428,0.06655 -0.0881,0.712195 -0.0321,0.826649 0.058,0.118316 0.11297,0.379614 0.2329,0.320878 1.50652,-0.73787 2.88495,-1.702952 4.32743,-2.554446 0.0332,-0.06947 0.0522,-0.147405 0.0998,-0.208326 0.0568,-0.07263 0.12658,-0.138843 0.20753,-0.18467 0.088,-0.0499 0.37584,-0.147746 0.28878,-0.09626 -8.84741,5.225466 -4.80419,2.256758 -3.4676,2.053912 0.0575,-0.0088 0.11615,-0.0063 0.17423,-0.01004 1.74439,0.408065 0.40646,0.129017 4.37772,-2.522678 0.019,-0.0127 -0.10677,-0.365832 -0.11822,-0.405407 -0.0117,-0.0406 -0.071,-0.128198 -0.0281,-0.12349 0.0762,0.0088 0.12002,0.0935 0.18002,0.140252 -1.46209,0.781988 -2.95481,1.511508 -4.38626,2.345955 -0.0624,0.03642 0.13232,0.05968 0.19347,0.09817 0.0735,0.04612 0.14403,0.09753 0.20918,0.154406 0.0595,0.05204 0.0908,0.203517 0.16342,0.171084 4.54919,-2.032881 4.66809,-0.633082 4.37244,-2.521982 -0.0825,-0.517977 -0.19325,-1.030401 -0.2662,-1.550073 -0.0107,-0.213814 0.0884,-0.390798 0.17243,-0.578953 0.12456,-0.111266 0.1895,-0.169847 0.18794,-0.340615 0.0481,-0.09173 0.051,-0.199448 0.0771,-0.299092 7.7e-4,-0.08191 -2.4e-4,-0.162766 -0.0118,-0.244077 3.2e-4,-0.01325 6.8e-4,-0.02649 7.7e-4,-0.03966 0,0 -4.5321,2.257458 -4.5321,2.257458 v 0 c 2.9e-4,0.01261 6.8e-4,0.02397 7.7e-4,0.03588 -0.009,0.05559 -0.0118,0.113406 -0.0359,0.16462 -0.009,0.0901 -0.0667,0.164658 -0.0804,0.254005 -0.0971,0.06512 -0.0994,0.187074 -0.1121,0.293942 -0.056,0.284008 -0.0308,0.502412 0.0944,0.76867 0.18327,0.334883 0.33596,0.669686 0.24148,1.062289 -0.0176,0.07332 -0.0574,0.139694 -0.0861,0.20954 -1.67571,0.615578 0.64325,-0.229283 4.01823,-2.003351 0.0523,-0.02745 -0.12531,-0.01004 -0.1717,-0.04637 -0.0603,-0.04715 -0.0929,-0.121328 -0.12856,-0.188195 -0.86634,-1.62585 5.43549,-2.841598 -4.60451,2.009581 0.0777,0.08708 0.16483,0.149157 0.19469,0.261016 0.006,0.02271 0.0166,0.05061 0.004,0.07041 -0.0112,0.01703 -0.0777,0.02531 -0.0599,0.01513 4.24815,-2.442098 5.30936,-3.377475 3.96652,-2.216047 -0.0536,0.0048 -0.54195,0.04612 -0.57271,0.06159 -1.43817,0.729315 -2.85403,1.500491 -4.26423,2.280279 -0.0952,0.05267 -0.16906,0.136524 -0.24525,0.213302 -0.15891,0.160131 -0.2762,0.357354 -0.45616,0.499106 1.35692,-0.745888 2.6599,-1.59453 4.07075,-2.237651 0.1104,-0.05031 0.0575,0.232423 0.0679,0.351095 0.002,0.02468 -0.0402,-0.03691 -0.0426,-0.0615 -0.004,-0.03895 0.005,-0.0809 0.0252,-0.114673 0.02,-0.03351 0.1243,-0.09564 0.0895,-0.07688 -1.25261,0.673811 -2.49692,1.362311 -3.74537,2.043464 0.33016,-0.163759 0.33476,-0.216559 0.71306,-0.206984 0.0954,0.0023 0.18922,0.02808 0.28111,0.05345 0.0765,0.02107 0.15286,0.123617 0.22172,0.08506 4.35524,-2.441625 4.69719,-1.024631 4.21435,-2.751032 0.007,-0.04841 0.002,-0.100184 0.0216,-0.145243 0.0199,-0.04574 0.0618,-0.07901 0.0927,-0.118452 -1.28856,0.714751 -2.57713,1.42951 -3.86569,2.144259 -0.0928,0.05031 0.1571,-0.144472 0.25313,-0.188463 0.2734,-0.125255 0.54214,-0.104458 0.8352,-0.117315 0.86052,0.02357 1.74528,0.06931 2.50423,0.512779 5.1727,-3.338443 5.73777,-2.819726 3.62889,-2.664861 -0.31884,0.02342 -0.64413,0.0079 -0.94121,0.144669 -0.0972,0.04399 -0.2007,0.07396 -0.29661,0.12047 -0.0536,0.02595 -0.10087,0.06316 -0.15254,0.09273 -0.19703,0.112908 -0.40132,0.213837 -0.59637,0.33016 -0.817,0.456655 -1.64814,0.893153 -2.53477,1.208953 -0.22088,0.07776 -0.43913,0.162932 -0.66263,0.233093 -0.43775,0.137416 -0.85922,0.242241 -1.31307,0.311386 -0.25204,0.0384 -0.55719,0.07254 -0.81922,0.03588 -0.0371,-0.0048 -0.069,-0.02871 -0.10343,-0.04321 0,0 -4.0737,2.894109 -4.0737,2.894109 z" />
    <path
       style="fill:#000000;stroke-width:3.88533"
       id="path7728-9"
       d="m 36.296148,50.433629 c -0.32193,-0.05535 -0.59468,-0.237802 -0.85218,-0.423932 -0.24009,-0.123235 -0.42502,-0.319025 -0.64382,-0.470846 -0.14746,-0.08883 -0.28273,-0.192856 -0.40799,-0.309437 -0.0651,-0.06324 -0.1213,-0.134442 -0.17933,-0.204036 -0.0411,-0.05504 -0.10825,-0.08065 -0.15985,-0.122985 -0.0295,-0.03753 -0.0687,-0.05788 -0.0958,-0.09829 -0.0253,-0.01135 -0.0417,-0.03122 -0.0586,-0.05203 0,0 -4.35834,2.610824 -4.35834,2.610824 v 0 c 0.0214,0.01703 0.0425,0.03335 0.0544,0.0586 0.0507,0.03439 0.0821,0.0833 0.1349,0.114538 0.0461,0.03958 0.10457,0.113926 0.16458,0.122118 0.004,-0.0023 0.008,-0.0088 0.0118,-0.0063 0.0156,0.01004 0.0769,0.07976 0.0863,0.08695 0.009,0.0063 0.0226,0.0048 0.0321,0.01135 0.0201,0.0127 0.11034,0.09124 0.12296,0.101939 0.16856,0.09425 0.31239,0.224015 0.4801,0.320395 0.24507,0.126779 0.49867,0.239884 0.71774,0.409904 0.25601,0.1438 0.53747,0.289976 0.69603,0.543311 0,0 4.25476,-2.691877 4.25476,-2.691877 z" />
    <path
       style="fill:#000000;stroke-width:3.88533"
       id="path7732-1"
       d="m 40.821768,45.042289 c 0.0759,0.02192 0.14768,0.03328 0.21148,0.08378 0.0208,0.01649 0.0358,0.03879 0.054,0.0578 0.0507,0.05292 0.0523,0.05267 0.10951,0.105466 0.13325,0.152097 0.29694,0.269286 0.45874,0.389914 0.0346,0.02318 0.0683,0.04763 0.10378,0.06955 0.14995,0.09274 0.12053,0.05922 0.27521,0.168017 0.17233,0.121227 0.32333,0.266109 0.47713,0.408349 0.27134,0.262877 0.43916,0.602617 0.6723,0.894108 0.0508,0.06348 0.10763,0.122101 0.16145,0.183093 0.0491,0.06742 0.10411,0.131091 0.14726,0.202286 0.0397,0.06537 0.0644,0.138605 0.10032,0.206118 0.0335,0.06301 0.0724,0.122985 0.10759,0.185074 0.0892,0.157096 0.17375,0.312693 0.27413,0.46333 0.0923,0.177692 0.14306,0.369586 0.19289,0.561212 0.007,0.119577 0.1066,0.189677 0.16143,0.285434 0.0326,0.104088 0.0738,0.208296 0.1317,0.30153 0.12559,0.172833 0.28899,0.181712 0.488,0.170547 0.21924,-0.02231 -0.0129,0.0048 0.19047,-0.03114 0.0344,-0.0064 0.0696,-0.0079 0.10395,-0.01411 0.11156,-0.02105 0.21675,-0.06363 0.32203,-0.103832 4.00919,-1.338666 3.00967,-1.433879 4.40199,-2.566305 0.0322,-0.02618 0.0616,-0.0556 0.095,-0.08015 0.30312,-0.22296 -0.10339,0.103452 0.19811,-0.143501 0.11848,-0.08468 0.25105,-0.174358 0.31442,-0.309642 0.0168,-0.0358 0.0461,-0.146293 0.057,-0.185459 3e-5,-0.04968 -0.003,-0.127567 0.008,-0.17859 0.0208,-0.09263 0.031,-0.03966 0.0427,-0.135446 0.0102,-0.08468 -0.006,-0.125254 -0.0223,-0.21316 -0.0157,-0.247838 -0.0781,-0.488886 -0.11933,-0.732997 -0.0226,-0.133628 -0.0396,-0.268103 -0.0595,-0.402118 -0.005,-0.06324 -0.0122,-0.126329 -0.0165,-0.18963 -0.011,-0.166402 -0.013,-0.333031 -0.0325,-0.498934 -0.004,-0.03265 -0.0413,-0.277573 -0.0461,-0.309579 -0.0126,-0.05094 -0.0223,-0.102703 -0.0381,-0.15276 -0.0452,-0.144077 -0.0813,-0.203681 -0.14531,-0.344298 -0.0911,-0.2001 -0.18078,-0.400543 -0.26618,-0.603018 -0.0666,-0.19067 -0.0991,-0.389708 -0.14439,-0.585521 -0.012,-0.05188 -0.0286,-0.102827 -0.0391,-0.155021 -0.0645,-0.320517 0.027,0.03454 -0.0515,-0.253966 -0.0102,-0.07878 -0.0471,-0.150205 -0.0662,-0.226469 -0.009,-0.03429 -0.0102,-0.06995 -0.0181,-0.104332 -0.008,-0.03328 -0.0187,-0.06568 -0.0281,-0.09854 -0.0116,-0.03304 -0.0267,-0.06505 -0.035,-0.09904 -0.008,-0.03202 -0.009,-0.06529 -0.0133,-0.09791 -0.0189,-0.10685 -0.0484,-0.223537 -0.0194,-0.331617 0.0183,-0.03202 0.0239,-0.06632 0.0361,-0.100306 0.0207,-0.0425 -0.0159,-0.07294 -0.0381,-0.116432 -0.0155,-0.03052 -0.0307,-0.06111 -0.048,-0.0906 -0.005,-0.0079 0.008,0.01523 0.0114,0.02294 0.009,0.04281 0.0255,0.01765 0.0336,7.87e-4 0.0149,-0.06757 -0.0349,-0.124499 -0.0652,-0.18333 0.0199,0.03248 -0.0443,-0.08203 -0.0314,-0.06252 0.008,0.01261 0.0135,0.02618 0.0211,0.03872 0.002,0.004 0.011,0.01397 0.009,0.01004 -0.0408,-0.06703 -0.0454,-0.07223 -0.0829,-0.125752 -0.0312,-0.04321 -0.07,-0.07814 -0.10964,-0.113161 0,0 -4.2081,2.844936 -4.2081,2.844936 v 0 c 0.0141,-0.03304 -0.0107,-0.05749 -0.0289,-0.08696 -0.004,-0.0088 -0.008,-0.01877 -0.0121,-0.0276 -0.11525,-0.215344 0.0463,0.114674 0.006,7.88e-4 -0.0107,-0.02144 -0.0317,-0.06512 -0.0441,-0.07751 -0.0111,-0.01135 0.0138,0.07728 0.005,0.07751 0.0167,0.06229 0.0428,0.119839 0.0656,0.180792 0.0828,0.162599 -0.0657,-0.15709 -0.0257,-0.02862 0.0199,0.05905 0.0159,0.122599 0.0588,0.173939 0.0485,0.111519 0.13747,0.178741 0.19731,0.283212 0.0148,0.02737 0.0328,0.05329 0.0444,0.08215 0.1156,0.287161 -0.0565,-0.07838 0.0665,0.20257 0.0146,0.03327 0.0349,0.06402 0.0498,0.09728 0.0161,0.03581 0.0286,0.07294 0.0429,0.109501 0.017,0.03596 0.0339,0.07168 0.051,0.107617 0.0186,0.03997 0.0333,0.08165 0.0557,0.119712 0.023,0.03895 0.0548,0.0723 0.0799,0.110006 0.0284,0.04274 0.0526,0.08783 0.0803,0.130879 0.10194,0.158624 0.21318,0.312172 0.28049,0.489581 0.063,0.205314 0.12473,0.412741 0.1588,0.62508 0.0202,0.125635 0.021,0.232226 0.0341,0.357886 0.005,0.05157 0.0135,0.102826 0.0203,0.154241 0.0295,0.148099 0.0486,0.298218 0.0833,0.445306 0.0247,0.105095 0.0568,0.208358 0.0839,0.312868 0.0151,0.0582 0.0292,0.116559 0.0438,0.174908 0.0335,0.185341 0.0732,0.373395 0.0614,0.562986 -0.0111,0.176588 -0.0602,0.34887 -0.13133,0.510619 -0.0298,0.05039 -0.10554,0.175051 -0.13281,0.234875 -0.0332,0.07294 -0.0318,0.163665 -0.0787,0.230129 -0.0106,0.01498 -0.028,0.02405 -0.042,0.03619 -0.0995,0.08806 -0.23242,0.140144 -0.32422,0.239662 -0.0956,0.06868 -0.18451,0.14415 -0.27959,0.213625 -1.26031,0.920822 -4.61665,1.406248 3.81084,-2.142682 -0.0725,0.05693 -0.14364,0.102444 -0.2239,0.148044 -0.0231,0.01309 -0.0441,0.0306 -0.069,0.04022 -0.0252,0.01004 -0.0529,0.01135 -0.0794,0.01672 -0.0207,0.0088 -0.0412,0.01664 -0.0618,0.02492 -0.0309,0.01004 -0.12707,0.02255 -0.12858,0.06592 -6.8e-4,0.02405 0.0186,0.04612 0.0131,0.07103 -10e-4,0.0063 0.002,0.01703 -0.005,0.01877 -0.0305,0.0088 -0.11089,-0.136224 -0.13426,-0.158413 -0.0547,-0.09917 -0.0893,-0.205826 -0.1794,-0.282289 -0.0663,-0.05898 -0.11449,-0.130555 -0.1775,-0.192555 -0.0978,-0.09626 -0.21428,-0.174214 -0.30689,-0.276035 -0.0381,-0.04274 -0.074,-0.08719 -0.11434,-0.127946 -0.29764,-0.300574 0.0446,0.07563 -0.26767,-0.255006 -0.0485,-0.05125 -0.0925,-0.106481 -0.14048,-0.158254 -0.23408,-0.252335 -0.0993,-0.06868 -0.29022,-0.3761 -0.0372,-0.07356 -0.0696,-0.149518 -0.11145,-0.220563 -0.19599,-0.332368 -0.49359,-0.593563 -0.69803,-0.920427 -0.0413,-0.0649 -0.0812,-0.13076 -0.12375,-0.194882 -0.10102,-0.152113 -0.13088,-0.17983 -0.2265,-0.329168 -0.0439,-0.06867 -0.11815,-0.203642 -0.16856,-0.272872 -0.0231,-0.03178 -0.0511,-0.06001 -0.0767,-0.08984 -0.0862,-0.08883 -0.16414,-0.186367 -0.25384,-0.27181 -0.0195,-0.01853 -0.0414,-0.03455 -0.0608,-0.05315 -0.0184,-0.01767 -0.0351,-0.03691 -0.0526,-0.05527 -0.0428,-0.05568 -0.0628,-0.0853 -0.11309,-0.135789 -0.0513,-0.05142 -0.0759,-0.05117 -0.10076,-0.122986 -0.012,-0.03455 -0.003,-0.07356 -0.0152,-0.108366 0,0 -4.3411,2.601253 -4.3411,2.601253 z" />
    <ellipse
       id="path7734-5"
       style="fill:#000000;stroke:#000000;stroke-width:0.337157"
       cx="45.723911"
       cy="42.198002"
       rx="0.064863749"
       ry="0.063425839" />
    <ellipse
       id="path7736-5"
       style="fill:#000000;stroke:#000000;stroke-width:0.337157"
       cx="45.723911"
       cy="42.198002"
       rx="0.064863749"
       ry="0.063425839" />
    <path
       style="fill:#000000;stroke-width:3.88533"
       id="path7940-5"
       d="m 44.461358,46.511926 c -0.16909,-0.03731 -0.4318,-0.07459 -0.55828,-0.204573 -0.0654,-0.06725 -0.009,-0.301528 -0.095,-0.262466 -1.44785,0.656899 -2.81736,1.467776 -4.21661,2.218641 -0.0541,0.02902 -0.19406,0.147114 -0.13951,0.118956 1.41165,-0.729126 2.80999,-1.482623 4.21499,-2.223923 -0.31323,-0.01767 -0.85365,0.08845 -0.74472,-0.541648 0.0387,-0.223885 0.65427,-0.620028 0.4431,-0.52561 -1.39923,0.625634 -2.73911,1.3753 -4.06189,2.143676 -0.0548,0.03186 0.0177,0.197508 0.0757,0.17178 1.47103,-0.65167 2.88713,-1.415901 4.3307,-2.123847 -0.94351,-1.434216 -0.0949,-0.208523 -4.4723,2.031716 -0.0469,0.02397 -0.0755,0.175271 -0.0276,0.153052 1.42515,-0.661709 2.88749,-1.270285 4.21832,-2.098818 0.16408,-0.102185 -0.35819,-0.190617 -0.55256,-0.18337 -0.23921,0.0088 -0.45256,0.152853 -0.67883,0.22926 -0.17611,0.08066 -0.33663,0.210023 -0.52833,0.242005 -0.14897,0.02484 0.2428,-0.224167 0.39384,-0.219563 0.0854,0.0023 0.0161,0.274348 0.0911,0.234403 0.11789,-0.06277 0.0959,-0.245386 0.15287,-0.364202 0.3756,-0.783303 0.0771,-0.03202 0.35496,-0.779029 -0.007,-0.113658 0.008,-0.230846 -0.0216,-0.340947 -0.0304,-0.112395 -0.10678,-0.207821 -0.15531,-0.313932 -0.10073,-0.220201 -0.13999,-0.340458 -0.22118,-0.56296 0,0 -3.78298,2.129207 -3.78298,2.129207 v 0 c 0.12502,0.144864 0.23095,0.239857 0.29223,0.428226 0.0118,0.03652 0.0532,0.416407 0.0602,0.478859 0.0223,0.194921 0.0594,0.295141 -0.0495,0.491947 -0.18161,0.328425 -0.82105,0.821666 -0.67057,1.235606 0.073,0.200668 0.42761,-0.08494 0.63546,-0.148502 0.12183,-0.0373 0.23305,-0.101937 0.34958,-0.15291 0.16723,-0.05251 0.13266,-0.0048 -0.004,-0.175396 1.38728,-0.695763 2.84371,-1.252574 4.2408,-1.929304 0.086,-0.04171 0.27469,-0.250613 0.18596,-0.214878 -4.07392,1.640297 -3.20372,0.745945 -4.33642,1.939892 1.4353,-0.677855 2.89069,-1.316459 4.3059,-2.033575 0.061,-0.03083 0.13965,-0.214122 0.0767,-0.187139 -1.36338,0.584385 -2.72733,1.177168 -4.02998,1.881676 -0.14866,0.08038 0.4414,-0.129845 0.50911,0.02255 0.101,0.227236 -0.49622,1.58215 -0.52757,1.660774 1.44897,-0.710611 2.90239,-1.412595 4.34689,-2.131839 0.0221,-0.01136 0.0696,-0.06718 0.0474,-0.05622 -1.32597,0.660013 -2.64158,1.339745 -3.96435,2.005836 -0.0772,0.03895 0.16276,-0.180673 0.2276,-0.124113 0.10707,0.09337 -0.0406,0.438935 -0.076,0.54026 0,0 4.36108,-2.459516 4.36108,-2.459516 z" />
    <path
       style="fill:#000000;stroke-width:3.88533"
       id="path7942-8"
       d="m 27.629528,50.751194 c 0.0944,0.04131 0.19974,0.05267 0.29477,0.09175 0.26234,0.107996 0.50004,0.276833 0.67214,0.500087 0.0515,0.06686 0.0872,0.144108 0.13081,0.216179 0,0 3.76202,-2.214281 3.76202,-2.214281 v 0 c -0.18253,-0.150544 -0.2518,-0.183203 -0.37867,-0.39015 -0.14177,-0.231255 -0.18193,-0.491789 -0.22982,-0.750998 0,0 -4.25125,2.547428 -4.25125,2.547428 z" />
    <path
       style="fill:#000000;stroke-width:3.88533"
       id="path7944-2"
       d="m 28.501488,50.044251 c 0.10653,0.05961 0.12569,0.06158 0.22278,0.182438 0.0444,0.05527 0.0705,0.123104 0.11228,0.180507 0.11695,0.160512 0.29906,0.343258 0.40039,0.511205 0.0583,0.09664 0.0943,0.204698 0.14137,0.307055 0.0788,0.285152 0.0824,0.265454 0.12639,0.540897 0.0182,0.113659 0.0163,0.278167 0.0948,0.377685 0.0503,0.06379 0.11936,0.188298 0.1925,0.151324 1.44157,-0.728935 2.81087,-1.587087 4.21631,-2.380625 -0.16157,-0.266787 -0.29079,-0.423418 -0.33147,-0.750146 -0.0359,-0.288851 0.0375,-0.782155 0.13973,-1.051875 0.51497,-1.358225 3.42979,-2.453886 -3.17868,1.738939 0.0862,-0.03518 0.16542,-0.111898 0.25858,-0.105476 0.29516,0.02027 0.79386,0.364507 0.68582,0.714633 -0.0321,0.104087 -0.138,0.170343 -0.207,0.255526 1.29384,-0.882682 2.58767,-1.765369 3.88151,-2.648034 -0.19746,-0.0466 -0.4025,-0.06916 -0.59235,-0.139741 -0.34322,-0.127645 -0.6652,-0.338117 -0.89583,-0.620579 -0.0819,-0.100296 -0.16396,-0.212845 -0.18633,-0.339362 -0.0174,-0.09803 0.0501,-0.192942 0.0751,-0.289416 -1.33991,0.813654 -2.67983,1.627309 -4.01974,2.440963 0.42642,0.198334 0.74286,0.416723 0.98211,0.823076 0.0538,0.09148 0.0666,0.203414 0.12588,0.291586 0.0497,0.07396 0.11603,0.229198 0.19463,0.185253 1.35025,-0.754499 2.60991,-1.654408 3.91486,-2.481617 -0.0356,-0.229081 -0.10662,-0.497721 -0.0185,-0.729314 0.0441,-0.115677 0.14864,-0.199677 0.22296,-0.299527 -1.20789,0.748317 -2.4365,1.465577 -3.62366,2.244938 -0.10347,0.06789 0.23485,-0.11164 0.35905,-0.101689 0.1618,0.01301 0.30407,0.111267 0.45611,0.166874 0.62999,0.559972 0.0936,0.01474 0.48661,0.591813 0.86443,1.269543 3.16104,-1.589815 4.07783,-2.245844 0.0945,-0.06764 -0.0351,-0.228992 -0.0223,-0.342816 0.0131,-0.117441 0.0659,-0.227251 0.0989,-0.340868 1.95633,-0.760579 -1.20416,0.450464 -3.74524,2.098022 -0.10647,0.06908 0.23638,0.120966 0.30594,0.225697 0.0703,0.105846 0.12193,0.246696 0.0887,0.368702 -0.0343,0.126123 -0.38294,0.357497 -0.26825,0.290711 1.26842,-0.738675 2.49564,-1.543017 3.74346,-2.314533 -0.14334,0.0063 -0.29199,0.05882 -0.43004,0.02042 -0.15252,-0.0425 -0.28637,-0.143549 -0.40024,-0.251464 -0.10184,-0.09651 -0.20287,-0.212712 -0.23262,-0.348289 -0.0244,-0.111015 0.0383,-0.226061 0.0837,-0.330532 0.0433,-0.09969 0.11915,-0.182565 0.17872,-0.273842 -1.37955,0.885866 -2.75909,1.771725 -4.13864,2.65759 1.36359,1.171278 0.3625,0.389521 4.51771,-2.052728 0.0984,-0.05788 -0.14674,-0.1749 -0.19925,-0.274758 -0.0894,-0.170019 -0.114,-0.313727 0.0595,-0.452096 0.0624,-0.04976 0.15376,-0.04637 0.23064,-0.06955 -11.93366,6.004883 -0.0373,0.09048 -0.0138,0.07776 0.0617,-0.03367 -0.0605,-0.140853 -0.0338,-0.204904 0.0584,-0.139946 0.16873,-0.254849 0.27243,-0.366937 0.1494,-0.161472 0.45116,-0.235072 0.48383,-0.450455 0.0274,-0.180855 -0.23373,-0.285442 -0.35059,-0.428156 -0.2049,0.07246 -0.39892,0.187848 -0.61472,0.217173 -0.0753,0.01004 0.0962,-0.190979 0.16317,-0.155779 0.15957,0.08391 0.1842,0.320792 0.33567,0.417969 0.0488,0.03138 0.1665,-0.156861 0.11607,-0.12815 -3.61388,2.056907 -2.44115,2.900067 -3.79148,1.689372 0.0148,0.122985 -0.0607,0.300015 0.0446,0.36886 0.15777,0.1032 0.52911,0.213862 0.56852,0.03225 0.0406,-0.187437 -0.35814,-0.162087 -0.51558,-0.276176 -0.0214,-0.01554 0.0294,-0.07775 0.0501,-0.06126 0.81762,0.653838 0.0982,0.694763 1.36464,-0.08758 -0.27696,0.0063 -0.56047,-0.03936 -0.83086,0.01964 -0.0553,0.01261 0.1208,0.09778 0.0874,0.142532 -0.15696,0.210264 -0.6237,0.270327 -0.58818,0.528329 0.0318,0.231083 0.45932,0.260864 0.68754,0.193258 0.16196,-0.04802 -0.25688,-0.256489 -0.42547,-0.270895 -0.10999,-0.0088 -0.1662,0.142152 -0.24931,0.213231 1.20655,-0.697333 2.34547,-1.521175 3.61965,-2.092013 0.13362,-0.05986 0.36131,0.296347 0.23283,0.366124 -1.38236,0.750667 -2.92164,1.18831 -4.34296,1.865835 -0.0985,0.04699 -0.26621,0.254288 -0.16004,0.280712 1.10847,0.275775 1.30968,-0.430256 1.11538,0.113032 -0.1008,-0.02673 -0.33145,-0.178157 -0.30241,-0.08001 0.25621,0.865506 1.35457,-0.109125 1.59481,-0.181366 0.36437,1.429413 -1.00422,0.221476 -0.77328,0.104214 1.33898,-0.67967 2.76221,-1.187255 4.14331,-1.780874 -0.53599,0.0437 0.0571,0.0455 0.12032,-0.35562 0.0297,-0.188596 -0.0196,-0.613993 -0.19874,-0.538486 -1.41626,0.596725 -2.61892,1.598093 -3.98349,2.300583 -1.13905,0.586396 2.17436,-1.351761 3.30597,-1.951783 0.0712,-0.03777 0.15335,0.05117 0.23004,0.07689 -0.0183,-0.01135 -0.0725,-0.02302 -0.0548,-0.0358 0.066,-0.04802 0.2999,-0.131053 0.22872,-0.09073 -1.35956,0.770475 -2.78672,1.432355 -4.09586,2.282235 -0.0993,0.06451 0.27604,0.06427 0.30874,0.176312 0.0301,0.103198 -0.11887,0.180507 -0.17829,0.270761 1.39865,-0.760627 2.7973,-1.521271 4.19594,-2.281912 -1.07201,-1.10703 -0.0815,-0.141972 -3.71547,2.181975 -0.0963,0.06159 0.19694,-0.130129 0.31069,-0.147256 0.11618,-0.01751 0.26031,-0.0272 0.34922,0.04787 0.0577,0.04873 -0.0937,0.263374 -0.0305,0.22169 1.27335,-0.83984 2.48125,-1.770896 3.72187,-2.65633 -0.0574,-0.02397 -0.80667,-0.217535 -0.70788,-0.532658 0.0427,-0.136303 0.4855,-0.315863 0.36322,-0.238242 -1.3093,0.831081 -2.67504,1.583484 -3.92431,2.498642 -0.10873,0.07963 0.2798,0.01956 0.39836,0.0843 0.0695,0.0381 0.0816,0.133789 0.12243,0.200671 1.31371,-0.81654 2.70893,-1.519463 3.94113,-2.449614 0.11409,-0.08607 -0.32664,-0.14186 -0.32147,-0.282698 0.005,-0.122985 0.44484,-0.229805 0.3379,-0.164887 -1.33527,0.810642 -2.73615,1.522066 -4.02415,2.402791 -0.0941,0.06442 0.24726,0.04298 0.31704,0.132154 0.0533,0.0682 -0.008,0.171511 -0.0125,0.257278 1.32171,-0.834108 2.73544,-1.543056 3.96516,-2.502301 0.12512,-0.09766 -0.27238,-0.17863 -0.36242,-0.308042 -0.0807,-0.116054 -0.176,-0.267796 -0.13091,-0.401015 0.0492,-0.14549 0.49891,-0.369357 0.36478,-0.290072 -4.07554,2.408894 -5.23974,1.818729 -3.32981,2.536531 -0.0189,0.120714 0.0526,0.303351 -0.0568,0.362307 -0.15074,0.08116 -0.6566,0.03784 -0.51319,-0.05527 1.27345,-0.826027 2.70355,-1.400533 3.99324,-2.202083 0.0834,-0.05181 -0.20914,-0.03668 -0.27472,-0.108988 -0.0452,-0.04991 0.0546,-0.231478 -0.005,-0.199827 -1.41295,0.745811 -2.76612,1.595161 -4.14918,2.392761 0,0 4.36213,-2.169049 4.36213,-2.169049 v 0 c -1.3826,0.739903 -2.78594,1.443874 -4.14778,2.219718 -0.0767,0.04376 0.18999,-0.05291 0.26602,-0.0088 0.0849,0.0499 0.0559,0.286911 0.14816,0.251796 1.49,-0.566752 2.95245,-1.214575 4.35513,-1.964697 0.23328,-0.124752 -0.95634,-0.161922 -0.69213,-0.38773 0.0906,-2.043725 0.21036,-0.893263 -4.11989,1.422491 -0.10966,0.0586 0.28201,-0.05835 0.37417,0.02428 0.10349,0.09274 0.11036,0.263205 0.0995,0.400029 -0.0135,0.17002 -0.33028,0.550345 -0.16963,0.483975 1.38108,-0.570483 2.65059,-1.370811 3.97589,-2.05623 -0.0891,0.04739 -0.17826,0.09464 -0.26739,0.141981 -0.0214,-0.102455 0.0339,-0.348454 -0.0643,-0.307238 -1.47248,0.617945 -2.85609,1.421403 -4.28414,2.132109 0.11413,-0.0048 0.26528,-0.09603 0.34237,-0.01363 0.0679,0.07263 -0.18304,0.323528 -0.0925,0.280784 1.33906,-0.632021 2.61162,-1.390748 3.91744,-2.086125 -0.0932,0.03242 -0.19071,0.139238 -0.27968,0.09703 -0.0898,-0.04258 -0.008,-0.318294 -0.0983,-0.27648 -1.45471,0.674743 -2.84227,1.482129 -4.22829,2.283269 -0.12807,0.07396 0.29081,-0.121472 0.43637,-0.09148 0.40077,0.08266 0.30096,0.394928 0.30787,0.663828 1.31586,-0.750825 2.62288,-1.51664 3.94758,-2.25246 0.11792,-0.06553 -0.18968,0.225768 -0.32452,0.240001 -0.11222,0.01135 -0.19786,-0.107995 -0.28716,-0.17546 -0.0978,-0.07396 -0.16254,-0.303769 -0.27173,-0.246987 -3.81302,1.983182 -3.30605,1.128714 -4.15023,2.784092 1.40089,-0.694446 2.82926,-1.338253 4.20266,-2.083346 0.0838,-0.04549 -0.24596,0.04343 -0.28424,-0.04243 -0.0622,-0.139684 0.20979,-0.505311 0.0635,-0.452898 -1.47903,0.52974 -2.87674,1.259015 -4.278,1.962411 -0.15729,0.07901 1.07181,0.268829 0.12221,0.504689 1.45747,1.057015 1.11615,0.993595 4.11125,-1.896475 0.88734,-0.856219 -2.11901,1.311996 -3.27861,1.759518 -0.18667,0.07208 0.1407,-0.369672 0.17729,-0.56263 0.0145,-0.07641 -0.0732,0.137849 -0.10981,0.20678 -0.30319,0.213712 -0.60638,0.427408 -0.90957,0.641104 1.37393,-0.578716 2.81927,-1.016666 4.12179,-1.736163 0.28317,-0.156411 0.67603,-0.549312 0.50211,-0.818047 -0.16155,-0.249636 -0.57455,0.186176 -0.86943,0.250487 -0.0209,0.0048 -0.0251,-0.07285 -0.0335,-0.05355 -0.0371,0.08568 0.004,0.340741 -0.0614,0.272646 -0.13339,-0.140072 -0.12992,-0.361118 -0.19487,-0.541663 -0.71918,0.191631 -0.72333,-0.01136 -0.38579,0.528012 0.004,0.0063 0.006,-0.02279 4e-5,-0.02027 -1.31671,0.508947 -2.7178,0.850526 -3.94298,1.544398 -0.19893,0.112645 -0.18852,0.754286 0.0261,0.673865 1.35511,-0.507741 2.52384,-1.401422 3.78577,-2.102121 1.30115,-0.925104 -0.2202,0.34287 0.63851,-1.166374 0.0618,-0.108618 0.20829,0.244479 0.13772,0.347949 -0.11046,0.161969 -0.67477,0.390299 -0.54217,0.24507 0.88333,-0.967454 1.45068,-0.424317 0.32636,-1.025173 -0.0363,-0.0079 -0.10412,-0.05795 -0.10896,-0.02192 -0.0293,0.21793 -0.18248,0.570554 0.0233,0.659066 0.20404,0.0877 0.49448,-0.215991 0.50029,-0.433874 0.005,-0.200424 -0.29967,-0.279994 -0.47867,-0.377817 -0.14253,-0.07791 0.54338,0.49235 0.11325,0.465998 -0.62119,-1.953486 -0.008,-0.723994 -3.93893,1.493874 -0.33378,0.188306 -1.22013,0.463924 -0.76258,1.150225 0.10994,0.164895 0.37793,-0.236908 0.55788,-0.226099 0.0213,-0.140465 -0.0235,-0.308018 0.0639,-0.421392 0.0489,-0.06324 0.27799,-0.04621 0.24198,0.02485 -0.0967,0.190836 -0.30502,0.305857 -0.47627,0.437483 -0.2244,0.172496 -0.96899,0.583322 -0.70716,0.472172 1.40028,-0.594447 5.27875,-2.91449 4.13402,-1.926944 -1.26075,1.087624 -2.9964,1.492014 -4.4946,2.238006 0.0655,0.004 0.13906,-0.01924 0.19636,0.01135 0.16052,0.08733 0.0585,0.334063 -0.016,0.414939 -0.0641,0.06955 -0.34605,0.160205 -0.26047,0.118326 4.2606,-2.087763 5.17915,-0.821981 4.20849,-2.122434 -1.41771,0.8243 -2.81653,1.680471 -4.25313,2.47289 -0.10067,0.05559 0.12122,-0.215597 0.23002,-0.253753 0.124,-0.04343 0.27723,-0.02531 0.39356,0.035 0.13121,0.06819 0.22014,0.200456 0.29795,0.324245 0.19173,0.304983 0.21244,0.599328 0.27772,0.942017 1.35709,-0.755005 2.76012,-1.436023 4.07129,-2.264997 0.08,-0.05054 -0.18946,-0.07888 -0.23292,-0.161757 -0.064,-0.121976 -0.0724,-0.269317 -0.065,-0.40618 0.009,-0.17521 0.28471,-0.568955 0.11418,-0.514365 -5.43471,1.739665 -5.74914,1.654985 -4.00878,1.876992 -6.7e-4,0.08493 0.0257,0.17446 -0.002,0.25492 -0.0413,0.118695 -0.31361,0.377115 -0.19828,0.32233 1.23878,-0.588455 2.39139,-1.338846 3.61985,-1.947652 0.11436,-0.05669 -0.13462,0.240616 -0.25613,0.280648 -0.352,0.115929 -0.53446,-0.194747 -0.72249,-0.383542 -0.07,-0.134488 -0.14254,-0.267685 -0.20986,-0.403444 -0.0707,-0.142516 -0.0574,-0.498303 -0.20408,-0.431239 -1.39888,0.639179 -2.68611,1.495421 -3.96775,2.337454 -0.0655,0.04305 0.0745,0.142304 0.0759,0.219531 0.002,0.119838 -0.0212,0.242177 -0.0665,0.353531 -0.0533,0.131162 -0.14944,0.241459 -0.22416,0.362189 1.21674,-0.662014 2.40454,-1.377695 3.65024,-1.986045 0.10265,-0.05015 -0.0738,0.238086 -0.1759,0.28933 -0.0977,0.04905 -0.23226,0.01712 -0.32736,-0.03667 -0.18159,-0.102703 -0.34605,-0.451858 -0.33822,-0.647183 0.005,-0.113033 0.0858,-0.21013 0.12872,-0.315186 -1.34708,0.726619 -2.69416,1.453237 -4.04124,2.17987 0.13843,-0.0425 0.27029,-0.132139 0.41529,-0.127424 0.15965,0.0048 0.31316,0.07838 0.45203,0.155583 0.27218,0.151284 0.56883,0.441955 0.67534,0.738966 0.0497,0.138659 0.0252,0.292847 0.0378,0.439267 1.39262,-0.778731 2.77645,-1.572706 4.17786,-2.336216 0.10491,-0.05724 -0.16744,0.191972 -0.28513,0.21539 -0.11655,0.02318 -0.24396,-0.02822 -0.34471,-0.09011 -0.29514,-0.181045 -0.31224,-0.406616 -0.47303,-0.681382 -0.0796,-0.136058 -0.17613,-0.261968 -0.26421,-0.392957 -1.2607,0.777564 -2.57895,1.472341 -3.78209,2.332692 -0.087,0.06221 0.0829,0.19686 0.0989,0.301111 0.023,0.149344 0.0316,0.302435 0.0169,0.452773 -0.0404,0.415808 -0.1629,0.795511 -0.42304,1.135897 -0.10933,0.143062 -0.27235,0.238006 -0.40853,0.35701 1.32462,-0.714468 2.62896,-1.466089 3.97382,-2.143402 0.0487,-0.02461 0.005,0.116812 -0.0311,0.157743 -0.0269,0.03114 -0.0832,0.03178 -0.12328,0.02049 -0.0612,-0.0171 -0.11007,-0.06299 -0.1612,-0.100042 -0.2105,-0.152561 -0.19195,-0.159815 -0.36599,-0.371628 -0.0476,-0.09513 -0.11166,-0.183961 -0.14284,-0.285386 -0.0676,-0.220037 -0.0464,-0.402506 -0.0294,-0.624159 0.005,-0.07333 0.001,-0.14895 0.0223,-0.219736 0.0209,-0.07144 0.12672,-0.228512 0.17223,-0.299306 0,0 -4.52638,2.255165 -4.52638,2.255165 z" />
    <path
       style="fill:#000000;stroke-width:3.88533"
       id="path7946-9"
       d="m 35.129308,45.786571 c 0.15573,0.136846 0.35966,0.212133 0.52233,0.337816 0.10665,0.0824 0.20659,0.174482 0.29409,0.276201 0.24037,0.279386 0.25105,0.374262 0.38923,0.701778 0,0 3.46958,-1.939551 3.46958,-1.939551 v 0 c -0.0705,-0.10686 -0.15499,-0.205977 -0.21141,-0.320518 -0.11222,-0.227793 -0.19281,-0.525451 -0.17068,-0.781751 0.0265,-0.306818 0.11927,-0.316122 0.24652,-0.535764 0,0 -4.53966,2.261789 -4.53966,2.261789 z" />
    <path
       style="fill:#000000;stroke-width:3.88533"
       id="path7948-8"
       d="m 31.692408,48.020467 c 0.24546,0.03627 0.35616,0.028 0.58014,0.191185 0.0946,0.0689 0.16562,0.16521 0.23645,0.257451 0.14787,0.19254 0.2287,0.355976 0.30257,0.582665 0.0273,0.08378 0.0414,0.171242 0.062,0.256868 0,0 3.79921,-2.153927 3.79921,-2.153927 v 0 c -0.0683,-0.05898 -0.14124,-0.11301 -0.20496,-0.176739 -0.16362,-0.163411 -0.28788,-0.321792 -0.38823,-0.53075 -0.0506,-0.105339 -0.10207,-0.213845 -0.12028,-0.328906 -0.0403,-0.254169 0.0184,-0.36916 0.0877,-0.592948 0,0 -4.3546,2.495101 -4.3546,2.495101 z" />
    <path
       style="fill:#000000;stroke-width:3.88533"
       id="path7950-2"
       d="m 34.544338,45.912164 c 0.14603,0.08038 0.22872,0.239291 0.35808,0.335799 0.39157,0.292168 0.29744,0.104086 0.66272,0.457718 0.0909,0.08806 0.15918,0.195977 0.23878,0.293966 0.19825,0.244377 0.25956,0.300937 0.41648,0.565162 0.0492,0.08278 0.0889,0.170579 0.1334,0.255887 0,0 3.66685,-2.152285 3.66685,-2.152285 v 0 c -0.27105,-0.210172 -0.5389,-0.423505 -0.74803,-0.696907 -0.078,-0.09388 -0.17287,-0.176532 -0.2341,-0.281657 -0.15163,-0.260282 -0.13618,-0.359265 -0.12057,-0.636119 0.003,-0.05811 0.005,-0.117317 0.0212,-0.173373 0.0277,-0.09615 0.0751,-0.148328 0.13158,-0.223371 0,0 -4.52639,2.25518 -4.52639,2.25518 z" />
    <path
       style="fill:#000000;stroke-width:3.88533"
       id="path7952-0"
       d="m 35.586758,44.972428 c 0.0289,0.0272 0.0478,0.0723 0.0868,0.08177 0.6002,0.146009 0.51215,-0.05985 1.04744,0.316992 0.14464,0.101812 0.25014,0.248289 0.37445,0.373173 0.52495,0.527353 0.31164,0.257704 0.68495,0.862156 0.0604,0.141602 0.12069,0.283165 0.18104,0.42475 0,0 3.24769,-1.877598 3.24769,-1.877598 v 0 c -0.12302,-0.105851 -0.24602,-0.211593 -0.36903,-0.317397 -0.50369,-0.566454 -0.2543,-0.229742 -0.64066,-0.89633 -0.19898,-0.343273 -0.3786,-0.512521 -0.33855,-0.937129 0.0418,-0.442412 0.029,-0.43064 0.2059,-0.399438 0,0 -4.48003,2.368978 -4.48003,2.368978 z" />
    <path
       style="fill:#000000;stroke-width:3.88533"
       id="path7954-7"
       d="m 38.194368,43.266992 c 0.18473,0.05733 0.33023,0.177164 0.48395,0.286673 0.17801,0.126809 0.34608,0.230965 0.50695,0.381145 0.083,0.07751 0.15372,0.166636 0.23058,0.249969 0.0636,0.0868 0.12278,0.176949 0.19092,0.26043 0.28737,0.352167 0.19094,0.164318 0.44698,0.543847 0.099,0.14668 0.23627,0.395142 0.31013,0.559027 0.0359,0.07977 0.0632,0.162955 0.0949,0.244432 0.0397,0.06955 0.0802,0.138527 0.1189,0.208532 0.1232,0.222716 0.0786,0.162385 0.21232,0.373149 0.10415,0.164098 0.20941,0.323315 0.30392,0.493139 0.0234,0.04716 0.0469,0.09412 0.0703,0.141174 0,0 4.03076,-2.355006 4.03076,-2.355006 v 0 c -0.0413,-0.03225 -0.0826,-0.06451 -0.12389,-0.0969 -0.0427,-0.04022 -0.088,-0.07791 -0.12816,-0.12047 -0.0743,-0.07887 -0.18659,-0.227597 -0.25479,-0.309941 -0.16136,-0.194874 -0.11713,-0.135437 -0.29376,-0.327023 -0.0557,-0.06032 -0.11014,-0.121603 -0.1652,-0.182493 -0.0703,-0.05835 -0.14391,-0.113034 -0.21081,-0.175051 -0.1289,-0.119461 -0.33602,-0.345623 -0.43979,-0.482162 -0.39061,-0.513995 -0.0178,-0.07443 -0.38073,-0.599014 -0.0628,-0.09072 -0.13882,-0.17199 -0.20822,-0.258001 -0.0612,-0.0902 -0.13136,-0.175209 -0.18375,-0.270595 -0.0839,-0.152846 -0.15302,-0.363798 -0.19701,-0.533935 -0.0252,-0.09754 -0.0601,-0.246586 -0.0378,-0.351718 0.008,-0.03643 0.0357,-0.06561 0.0536,-0.09841 0,0 -4.43037,2.419183 -4.43037,2.419183 z" />
    <path
       style="fill:#000000;stroke-width:3.88533"
       id="path7956-4"
       d="m 41.965998,40.670959 c 0.148,0.09198 0.30578,0.184316 0.43347,0.301758 0.22957,0.211164 0.39461,0.450834 0.55549,0.714696 0.0923,0.151402 0.18087,0.305455 0.25728,0.465098 0.0751,0.156844 0.13095,0.321817 0.19641,0.482729 0.0595,0.151963 0.12059,0.303382 0.17859,0.455913 0.18628,0.489818 0.10817,0.316305 0.29262,0.776728 0.0895,0.223379 0.16328,0.381397 0.24711,0.604052 0.0312,0.08304 0.0584,0.167456 0.0875,0.251181 0,0 3.78422,-2.16686 3.78422,-2.16686 v 0 c -0.0669,-0.05811 -0.13711,-0.112646 -0.20071,-0.174214 -0.0807,-0.07798 -0.37871,-0.407529 -0.44546,-0.481499 -0.14563,-0.161363 -0.40331,-0.444644 -0.52986,-0.614066 -0.0937,-0.125381 -0.17469,-0.25935 -0.26203,-0.389021 -0.0767,-0.149007 -0.16975,-0.290972 -0.23001,-0.447035 -0.16943,-0.438777 -0.2517,-1.013889 -0.15156,-1.477995 0.0572,-0.265068 0.12528,-0.333905 0.26019,-0.530182 0,0 -4.47327,2.228717 -4.47327,2.228717 z" />
    <path
       style="fill:#000000;stroke-width:3.88533"
       id="path7958-8"
       d="m 40.840738,42.193286 c 0.13597,0.06024 0.2205,0.08241 0.31726,0.226934 0.053,0.07913 0.0581,0.181335 0.10121,0.266069 0.0598,0.117686 0.1601,0.215297 0.20642,0.338659 0.0383,0.101948 0.13146,0.766314 0.14646,0.866842 0.01,0.144454 0.0193,0.288911 0.0289,0.433391 0,0 3.45397,-1.789404 3.45397,-1.789404 v 0 c -0.0352,-0.127494 -0.0703,-0.254998 -0.10548,-0.382493 -0.0237,-0.190057 -0.0976,-0.696521 -0.0781,-0.888342 0.0172,-0.169508 0.0855,-0.330429 0.11952,-0.4975 0.0223,-0.109242 0.0148,-0.224538 0.0492,-0.330696 0.0629,-0.193587 0.17446,-0.336712 0.28694,-0.498625 0,0 -4.52639,2.255173 -4.52639,2.255173 z" />
    <path
       style="fill:#000000;stroke-width:3.88533"
       id="path7960-5"
       d="m 39.469248,43.261386 c 0.29241,0.176028 0.55395,0.314626 0.77718,0.586553 0.21848,0.266149 0.39679,0.654011 0.51612,0.968424 0.069,0.181746 0.11854,0.369988 0.17779,0.554982 0.20969,0.48008 0.33534,0.696701 0.43475,1.21944 0.0402,0.211583 0.0342,0.429309 0.0625,0.642729 0.0271,0.204242 0.0851,0.404326 0.10329,0.609506 0.0423,0.478307 -0.005,0.673764 -0.0634,1.137135 -0.0921,0.400409 -0.15011,0.888461 -0.42865,1.21911 -0.0611,0.07263 -0.1404,0.125256 -0.21622,0.180901 -0.13285,0.119706 -0.27698,0.227858 -0.40796,0.34962 -0.0474,0.044 -0.0895,0.09325 -0.13678,0.137375 -0.0757,0.07058 -0.18225,0.154416 -0.2638,0.220257 -1.38759,1.072336 0.66557,-0.522068 4.05875,-2.298642 0.0539,-0.02822 0.0847,0.119199 0.0544,0.171091 -0.0236,0.0403 -0.0987,-0.0016 -0.1403,-0.02405 -0.24984,-0.134316 -0.26479,-0.234165 -0.41751,-0.473565 -0.11612,-0.338953 -0.15064,-0.696481 -0.14403,-1.05237 10e-4,-0.09361 -0.01,-0.191264 0.0208,-0.28005 0.0253,-0.0742 0.06,-0.187202 0.13983,-0.190568 0.11074,-0.0048 0.18778,0.115178 0.28167,0.172794 -1.43384,0.730065 -2.90197,1.399042 -4.3015,2.190177 -0.0747,0.04217 0.16384,0.05946 0.23316,0.109633 0.0992,0.07183 0.30412,0.347413 0.3872,0.421006 0.27287,0.241696 0.33079,0.224799 0.68157,0.355827 0.15784,0.0168 0.3151,0.04022 0.47355,0.05015 0.33874,0.02144 0.54417,0.0063 0.88028,-0.01601 0.24031,-0.01624 0.42948,-0.04061 0.66658,-0.04447 0.0696,-7.88e-4 0.13904,0.004 0.20855,0.0063 0.10033,0.0088 0.20171,0.01939 0.28749,0.07498 0.005,0.004 -0.0131,-0.0023 -0.0177,-0.0079 -0.2283,-0.217173 -0.0459,-0.06599 -0.20723,-0.195355 -0.0288,3.31e-4 -0.0584,-0.0048 -0.0864,7.88e-4 -0.0381,0.0088 -0.0723,0.02973 -0.10827,0.04486 -0.0388,0.01649 -0.15289,0.07073 -0.11613,0.05015 1.37369,-0.767314 2.73116,-1.563723 4.12753,-2.290869 0.0444,-0.02301 0.039,0.139797 -0.0107,0.147066 -0.11105,0.01624 -0.2143,-0.06568 -0.32145,-0.09842 -0.14062,-0.118829 -0.29407,-0.224554 -0.42184,-0.356551 -0.58378,-0.603058 -1.02609,-1.363393 -1.32103,-2.137834 -0.24122,-0.633375 -0.29365,-1.00651 -0.42905,-1.656081 -0.0985,-0.585899 -0.23736,-1.164 -0.39843,-1.736132 -0.0903,-0.320839 -0.18948,-0.637137 -0.26729,-0.961154 -0.0108,-0.06379 -0.0409,-0.127109 -0.0327,-0.191231 0.006,-0.04841 0.049,-0.08493 0.0735,-0.12733 -1.37529,0.901101 -2.73862,1.819889 -4.12585,2.703295 -0.0521,0.03313 0.052,-0.127662 0.11103,-0.146593 0.0693,-0.02231 0.55697,0.08077 0.59065,0.08719 0.57336,0.08355 1.14716,0.160368 1.71582,0.271849 0.23165,0.04534 0.46427,0.08796 0.69258,0.147341 0.0213,0.0048 0.99905,0.314595 1.0908,0.343582 1.68428,-0.274838 1.21708,-0.134727 3.7907,-2.333159 0.15985,-0.13653 0.0225,-0.414491 0.031,-0.62187 0.01,-0.230949 0.007,-0.462465 0.0232,-0.693035 0.0413,-0.578692 0.0876,-0.761084 0.18605,-1.319464 0.0449,-0.171377 0.0613,-0.352427 0.13469,-0.51412 0.0606,-0.133434 0.17368,-0.237518 0.26052,-0.356268 -1.39449,0.750399 -2.84408,1.410292 -4.18347,2.251199 -0.12271,0.07696 0.2972,0.03745 0.42278,0.109879 0.45508,0.262608 0.56767,0.590433 0.83114,1.02336 0.0987,0.267 0.22364,0.526067 0.29598,0.800991 0.14592,0.554532 0.18428,1.157314 0.16344,1.727269 -0.009,0.247736 -0.0121,0.499998 -0.0755,0.740023 -0.3247,1.229675 -0.27726,-0.03478 -0.26079,1.011878 1.24089,-0.89841 2.61581,-1.642589 3.72268,-2.695218 0.1539,-0.146341 -0.23452,-0.356182 -0.30583,-0.554155 -0.0922,-0.255983 -0.13853,-0.526555 -0.18004,-0.794895 -0.0908,-0.587082 -0.12065,-1.33551 -0.0768,-1.925273 0.0235,-0.316156 0.0882,-0.628085 0.1323,-0.942143 0.0924,-0.38135 0.19963,-1.109143 0.51917,-1.429934 0.1404,-0.140941 0.71809,-0.353998 0.54525,-0.253265 -1.32175,0.770255 -2.758,1.36687 -3.99397,2.263035 -0.15161,0.10988 0.35385,0.149723 0.48986,0.277699 0.15845,0.149076 0.24777,0.355274 0.37167,0.532911 0.0871,0.220603 0.19213,0.435221 0.26131,0.661825 0.20069,0.657449 0.25056,1.357084 0.1414,2.035145 -0.0274,0.170525 -0.0469,0.349022 -0.12729,0.502726 -0.0669,0.127922 -0.20039,0.210187 -0.30058,0.315274 1.26609,-0.78183 2.53218,-1.563668 3.79826,-2.345506 -0.11868,0.02618 -0.23615,0.09904 -0.35603,0.07878 -0.17577,-0.02989 -0.33859,-0.121723 -0.48489,-0.221598 -0.33185,-0.226492 -0.56033,-0.554815 -0.74746,-0.896898 -0.0942,-0.172172 -0.16061,-0.35756 -0.24093,-0.536341 -0.17667,-0.455335 -0.2397,-0.935771 -0.30621,-1.414439 0,0 -3.4821,1.921574 -3.4821,1.921574 v 0 c 0.089,0.0964 0.18214,0.189339 0.26697,0.28929 0.3166,0.373024 0.312,0.400417 0.58615,0.83097 0.0933,0.176439 0.19324,0.349621 0.27977,0.529301 0.18487,0.38392 0.32685,0.730536 0.4312,1.14304 0.0439,0.173459 0.0626,0.352106 0.0962,0.527747 0.0319,0.166408 -0.0576,0.56852 0.1,0.498359 1.4303,-0.637005 2.7045,-1.566414 4.05675,-2.349606 -0.0855,-0.0466 -0.18617,-0.07316 -0.2564,-0.139868 -0.15986,-0.151719 -0.41605,-0.633083 -0.48825,-0.800879 -0.28672,-0.666297 -0.39811,-1.381371 -0.46091,-2.096753 0.008,-0.251307 -0.0131,-0.505076 0.0237,-0.753932 0.0357,-0.242114 0.43294,-0.775789 0.19217,-0.709374 -1.47332,0.406433 -2.80041,1.210091 -4.20063,1.815143 0.14958,-0.01004 0.30763,-0.07926 0.44873,-0.02973 0.35096,0.123111 0.46426,0.632832 0.57063,0.890228 0.056,0.262568 0.13977,0.5209 0.1679,0.787696 0.0683,0.647687 0.0121,1.373879 -0.12501,2.007586 -0.0744,0.343682 -0.16607,0.686427 -0.30173,1.011674 -0.13065,0.313239 -0.82224,0.996339 -0.49276,0.893177 1.26418,-0.395811 2.34043,-1.225387 3.51064,-1.838079 -0.0682,0.178686 -0.0393,0.434519 -0.20445,0.536057 -0.14143,0.08695 -0.35834,-0.0079 -0.48851,-0.109881 -0.16329,-0.128512 -0.23473,-0.341782 -0.32209,-0.5281 -0.23024,-0.491097 -0.37371,-1.055192 -0.41672,-1.591834 -0.0255,-0.318764 0.005,-0.639462 0.007,-0.959198 0.10173,-0.724953 0.0909,-0.993325 0.35929,-1.660844 0.0748,-0.186003 0.47373,-0.608262 0.2854,-0.530624 -1.46026,0.601945 -2.80997,1.433617 -4.21494,2.150419 0.10229,0.01774 0.22393,-0.0079 0.30684,0.0533 0.10353,0.07633 0.13614,0.215951 0.20421,0.323931 0.0496,0.158067 0.11983,0.31129 0.14888,0.474158 0.0811,0.454966 0.0601,0.857203 -0.1,1.299419 -0.0834,0.230381 -0.58402,0.719806 -0.34405,0.651458 1.40296,-0.399597 3.80629,-2.080185 2.22902,-0.999294 -0.21097,0.0088 -0.42348,0.05165 -0.63292,0.02531 -0.21096,-0.02649 -0.41241,-0.10573 -0.61047,-0.181603 -0.18089,-0.06931 -0.35273,-0.160062 -0.52259,-0.25223 -0.35271,-0.191413 -0.6706,-0.423885 -0.92287,-0.733558 -0.13544,-0.158587 -0.1426,-0.136034 -0.20827,-0.313103 -0.0303,-0.08153 -0.004,-0.292579 -0.08,-0.248361 -1.43556,0.831358 -2.77918,1.805941 -4.16876,2.70891 0.0585,0.004 0.11887,-0.0023 0.17547,0.01261 0.0681,0.01797 0.12871,0.05653 0.19307,0.08493 0.21511,0.120714 0.31201,0.166566 0.51704,0.321787 0.22235,0.168331 0.47172,0.400417 0.66688,0.592616 0.43131,0.424822 0.41855,0.431698 0.83378,0.914988 0.39815,0.576184 0.56784,0.748152 0.81529,1.430037 0.31783,0.875837 0.38761,1.756287 0.28376,2.674151 -0.0257,0.227558 -0.0821,0.450778 -0.12316,0.676176 -0.0333,0.172148 -0.11307,0.341719 -0.0999,0.516463 0.01,0.128953 0.0447,0.405833 0.1653,0.352617 1.48987,-0.657836 2.86564,-1.539161 4.29172,-2.320582 0.023,-0.01261 0.15051,-0.165524 0.15243,-0.168497 0.0342,-0.05291 0.0579,-0.111773 0.0868,-0.167551 0.005,-0.07776 0.0345,-0.158043 0.014,-0.233346 -0.0507,-0.186232 -0.12978,-0.318624 -0.32347,-0.347105 -0.0635,-0.0088 -0.12831,0.0079 -0.19178,0.01712 -0.17206,0.02554 -0.38066,0.08038 -0.54625,0.120208 -0.61191,0.162616 -1.28117,0.384267 -1.92351,0.326265 -0.10003,-0.0088 -0.19695,-0.03895 -0.29542,-0.05852 -0.0798,-0.03186 -0.16584,-0.05165 -0.23946,-0.09552 -0.21537,-0.1283 -0.37514,-0.382368 -0.43029,-0.618561 -0.0208,-0.0891 0.0641,-0.305967 -0.0231,-0.273125 -1.52713,0.575142 -2.98524,1.312153 -4.47786,1.968222 0.0754,0.06891 0.15092,0.137952 0.22639,0.20693 0.0594,0.02357 0.1297,0.02973 0.17818,0.07065 0.0609,0.05157 0.0962,0.12677 0.13612,0.195112 0.17378,0.297411 0.28094,0.624678 0.32805,0.96344 -0.002,0.139986 0.005,0.28042 -0.007,0.419948 -0.0118,0.139543 -0.11111,0.523418 -0.06,0.690883 0.0338,0.110637 0.0735,0.348641 0.17976,0.298343 4.04455,-1.914661 3.55613,-0.973898 4.30991,-2.459912 0.17388,-0.26681 0.4528,-0.44428 0.64149,-0.700738 0.038,-0.06663 0.0909,-0.126998 0.11406,-0.199833 0.0286,-0.0896 -0.0148,-0.255283 -0.0456,-0.334591 -0.10338,-0.266716 -0.30334,-0.48534 -0.40778,-0.751977 -0.17547,-0.416897 -0.22524,-0.487248 -0.32819,-0.954966 -0.0454,-0.206479 -0.0522,-0.420364 -0.1041,-0.625387 -0.0499,-0.197263 -0.14851,-0.380531 -0.20044,-0.57732 -0.12289,-0.465832 -0.15417,-0.88406 -0.20942,-1.359969 -0.20346,-0.724024 -0.44991,-1.500973 -0.22644,-2.25202 0.0693,-0.232793 0.15665,-0.337665 0.28126,-0.511975 0,0 -4.49982,2.241949 -4.49982,2.241949 z" />
    <path
       style="fill:#000000;stroke-width:3.88533"
       id="path7962-8"
       d="m 43.161838,40.270897 c 0.4275,-0.04218 0.82251,0.05291 1.16814,0.307413 0.17529,0.129071 0.22737,0.216021 0.35279,0.377295 1.39369,-0.763566 2.84306,-1.437219 4.18109,-2.290694 0.0945,-0.06024 -0.0595,-0.212741 -0.0898,-0.31898 -0.0763,-0.267456 -0.11298,-0.342483 -0.1402,-0.622186 -0.026,-0.266809 -0.007,-0.331058 0.0196,-0.587751 1.06408,-1.388428 0.0464,-0.01916 -3.7645,2.281265 -0.0515,0.03115 0.0304,-0.140704 0.0893,-0.154613 0.097,-0.02294 0.2009,0.02444 0.29192,0.06442 0.2715,0.11908 0.33316,0.234843 0.51815,0.445315 1.01031,1.773616 0.43396,0.745786 4.44591,-1.844357 0.0969,-0.06253 -0.047,-0.222897 -0.0557,-0.336066 -0.0253,-0.327368 0.0112,-0.503807 0.0482,-0.833058 0.0492,-0.240119 0.10136,-0.577636 0.21158,-0.805549 0.0476,-0.09828 0.0883,-0.222227 0.18861,-0.269215 0.0954,-0.04471 0.40667,-0.01939 0.31552,0.03304 -4.09482,2.35682 -5.56202,1.407959 -3.85835,2.372006 0.0971,0.123986 0.21014,0.23751 0.29119,0.372102 0.22285,0.37005 0.42601,1.003048 0.42379,1.435857 -6.8e-4,0.129592 -0.0393,0.256314 -0.0601,0.38429 -0.0249,0.152547 -0.0514,0.304841 -0.0771,0.457261 6.93044,-4.910375 4.79466,-1.466845 3.62038,-3.086648 -0.18531,-0.255613 -0.22931,-0.494525 -0.31556,-0.78679 0,0 -3.5487,1.936668 -3.5487,1.936668 v 0 c 0.14951,0.280232 0.27078,0.438565 0.28883,0.771563 0.0954,1.761254 -3.64277,2.48024 3.97585,-1.838923 -0.0487,0.157941 -0.01,0.376439 -0.14602,0.473843 -0.0891,0.06379 -0.21005,-0.0862 -0.28428,-0.166029 -0.10054,-0.108113 -0.16298,-0.246523 -0.22342,-0.380215 -0.0712,-0.157458 -0.12291,-0.32314 -0.16958,-0.489141 -0.14678,-0.522193 -0.11624,-0.529376 -0.14045,-1.067328 0.18541,-2.030035 0.22264,-0.79763 -4.35212,1.38164 -0.0661,0.03154 0.12488,0.0794 0.1729,0.133865 0.1996,0.226274 0.13375,0.5733 0.1285,0.839322 -0.0755,0.332153 -0.096,0.565272 -0.29929,0.858095 -0.0851,0.122732 -0.45362,0.383289 -0.31708,0.318861 1.30623,-0.616463 2.5619,-1.330574 3.84843,-1.985445 0.0792,-0.0403 -0.13633,0.144786 -0.22555,0.141316 -0.10138,-0.004 -0.1711,-0.106725 -0.25666,-0.16002 -0.22976,-0.259856 -0.25222,-0.247444 -0.39842,-0.565476 -0.047,-0.102321 -0.0641,-0.216819 -0.1171,-0.316229 -0.0601,-0.112653 -0.10472,-0.37479 -0.21954,-0.315191 -4.30921,2.237256 -4.75639,1.130417 -4.00146,2.732633 0.028,0.07207 0.0627,0.141934 0.084,0.216142 0.0557,0.19402 0.0817,0.381396 0.0486,0.583423 -0.0165,0.100681 -0.0366,0.206078 -0.0919,0.29257 -0.0437,0.06828 -0.26526,0.188685 -0.19224,0.151552 1.31734,-0.669866 2.61951,-1.367894 3.92925,-2.051844 -0.087,0.03904 -0.16526,0.118323 -0.261,0.117315 -0.10846,-0.0016 -0.20671,-0.06916 -0.29988,-0.123364 -0.19673,-0.11454 -0.34309,-0.254163 -0.43643,-0.460273 -0.0481,-0.106229 -0.037,-0.231161 -0.0772,-0.340338 0,0 -4.22259,2.716713 -4.22259,2.716713 z" />
    <path
       style="fill:#000000;stroke-width:3.88533"
       id="path7964-3"
       d="m 46.497458,37.91463 c 0.29566,0.212236 0.15873,0.08193 0.39761,0.403925 0,0 3.79202,-1.970519 3.79202,-1.970519 v 0 c 0.0977,-0.469773 0.0136,-0.260548 0.23053,-0.635662 0,0 -4.42016,2.202256 -4.42016,2.202256 z" />
    <path
       style="fill:#000000;stroke-width:3.88533"
       id="path7966-0"
       d="m 48.164698,37.587333 c 0.26239,0.212709 0.008,-0.01877 0.23889,0.286443 0.27221,0.358839 0.24862,0.192005 0.45259,0.66189 0.17327,0.399138 0.18023,0.589975 0.25486,1.015709 0.008,0.168878 0.0165,0.337747 0.0248,0.506632 0,0 3.39025,-1.759819 3.39025,-1.759819 v 0 c -0.0468,-0.149369 -0.0937,-0.298761 -0.14061,-0.448129 -0.0828,-0.461054 -0.13438,-0.606528 -0.11405,-1.084053 0.0212,-0.498531 0.0711,-0.524805 0.1902,-0.976759 0.0897,-0.340261 -0.004,-0.136617 0.16308,-0.424025 0,0 -4.45999,2.222111 -4.45999,2.222111 z" />
    <path
       style="fill:#000000;stroke-width:3.88533"
       id="path7968-6"
       d="m 48.238518,36.75593 c 0.0644,0.147033 0.24608,0.215658 0.32956,0.340251 0.12123,0.18098 0.11685,0.401717 0.13688,0.604627 0,0 3.82162,-1.976023 3.82162,-1.976023 v 0 c -0.0499,-0.22833 -0.11137,-0.393603 -0.0506,-0.63425 0.051,-0.201892 0.20528,-0.374515 0.26229,-0.576556 0,0 -4.49983,2.241951 -4.49983,2.241951 z" />
    <path
       style="fill:#000000;stroke-width:3.88533"
       id="path7970-2"
       d="m 47.803058,39.424735 c 0.0451,0.03918 0.0951,0.07372 0.13554,0.117573 0.0623,0.06764 0.11419,0.143723 0.17138,0.215519 0.0817,0.102578 0.16891,0.201276 0.24536,0.307685 0.29654,0.412766 0.52069,0.867976 0.7568,1.314695 0.18354,0.350921 0.32172,0.592065 0.46686,0.959355 0.0587,0.148478 0.10511,0.301364 0.15301,0.453492 0.11182,0.355085 0.19613,0.713481 0.2699,1.077469 0.0277,0.26439 0.0824,0.531506 0.0564,0.798633 -0.004,0.03691 -0.0532,0.126619 -0.0194,0.109745 1.47689,-0.736687 2.92567,-1.526086 4.38851,-2.289134 -0.14749,-0.08266 -0.30773,-0.146759 -0.44245,-0.248178 -0.52298,-0.393649 -0.90727,-0.817683 -1.18496,-1.422239 -0.16295,-0.354768 -0.26393,-0.736986 -0.33642,-1.119378 -0.15905,-0.838965 -0.0825,-1.35057 -0.0353,-2.179813 0.10638,-0.264657 0.15444,-0.559627 0.31913,-0.79402 0.1253,-0.178315 0.34749,-0.267954 0.52122,-0.401922 -1.34605,0.778666 -2.76347,1.449938 -4.03818,2.336018 -0.15449,0.107347 0.39837,-0.01261 0.56275,0.07989 0.4032,0.226375 0.53099,0.708774 0.69083,1.08346 0.0537,0.20302 0.12101,0.403051 0.16126,0.609012 0.087,0.44499 0.10345,0.958063 0.0622,1.410773 -0.0152,0.166281 -0.0446,0.331042 -0.066,0.49667 -0.0262,0.293038 0.085,0.572566 0.11518,0.860272 0.007,0.06632 0.006,0.133188 0.009,0.199771 -0.0202,0.23478 -0.005,0.122739 -0.0422,0.336254 0,0 4.24806,-2.172134 4.24806,-2.172134 v 0 c -0.0784,-0.157853 -0.0416,-0.072 -0.10658,-0.259169 -0.0339,-0.200174 -0.0388,-0.183361 -0.0418,-0.392483 -0.003,-0.250985 0.0258,-0.503423 -0.09,-0.738187 -0.0399,-0.04968 -0.0768,-0.101813 -0.11971,-0.148957 -0.25908,-0.284057 -0.12235,-0.07838 -0.39874,-0.433945 -0.32462,-0.417645 -0.60265,-0.869678 -0.79452,-1.360963 -0.18474,-0.561471 -0.30431,-0.73631 -0.24496,-1.350437 0.0257,-0.265185 0.43593,-0.871036 0.18014,-0.779434 -1.49481,0.535325 -2.80117,1.479778 -4.20175,2.219667 0.1587,0.0023 0.33057,-0.05315 0.47608,0.0088 0.19141,0.08154 0.31788,0.264721 0.47682,0.397097 0.33644,0.705343 0.54627,1.036173 0.68762,1.842076 0.16156,0.921161 0.12234,1.61478 -0.0947,2.525824 -0.082,0.344077 -0.20158,0.681427 -0.3538,1.00185 -0.0912,0.191994 -0.24673,0.347948 -0.37008,0.521925 1.4546,-0.714757 2.92364,-1.402092 4.36381,-2.144282 0.0298,-0.01538 -0.0526,-0.04148 -0.0754,-0.06576 -0.0318,-0.03391 -0.0581,-0.0723 -0.0875,-0.10824 -0.13722,-0.167646 -0.27146,-0.337429 -0.40752,-0.505991 -0.18136,-0.232344 -0.23013,-0.293155 -0.41489,-0.537493 -0.16351,-0.216227 -0.37931,-0.499555 -0.52058,-0.726728 -0.24097,-0.387491 -0.28739,-0.521817 -0.47953,-0.936891 -0.0637,-0.162363 -0.13682,-0.321501 -0.19115,-0.487091 -0.17753,-0.541127 -0.25296,-1.138601 -0.0398,-1.682938 0.0286,-0.07294 0.0754,-0.137682 0.11312,-0.206536 0,0 -4.43344,2.208872 -4.43344,2.208872 z" />
    <path
       style="fill:#000000;stroke-width:3.88533"
       id="path7972-2"
       d="m 45.225848,47.016711 c 0.16342,0.210495 0.37631,0.376145 0.55636,0.571752 0.0461,0.05015 0.0886,0.103324 0.13285,0.155054 0.0916,0.154573 0.21061,0.286941 0.33936,0.41219 0.0876,0.08518 0.12446,0.128827 0.24064,0.180177 0.0534,0.02356 0.11147,0.03541 0.16721,0.05315 0.31191,0.04526 0.62751,0.02042 0.94024,0.05252 0.0176,0.0023 0.0352,0.0048 0.0529,0.0079 0,0 3.91828,-2.956101 3.91828,-2.956101 v 0 c -0.0318,0.01703 -0.0636,0.03415 -0.0954,0.05117 -0.0827,0.03817 -0.18533,0.08846 -0.27188,0.114926 -0.19445,0.05937 -0.40449,0.09159 -0.60751,0.07097 -0.0459,-0.0048 -0.16227,-0.0168 -0.20746,-0.02634 -0.19705,-0.04188 -0.35445,-0.14951 -0.49847,-0.284653 -0.13334,-0.173112 -0.24668,-0.320762 -0.21008,-0.549335 0.0142,-0.0891 0.008,-0.07159 0.0694,-0.10888 0,0 -4.52638,2.255188 -4.52638,2.255188 z" />
    <path
       style="fill:#000000;stroke-width:3.88533"
       id="path7974-5"
       d="m 48.142768,45.850835 c 0.20033,0.166297 0.39513,0.346993 0.52832,0.571398 0.0411,0.06931 0.0722,0.143841 0.10828,0.215776 0.11832,0.277488 0.19598,0.577369 0.20468,0.879078 0.006,0.02428 0.009,0.04968 0.0181,0.0731 0.024,0.06175 0.0667,0.129262 0.10724,0.18259 1.13708,1.496368 0.63978,-0.148643 4.39826,-2.510329 -0.1235,-0.132124 -0.29479,-0.21413 -0.41952,-0.344557 -0.0777,-0.08127 -0.14615,-0.171754 -0.20461,-0.267206 -0.13092,-0.213799 -0.21848,-0.455313 -0.27094,-0.698207 -0.0259,-0.120084 -0.0331,-0.243399 -0.0496,-0.365098 0.003,-0.146814 -0.007,-0.455329 0.0543,-0.605706 0.0279,-0.06852 0.0618,-0.165748 0.13653,-0.176746 0.0932,-0.01372 0.33577,0.07159 0.25505,0.119065 -3.9556,2.327298 -5.83784,1.91369 -4.0806,2.265423 0.32531,0.205605 0.43967,0.480379 0.5856,0.813488 0.11903,0.271682 0.0846,0.194684 0.21465,0.454329 0.0987,0.155645 0.1341,0.440014 0.30589,0.543018 0.0735,0.04409 0.17531,0.107988 0.24986,0.06552 4.16721,-2.368607 4.0908,-0.966492 4.09197,-2.79559 0.0191,-0.614499 0.11775,-1.22365 0.31474,-1.808296 0.0307,-0.09111 0.069,-0.17953 0.10354,-0.269295 1.43666,-1.092158 0.84373,-0.627697 -4.03716,2.217931 -0.0525,0.0306 0.12836,-0.03013 0.18323,-0.004 0.099,0.04739 0.17945,0.12875 0.25005,0.21152 0.21337,0.250095 0.23645,0.404408 0.34473,0.707008 0.0977,0.479094 0.13447,0.987435 0.003,1.464314 -0.001,0.01916 -0.0138,0.138031 -6.8e-4,0.165564 0.85547,1.778902 2.37009,-1.05165 4.42446,-2.38668 0.0297,-0.01924 -0.0292,-0.06473 -0.0335,-0.09942 -0.005,-0.04022 0.005,-0.08077 0.007,-0.121219 0,0 -4.31386,2.100387 -4.31386,2.100387 v 0 c -0.005,0.04147 -0.005,0.08417 -0.0166,0.124625 -0.0134,0.04802 -0.10092,0.163428 -0.0567,0.138684 1.6618,-0.93048 3.70042,-4.041019 4.38224,-2.217876 0.008,0.02272 -0.0989,0.0088 -0.074,0.0016 -0.12713,-0.08835 -0.20039,-0.180223 -0.29778,-0.301001 -0.19237,-0.238588 -0.35826,-0.491789 -0.47397,-0.775827 -0.0396,-0.130636 -0.0923,-0.258129 -0.1187,-0.391911 -0.0731,-0.370546 -0.0364,-0.467738 -0.0245,-0.833192 0.004,-0.125122 0.12266,-0.426509 0.006,-0.375382 -4.73469,2.072497 -5.70523,1.403606 -4.21597,2.352161 0.0199,0.06073 0.0466,0.119703 0.0596,0.182172 0.0931,0.447032 0.008,0.92432 -0.17895,1.337023 -0.0553,0.122101 -0.13029,0.234716 -0.19544,0.352064 -1.25495,1.396888 -0.007,-0.05054 3.59526,-1.917308 0.0944,-0.04889 0.0252,0.279812 -0.0788,0.30383 -0.0512,0.01135 -0.10407,-0.02531 -0.14827,-0.0533 -0.056,-0.0354 -0.0975,-0.08872 -0.14632,-0.133158 -0.14729,-0.196412 -0.29718,-0.395583 -0.41241,-0.612432 -0.13454,-0.253178 -0.22248,-0.526295 -0.3147,-0.795796 -0.58969,-1.758729 -0.0815,-0.510579 -4.52863,1.868769 -0.0716,0.03832 0.0894,0.133913 0.14078,0.195924 0.0383,0.04628 0.0927,0.07887 0.12756,0.127746 0.0763,0.107105 0.19541,0.389496 0.24286,0.494708 0.0397,0.114169 0.0848,0.226581 0.11892,0.342405 0.0676,0.229765 0.13644,0.547696 0.16027,0.785765 0.0189,0.188944 0.0342,0.48884 -0.0427,0.678029 -0.0204,0.05015 -0.0766,0.07775 -0.11493,0.116685 1.41804,-0.859263 2.80026,-1.777844 4.25415,-2.577803 0.23548,-0.129578 0.0901,0.24608 0.0645,0.250416 -0.0131,0.0023 -0.0254,-0.0079 -0.038,-0.01135 -0.24073,-0.173742 -0.45332,-0.372574 -0.58626,-0.640671 -0.0316,-0.06994 -0.0703,-0.13709 -0.0948,-0.209601 -0.0853,-0.252018 -0.0856,-0.530515 -0.0401,-0.789787 0,0 -4.43256,2.387076 -4.43256,2.387076 z" />
    <path
       style="fill:#000000;stroke-width:3.88533"
       id="path7976-2"
       d="m 52.724328,45.871043 c -5e-5,0.0023 0.002,0.0063 -1.4e-4,0.0063 -0.0118,-0.0048 -0.021,-0.01554 -0.0326,-0.02152 -1.4482,-0.761383 -3.7857,1.901498 4.04144,-2.412679 0.0391,-0.02152 -0.0139,0.09465 -0.0481,0.123111 -0.028,0.02334 -0.0732,0.0048 -0.10977,0.0088 -0.14567,-0.07672 -0.0783,-0.03083 -0.20229,-0.137509 0,0 -4.05297,2.445915 -4.05297,2.445915 v 0 c 0.16402,0.157774 0.0809,0.07878 0.24954,0.236839 0.023,0.02484 0.29991,0.32759 0.3172,0.318804 2.51922,-1.281787 4.11832,-0.97642 4.36411,-2.822265 0,0 -4.52638,2.255173 -4.52638,2.255173 z" />
    <path
       style="fill:#000000;stroke-width:3.88533"
       id="path7978-2"
       d="m 51.519098,44.40896 c 0.17942,0.17975 0.27483,0.182195 0.37639,0.442571 0.0915,0.23475 0.083,0.494211 0.0744,0.739599 0.0142,0.109499 -0.0442,0.214482 -0.0413,0.322912 0.003,0.113908 0.0399,0.15902 0.0843,0.25935 0.0767,0.173236 0.004,0.02783 0.089,0.190237 0.0683,0.109628 0.1714,0.189086 0.26392,0.277031 0,0 4.24639,-2.626904 4.24639,-2.626904 v 0 c -0.0659,-0.02989 -0.004,0.0023 -0.0799,-0.05441 -0.0544,-0.04045 -0.12048,-0.05496 -0.17725,-0.09249 -0.0959,-0.03966 -0.11695,-0.09415 -0.17169,-0.174988 -0.051,-0.07523 -0.1038,-0.149133 -0.15382,-0.224901 -0.0301,-0.05749 -0.0652,-0.112788 -0.0906,-0.172354 -0.10332,-0.242342 -0.16623,-0.514727 -0.0959,-0.775648 0.0298,-0.110266 0.11348,-0.245576 0.17591,-0.351899 0,0 -4.49983,2.241934 -4.49983,2.241934 z" />
    <path
       style="fill:none;stroke:#000000;stroke-width:0.359498px;stroke-linecap:butt;stroke-linejoin:miter;stroke-opacity:1"
       d="m 53.770078,36.755865 1.03199,1.845799 -19.67665,11.074745 z"
       id="path7360-7" />
    <path
       style="fill:#ffffff;stroke:#000000;stroke-width:0.404027px;stroke-linecap:butt;stroke-linejoin:miter;stroke-opacity:1"
       d="m 49.497218,35.442504 1.49889,3.009926 -22.48328,12.359969 -0.34066,-0.3202 z"
       id="path8310-1" />
    <rect
       style="fill:#000000;fill-opacity:1;stroke:#000000;stroke-width:2.51036;stroke-linecap:butt;stroke-opacity:1"
       id="rect10536-5"
       width="0.53592145"
       height="0.051196918"
       x="59.651852"
       y="-11.153417"
       transform="matrix(0.35005055,0.93673081,-0.82708239,0.56208071,0,0)" />
    <rect
       style="fill:#000000;fill-opacity:1;stroke:#000000;stroke-width:2.43534;stroke-linecap:butt;stroke-opacity:1"
       id="rect10750-2"
       width="0.40450144"
       height="0.48582092"
       x="28.813128"
       y="50.383289" />
    <ellipse
       id="path12663-1"
       style="fill:#000000;stroke:#ffffff;stroke-width:0.337157"
       cx="71.27562"
       cy="61.188782"
       rx="0.057476133"
       ry="0.056201983" />
    <ellipse
       id="path12665-1"
       style="fill:#000000;stroke:#000000;stroke-width:0.337157;stroke-opacity:1"
       cx="71.27562"
       cy="61.188782"
       rx="0.057476133"
       ry="0.056201983" />
    <ellipse
       id="path12827-0"
       style="fill:#000000;stroke:#000000;stroke-width:0.337157"
       cx="71.100479"
       cy="61.096771"
       rx="0.052267551"
       ry="0.051108871" />
    <ellipse
       id="path12829-1"
       style="fill:#000000;stroke:#000000;stroke-width:0.337157"
       cx="71.100479"
       cy="61.096771"
       rx="0.052267551"
       ry="0.051108871" />
    <ellipse
       id="path12831-8"
       style="fill:#000000;stroke:#000000;stroke-width:0.337157"
       cx="70.967728"
       cy="61.269848"
       rx="0.052267551"
       ry="0.051108871" />
    <ellipse
       id="path12833-7"
       style="fill:#000000;stroke:#000000;stroke-width:0.337157"
       cx="70.967728"
       cy="61.269848"
       rx="0.052267551"
       ry="0.051108871" />
    <ellipse
       id="path12835-6"
       style="fill:#000000;stroke:#000000;stroke-width:0.337157"
       cx="71.233246"
       cy="61.140057"
       rx="0.052267551"
       ry="0.051108871" />
    <ellipse
       id="path12837-0"
       style="fill:#000000;stroke:#000000;stroke-width:0.337157"
       cx="71.233246"
       cy="61.140057"
       rx="0.052267551"
       ry="0.051108871" />
    <ellipse
       id="path12839-0"
       style="fill:#000000;stroke:#000000;stroke-width:0.337157"
       cx="74.729294"
       cy="59.236069"
       rx="0.052267551"
       ry="0.051108871" />
    <ellipse
       id="path12841-9"
       style="fill:#000000;stroke:#000000;stroke-width:0.337157"
       cx="74.729294"
       cy="59.236069"
       rx="0.052267551"
       ry="0.051108871" />
    <ellipse
       id="path12843-5"
       style="fill:#000000;stroke:#000000;stroke-width:0.337157"
       cx="74.508011"
       cy="59.322601"
       rx="0.052267551"
       ry="0.051108871" />
    <ellipse
       id="path12845-6"
       style="fill:#000000;stroke:#000000;stroke-width:0.337157"
       cx="74.508011"
       cy="59.322601"
       rx="0.052267551"
       ry="0.051108871" />
    <ellipse
       id="path12847-2"
       style="fill:#000000;stroke:#000000;stroke-width:0.337157"
       cx="74.508011"
       cy="59.538967"
       rx="0.052267551"
       ry="0.051108871" />
    <ellipse
       id="path12849-8"
       style="fill:#000000;stroke:#000000;stroke-width:0.337157"
       cx="74.508011"
       cy="59.538967"
       rx="0.052267551"
       ry="0.051108871" />
    <ellipse
       id="path12851-5"
       style="fill:#000000;stroke:#000000;stroke-width:0.337157"
       cx="74.906281"
       cy="59.062981"
       rx="0.052267551"
       ry="0.051108871" />
    <ellipse
       id="path12853-9"
       style="fill:#000000;stroke:#000000;stroke-width:0.337157"
       cx="74.906281"
       cy="59.062981"
       rx="0.052267551"
       ry="0.051108871" />
    <ellipse
       id="path12855-4"
       style="fill:#000000;stroke:#000000;stroke-width:0.337157"
       cx="74.198242"
       cy="59.495693"
       rx="0.052267551"
       ry="0.051108871" />
    <ellipse
       id="path12857-3"
       style="fill:#000000;stroke:#000000;stroke-width:0.337157"
       cx="74.198242"
       cy="59.495693"
       rx="0.052267551"
       ry="0.051108871" />
    <ellipse
       id="path12859-9"
       style="fill:#000000;stroke:#000000;stroke-width:0.337157"
       cx="61.196964"
       cy="38.148872"
       rx="0.18417898"
       ry="0.18009605" />
    <ellipse
       id="path12861-0"
       style="fill:#000000;stroke:#000000;stroke-width:0.337157"
       cx="61.196964"
       cy="38.148872"
       rx="0.18417898"
       ry="0.18009605" />
  </g>
</svg>
