<svg xmlns="http://www.w3.org/2000/svg" viewBox="0 0 100 100"><defs><style>.cls-1{isolation:isolate;}.cls-2,.cls-6{fill:#3953a4;}.cls-3{opacity:0.2;mix-blend-mode:multiply;}.cls-4{fill:#fff;}.cls-5{fill:none;}.cls-6{stroke:#3953a4;stroke-miterlimit:10;stroke-width:0.31px;}</style></defs><title>NOVIS Icon</title><g class="cls-1"><g id="Layer_1" data-name="Layer 1"><rect class="cls-2" width="100" height="100"/><g class="cls-3"><circle cx="52.87" cy="54.26" r="40.89"/></g><circle class="cls-4" cx="50.11" cy="50.11" r="40.89"/><path class="cls-5" d="M60.64,36.3a1.8,1.8,0,0,0,.37.3c.05-.09.15-.21.13-.26a2.89,2.89,0,0,0-.35-.35C60.72,36.13,60.62,36.27,60.64,36.3Z"/><path class="cls-5" d="M57.57,31.2c-1.83-1.37-4-1.37-6.15-1.44A51.2,51.2,0,0,1,57.57,31.2Z"/><path class="cls-5" d="M47.69,66.86c.88.21,1-.57,1.06-1.24A3.14,3.14,0,0,0,47,64.93C47.25,65.74,46.72,66.63,47.69,66.86Z"/><path class="cls-5" d="M53,32.91c1.17.31,2.16.55,3.13.83.59.17.59-.22.65-.59C55.52,33.44,54.41,32.41,53,32.91Z"/><path class="cls-5" d="M61.87,31.11c0-.33-.06-.54-.33-.59a.33.33,0,0,0-.4.4c0,.17.27.31.45.41S61.8,31.17,61.87,31.11Z"/><path class="cls-5" d="M45.05,32.39c.17.79.35,1.42-.18,2.06A1.1,1.1,0,0,0,45,36.14a1.34,1.34,0,0,0,1.7-2c-.22-.24-.65-.34-.55-.83a9.46,9.46,0,0,1,3.35-.6c.34,0,.95.11.46-.59l-1.42,0A12.23,12.23,0,0,1,45.05,32.39Z"/><path class="cls-5" d="M57.61,28.52s.09-.05.13-.08l-.12-.12-.12.1S57.57,28.52,57.61,28.52Z"/><path class="cls-5" d="M58.39,28.85l-.07-.12,0,.09Z"/><path class="cls-5" d="M48.16,28.29c0,1.1,1.25.63,1.94.66a46.33,46.33,0,0,1,5.5.54c2,.33,3.38,1.84,5.28,2.86-.06-.44,0-.59-.1-.65A8.42,8.42,0,0,0,60,31a15.51,15.51,0,0,0-10-3.2C49.39,27.83,48.17,27.24,48.16,28.29Z"/><path class="cls-5" d="M57,28a9.66,9.66,0,0,0-5.52-1C53.38,27.14,55.17,27.74,57,28Z"/><path class="cls-5" d="M61.1,33.66c.23.08.41,0,.46-.37-.06-.08-.19-.32-.22-.31a3,3,0,0,0-.51.31C60.91,33.42,61,33.61,61.1,33.66Z"/><path class="cls-5" d="M54.54,38.63a1.71,1.71,0,0,0-1.61-.08C53.45,38.46,54,39,54.54,38.63Z"/><path class="cls-5" d="M45,40c2.51.14,5.06.07,7.59.31S57.35,42,59.71,43.5a1.84,1.84,0,0,0-1-1.78,19.3,19.3,0,0,0-5.07-2.22c-2.59-.73-5.28-.23-7.88-.78C45,38.56,44.88,39.22,45,40Z"/><path class="cls-5" d="M57.36,33.94l-.11.13.65.33,0-.08C57.75,34.19,57.56,34.06,57.36,33.94Z"/><path class="cls-5" d="M48.38,25.51c.83,1,2,.4,2.89.67l.83,0h0a14.07,14.07,0,0,1,8.76,3.11C58.9,26.5,51.73,24.4,48.38,25.51Z"/><path class="cls-5" d="M56.09,42.13l-.72-.24C55.5,42.34,55.75,42.37,56.09,42.13Z"/><path class="cls-5" d="M47.71,31.21c0,.48.44.46.74.58,0,0,0,.07,0,.1s0-.06,0-.1h2.43a30,30,0,0,1,3.8.35c.71.15,1.72,0,2.06,1,.79-.37,1.18.35,1.74.62s1.15,1.09,2.19,1.05a3.9,3.9,0,0,0-.54-.88c-3.41-2.88-7.51-3.37-11.75-3.32C48,30.61,47.69,30.73,47.71,31.21Z"/><path class="cls-5" d="M56.47,42.4l-.32-.23C56.19,42.32,56.13,42.59,56.47,42.4Z"/><path class="cls-5" d="M48,64.43c.49.15.73-.12.79-.85-.39,0-.79-.31-1.06.16A.48.48,0,0,0,48,64.43Z"/><path class="cls-5" d="M48.06,35.55a40.81,40.81,0,0,1,7.84.93l-1.12-.86L48.11,35C48.1,35.19,48.08,35.37,48.06,35.55Z"/><path class="cls-5" d="M48,83.6c-.76-.44-1.2-.52-1.67.06C46.84,84.28,47.28,84.17,48,83.6Z"/><path class="cls-5" d="M43,64.33c-.49,1.72-.71,3.4.63,4.87A10.63,10.63,0,0,1,43,64.33Z"/><path class="cls-5" d="M60.23,37.72C59,34.58,51.86,32.9,48,33.58a2.13,2.13,0,0,0,2.09.93,15.27,15.27,0,0,1,4.93.73l-.19.36h0l.19-.36.61.06h0C57.36,35.57,58.62,36.83,60.23,37.72Z"/><path class="cls-5" d="M51.49,54.76a1.08,1.08,0,0,0-.32-1A.87.87,0,0,0,51.49,54.76Z"/><path class="cls-5" d="M51.68,26.45a.33.33,0,0,1-.21-.05A.33.33,0,0,0,51.68,26.45Z"/><path class="cls-5" d="M52.7,41.32c.88.12,1.68.66,2.61.54A2.86,2.86,0,0,0,52.7,41.32Z"/><path class="cls-5" d="M57.46,56.57a14.76,14.76,0,0,0,2.22-6.47c-2.62-1.39-4.91-3.19-7.8-3.68l-1.31-.08H40a12.19,12.19,0,0,1,2.5-.62c.88-.1,1.77-.09,2.75-.13-.16-.92-.44-1.28-1.12-.68-.23.2-.16.45-.68.14-2.07-1.2-5.42.3-6.23,2.75a2.26,2.26,0,0,1,1.66.88c.65-.47,1.08-1.23,1.9-.73a1.33,1.33,0,0,1,.72,1.47c-.45,1.4.07,2.64.39,3.93a16.29,16.29,0,0,1-.23-4.46,1,1,0,0,1,.93-1.08l.62,0h0c.8-.39.59,1,1.34.74l.18-.38c.33-.8,1-.74,1.58-.49a1.45,1.45,0,0,1,.79,1.6A9.58,9.58,0,0,0,48.32,55a19,19,0,0,1-.77-5.57c0-.8-.11-1.67,1.11-1.76s1.39,1,1.48,1.69A18.87,18.87,0,0,0,50.6,53c.09.29.12.68.54.73a13.1,13.1,0,0,1-.34-4.19c.07-.66,0-1.29.86-1.42s1.4-.2,1.59.76a.47.47,0,0,1,.36.5c-.33,3.12,1.49,5.37,3.11,7.7l.12.37-.12-.37Z"/><path class="cls-5" d="M53.15,49.24a2,2,0,0,1,.08-.33h0A2,2,0,0,0,53.15,49.24Z"/><path class="cls-5" d="M52.19,55.81c-.11-.4-.15-.85-.66-1C51.59,55.27,51.57,55.76,52.19,55.81Z"/><path class="cls-5" d="M52.49,57.52a2,2,0,0,1-2.7-.94c-.36-.51-.56-1.33-1.41-1.41.17,1.1,1.09,1.84,1.44,2.84-1,.89-1.14,0-1.41-.6-1.32-2.7-2.55-5.43-2.22-8.56,0-.19-.15-.4-.21-.54-.77-.2-.77.47-1.09.74,0,.25,0,.5,0,.74h0c.08,2.1,1,4,1.35,6.05h0c.57-.09.62.31.68.7l.25.28-.13.08-.16-.33,0,0-.05,0c-.59.08-.61-.33-.63-.74h0c-.56-.11-.41-1-1-1l.66,2.1c-2.27-2.5-2.61-5.38-2.79-8.34A6.24,6.24,0,0,0,43,53.43c.93,2.37,1.57,5.15,4.85,5.42a23.51,23.51,0,0,0,6.09-.7l-1.71-2.27C52,56.46,52.74,56.87,52.49,57.52Zm-5,.07s-.09-.1-.08-.13a1.12,1.12,0,0,1,.17-.21c.05.09.1.18.16.27A.86.86,0,0,1,47.45,57.59Z"/><path class="cls-5" d="M44.87,54.15c.06.24,0,.53.33.63C45.26,54.48,45.32,54.17,44.87,54.15Z"/><path class="cls-5" d="M59.15,48.62a5.81,5.81,0,0,0-.51-.77c-3.54-3-7.84-3.09-12.14-3.21-.65,0-.51.54-.62.93,2.13.4,4.19-.33,6.12.49C54.64,45.74,56.59,47.58,59.15,48.62Z"/><path class="cls-5" d="M44.56,53.06c0,.37-.08.76.29,1A.92.92,0,0,0,44.56,53.06Z"/><path class="cls-5" d="M44.53,52.94l-.15-1.82A1.87,1.87,0,0,0,44.53,52.94Z"/><path class="cls-5" d="M52,48.81c-.9,2.42.28,6.55,2.37,8.28.64-.33.74-.7.33-1.38A12.13,12.13,0,0,1,53,51.94l-.09-2.53C52.6,49.21,52.58,48.6,52,48.81Z"/><path class="cls-5" d="M49.32,49.15c0-.4-.17-.7-.6-.65s-.53.45-.5.79a13.18,13.18,0,0,0,.63,4.09,6.33,6.33,0,0,0,2.59,3.45A12.22,12.22,0,0,1,49.32,49.15Z"/><path class="cls-5" d="M45.73,28.06c1,1,1,1,1.47-.39-2.34.42-4.75-.21-7.12,1.5,1.86.33,3.35-.58,5.12.13-2.21.85-4.66-.08-6.14,2,2.07-1.24,4.41-1.29,6.8-1.49A1.51,1.51,0,0,1,45.73,28.06Z"/><path class="cls-5" d="M40,27.58,45.19,27c-1.17-.22-2.29.22-3.44-.2,1.2-.9,2.72-.29,4.17-1.13C42.35,25.13,40.12,25.87,40,27.58Z"/><path class="cls-5" d="M47.92,27.15l-1.54-.55C46.58,27.28,47.09,27,47.92,27.15Z"/><path class="cls-5" d="M47.62,25.76c0-.33-.18-.55-.54-.47a1.52,1.52,0,0,0-.41.18c0,.62.24.69.48.68S47.62,26.05,47.62,25.76Z"/><path class="cls-5" d="M53.21,50.8c0,.13,0,.25,0,.38C53.21,51.05,53.21,50.93,53.21,50.8Z"/><path class="cls-5" d="M44.12,58a1.83,1.83,0,0,0-.86-1.74c-2.16-1.38-2.5-3.52-2.7-5.77-.05-.48.29-1.12-.43-1.47a8.8,8.8,0,0,0,1.35,6.71c.29.45.9.84.64,1.54C42.92,57.08,43.28,58.22,44.12,58Z"/><path class="cls-5" d="M44.18,58l.32.28C44.52,58,44.4,58,44.18,58Z"/><path class="cls-5" d="M44.85,58.5s.06-.12,0-.14-.23-.2-.37-.07S44.67,58.55,44.85,58.5Z"/><path class="cls-5" d="M41.71,57.75c.68.29.14-.4.35-.5-.8,0-1.13-1.08-2.13-1A4.77,4.77,0,0,0,41.71,57.75Z"/><path class="cls-5" d="M50,19.76c-1.78.51-1.48,1.6-1.08,2.73C49.34,21.63,50.08,20.9,50,19.76Z"/><path class="cls-5" d="M39.92,55.69s-.06-.09-.1-.13-.11.07-.11.12.06.08.1.14S39.92,55.73,39.92,55.69Z"/><path class="cls-5" d="M41.28,22.16c-.29.24-.63.37-.44.88C41.33,22.91,41.5,22.69,41.28,22.16Z"/><path class="cls-5" d="M59.71,47.6c.22-.17.25-.35,0-.55C59.44,47.22,59.58,47.41,59.71,47.6Z"/><path class="cls-5" d="M47.11,37.19c4.75.13,9.26.1,12.89,3.37C58.63,37.45,50.43,35.29,47.11,37.19Z"/><path class="cls-5" d="M60.82,49.81c.25-.4.14-.77-.15-1.39C60.57,49,60.41,49.42,60.82,49.81Z"/><path class="cls-5" d="M46.84,41.84c-.57,0-.79.38-.61,1L47.6,43a.23.23,0,0,0,0,.16.23.23,0,0,1,0-.16h1.56A17.3,17.3,0,0,1,59.45,46a1.36,1.36,0,0,0-.35-.91C55.51,42.18,51.27,41.65,46.84,41.84Z"/><path class="cls-5" d="M60.14,41.64l.28.15a.73.73,0,0,0,.07-.31c0-.06-.15-.09-.23-.14Z"/><path class="cls-5" d="M55.73,45.18a.94.94,0,0,0,.28.1s.08-.06.12-.1a1.25,1.25,0,0,0-.3-.12S55.76,45.14,55.73,45.18Z"/><path class="cls-5" d="M53.27,67.62c.26.1.25-.12.29-.27l-.13-.26a2.42,2.42,0,0,0-.32.32S53.2,67.59,53.27,67.62Z"/><path class="cls-5" d="M52.76,63.94c-.67,1.48-.67,1.48-.19,2.58C53.21,65.74,53,65,52.76,63.94Z"/><path class="cls-5" d="M61.22,47.21c.13-.36.11-.67-.32-1.3C60.77,46.59,60.68,47,61.22,47.21Z"/><path class="cls-5" d="M55.23,44.73c-.23-.08-.42-.18-.6,0C54.81,44.91,55,45.09,55.23,44.73Z"/><path class="cls-5" d="M47.67,43.27c-.23.2-.72-.1-.86.62a31.07,31.07,0,0,1,7.72.81c-.39-.55-1-.55-1.62-.7-1.28-.31-2.66-.12-3.89-.72H47.67Z"/><path class="cls-5" d="M47,21.63c-.18-.56.51-1,.2-1.59-.63-.31-.85.3-1.23.54l-.21.67h0c0,.47-.36,1.05.4,1.28.49-.07.51-.6.82-.83l0-.07Z"/><path class="cls-5" d="M43.56,61.47c0-.2,0-.4,0-.61C43.56,61.07,43.55,61.27,43.56,61.47Z"/><path class="cls-5" d="M46,87.16c.77.55,2.22-.67,2.05,1.19a1.16,1.16,0,0,1-.44.88l1.69,0c0-4.69.08-9.39.13-14.08a.77.77,0,0,0-.62-.89h0a.66.66,0,0,1-.28,0l-2.4,0a1.81,1.81,0,0,1,1.2-.44,1.81,1.81,0,0,0-1.2.44l-.36,0c-.54.1-1,.27-1,1A25.54,25.54,0,0,0,45,79.49c.66,0,1.13,0,1.19-.74s.75-.58,1.23-.6.88.4.74.55c-.6.66-.31,1.92-1.43,2.21.24.34.23.89.8,1,.34-.49,0-1.33.79-1.55,1,3.77.33,5.75-2.18,6,.15-.82-.55-1.38-.61-2.16,0-.43.1-1-.64-1s-.61.74-.58,1.19c.09,1.58.36,3.16.32,4.81l1.81,0C45.8,88.87,45.83,88.13,46,87.16Zm1.08-9.58A1.14,1.14,0,0,1,46,76.25c0-.68.48-1.07,1.08-.73.91-.08,1.3.36,1.18,1A1.14,1.14,0,0,1,47.09,77.58Z"/><path class="cls-5" d="M57.35,21.7a15.7,15.7,0,0,1-.76,1.54,1.28,1.28,0,0,1-1.54.52c-.33-.09-.86-.16-.42-.73-1,.19-.7-.56-.62-1a13.52,13.52,0,0,1,.58-1.83c-1.05.18-2.16-.73-2.77.59-.27.61-.51,1.3.22,1.74,1.1-.25.51-1.57,1.57-1.92-.31,1.09,0,2.4-1.37,2.78-1.05.28-1.43-.53-1.62-1.43-1.27,1.67-2,1.68-3.31.14-.07-.06-.07-.17-.08-.27,0,.1,0,.21.08.27v0h0c.06.78-.54,1.39-1.06,1.25A10,10,0,0,0,43.18,23v0c-.58,0-.67-.52-1.21-1.15.83,2.19-2.2,1.66-2,3,7.74-.93,15.18-1.48,21.89,3.33.17-.3-.15-.79.32-1,.59.95-.51,2.34.89,3.11C63.22,26.15,60.59,22.2,57.35,21.7Z"/><path class="cls-5" d="M61.5,44.2a.53.53,0,0,0-.11-.72C61.25,43.75,61.21,44,61.5,44.2Z"/><path class="cls-5" d="M56.62,20.85c-2.2-.46-1.56,1.31-2,2.17C56.23,23.2,56.21,22,56.62,20.85Z"/><path class="cls-5" d="M43.17,23a3.3,3.3,0,0,0,1-2.32A1.92,1.92,0,0,0,43.17,23Z"/><path class="cls-5" d="M61.4,37.68c.4.69-.26,1.4.73,1.48C62.5,38.58,62.19,38.23,61.4,37.68Z"/><path class="cls-5" d="M54.81,64.8c.06-.4.12-.83.18-1.26a2,2,0,0,0-1.58.69A1.14,1.14,0,0,0,54.81,64.8Z"/><path class="cls-5" d="M38.29,40.67c-.15.18,0,.63,0,1.12,3.22-1,6.54-.64,9.73-1.11C44.85,40,41.65,41.36,38.29,40.67Z"/><path class="cls-5" d="M53.64,87.46a4.8,4.8,0,0,1-.3,1.87l1.54,0a78.64,78.64,0,0,0-1.15-10.24C53.62,81.9,53.57,84.68,53.64,87.46Z"/><path class="cls-5" d="M45,80.44c.13.65-.34,1.41.55,1.65s.59-.87,1.06-1.18C46.41,79.91,45.74,80.42,45,80.44Z"/><path class="cls-5" d="M40,35.71a11.39,11.39,0,0,1,3.23-.14c.36.07.57-.09.42-.46,0-.11-.29-.13-.45-.19C42.4,35.89,41.17,34.93,40,35.71Z"/><path class="cls-5" d="M39.37,33.45l1.29-.51C40.13,32.83,39.68,32.82,39.37,33.45Z"/><path class="cls-5" d="M52.27,67.87a1.68,1.68,0,0,0,1.19,2A1.79,1.79,0,0,0,52.27,67.87Z"/><path class="cls-5" d="M44.21,38a10,10,0,0,0,3-.09C46.49,37.8,45.4,36.6,44.21,38Z"/><path class="cls-5" d="M43.7,33.51c-2.93,0-3.35.17-3.57,1.31h2l.89-.29C43.15,34.11,44,34.19,43.7,33.51Z"/><path class="cls-5" d="M41.46,32.58c.43.23.68.22,1,0Z"/><path class="cls-5" d="M46.93,30.82A7.84,7.84,0,0,0,40.56,32c1.35-.1,3.13.28,3.69-.38C45.11,30.61,46.55,32.5,46.93,30.82Z"/><path class="cls-5" d="M40,42.34c-1.07.21-2.06.54-2.1,2.12,2.17-.54,4.22-.46,6.22-.83-1-.43-2.09,0-3.3-.63l4.74-.22C45.05,41.67,43.8,41.59,40,42.34Z"/><path class="cls-5" d="M39.75,39.42c-.3.11-.55.19-.43.56,0,.16.21.42.25.4,1.4-.44,3,0,4.29-1A7.55,7.55,0,0,0,39.75,39.42Z"/><path class="cls-5" d="M40,37.93c1.11-.78,2.37-.51,3.6-.9-1.92-1.11-3.91-.81-5.53,2.56a8.8,8.8,0,0,1,5-1.33C41.9,37.74,40.93,38.35,40,37.93Z"/><path class="cls-6" d="M48.82,74.29h0a.77.77,0,0,1,.62.89c0,4.69-.08,9.39-.13,14.08h.8c.1-4.78.48-9.56.31-14.36,0-.64.06-1.36-1-1.22l-.65.6Z"/><path class="cls-6" d="M46.65,80.91h.05l0,0Z"/><polygon class="cls-6" points="44.54 73.64 44.53 73.64 44.53 73.64 44.54 73.64"/><path class="cls-6" d="M43.56,61.47c0-.2,0-.4,0-.61a2.44,2.44,0,0,0-.09-.89,33.14,33.14,0,0,1-1,4.15c-1.14,2.95-.19,5.4,2.26,6.48-2.11,1-.74,2.56-.8,3.94-.22,4.87.12,9.76-.47,14.61l1.17,0c0-1.65-.23-3.23-.32-4.81,0-.45-.26-1.15.58-1.19s.6.55.64,1c.06.78.76,1.34.61,2.16,2.51-.22,3.2-2.2,2.18-6-.84.22-.45,1.06-.79,1.55-.57-.09-.56-.64-.8-1h-.05c-.47.31-.08,1.46-1.06,1.18s-.42-1-.55-1.65c.7,0,1.37-.53,1.61.47l0,0,0,0c1.12-.29.83-1.55,1.43-2.21.14-.15-.37-.56-.74-.55s-1.16-.18-1.23.6-.53.77-1.19.74a25.54,25.54,0,0,1-.16-4.28c-.05-.7.43-.87,1-1l-.3-.58-.95,0h0l0,0c0,.7-.09,1.4-.14,2.1a3.58,3.58,0,0,1,.14-2.1v0h0c-.7-1.69-.23-2.5,1.57-2.44a21.49,21.49,0,0,1,5.54.33c-2.49-2.91-1.56-5.89-1.45-8.72a11.86,11.86,0,0,0-3.82-.14c-.43,0-.81.17-.87.67-.21,1.75-.54,3.5.2,5.23.68-.29.27-1.11.82-1.43.72.94,1.63.53,2.54.32a9.57,9.57,0,0,1-.06,3H47.35c-2.25,0-3.17-.75-3.37-2.93-.17-1.72-.13-3.47-.18-5.2h0A1.67,1.67,0,0,1,43.56,61.47ZM43,64.33a10.63,10.63,0,0,0,.63,4.87C42.33,67.73,42.55,66.05,43,64.33ZM48,83.6c-.75.57-1.19.68-1.67.06C46.83,83.08,47.27,83.16,48,83.6Zm-.35-19.86c.27-.47.67-.17,1.06-.16-.06.73-.3,1-.79.85A.48.48,0,0,1,47.68,63.74Zm0,3.12c-1-.23-.44-1.12-.7-1.93a3.14,3.14,0,0,1,1.76.69C48.66,66.29,48.57,67.07,47.69,66.86Z"/><path class="cls-6" d="M55,63.54h0l0,0h0Z"/><path class="cls-6" d="M53.64,87.46c-.07-2.78,0-5.56.09-8.34a78.64,78.64,0,0,1,1.15,10.24h.52A80.67,80.67,0,0,0,54.65,81c-.44-3.06-.23-6.23-1.46-9.17a1.12,1.12,0,0,1,.63-1.59c2.22-.84,2.26-2.64,2.21-4.58-.05-2.36-.13-4.79,2.64-6-1.46-.06-2.47.36-2.72,1.93-.11.7-.09,1.52-.94,1.88l0,0h0c-.06.43-.12.86-.18,1.26a1.14,1.14,0,0,1-1.4-.57A2,2,0,0,1,55,63.54v0h0c-.66-1.43-.91-1.49-1.83-.55-.65.13-.39-.86-1.14-.7-.75,2.12-1.21,4.43-.33,6.52a6.82,6.82,0,0,1,.69,3.67A9.83,9.83,0,0,0,45.73,72c1.92.48,3.93-.07,5.83.76a1.78,1.78,0,0,1,1.28,1.92c-.07,3.47-.1,7,0,10.43a12,12,0,0,1-.41,4.18h.91A4.8,4.8,0,0,0,53.64,87.46Zm-.21-20.37.13.26c0,.15,0,.37-.29.27-.07,0-.18-.19-.16-.21A2.42,2.42,0,0,1,53.43,67.09Zm-.67-3.15c.24,1,.45,1.8-.19,2.58C52.09,65.42,52.09,65.42,52.76,63.94Zm-.49,3.93a1.79,1.79,0,0,1,1.19,2A1.68,1.68,0,0,1,52.27,67.87Z"/><polygon class="cls-6" points="56.74 33.15 56.75 33.15 56.74 33.14 56.74 33.15 56.74 33.15"/><path class="cls-6" d="M53.23,48.91l0,0,0,0Z"/><path class="cls-6" d="M55.31,41.86l0,0h0s0,0,0,0Z"/><polygon class="cls-6" points="53.25 48.88 53.25 48.87 53.24 48.86 53.25 48.88"/><path class="cls-6" d="M51.61,18.81a33.84,33.84,0,0,0-7.81.89c-2.08.56-4.25,2.35-4.55,4.52-.54,3.83-.88,7.69-1.34,11.53-.48,4-1.06,8-1.49,12a12,12,0,0,0,1.91,7.78c1.24,2,3.3,2.82,5.16,4l.42.18c.11-.42.28-.77.82-.58a15.92,15.92,0,0,0,7.39.23c.09,0,.19.08.33.14.22.37-.19,1,.6,1.4-.16-1.76.79-2.43,2.25-2.71a2.35,2.35,0,0,0,1.54-.73l-.12-.37c-1.62-2.33-3.44-4.58-3.11-7.7a.47.47,0,0,0-.36-.5h0l0,0a2,2,0,0,0-.08.33,4.07,4.07,0,0,0,0,.78c0,.26.05.52.06.78s0,.25,0,.38a1.93,1.93,0,0,1-.21.76,12.13,12.13,0,0,0,1.71,3.77c.41.68.31,1-.33,1.38-2.09-1.73-3.27-5.86-2.37-8.28.58-.21.6.4.9.6h0l.33-.51s0,0,0,0h0c-.19-1-.89-.87-1.59-.76s-.79.76-.86,1.42a13.1,13.1,0,0,0,.34,4.19l0,0a.08.08,0,0,1,0,0,1.08,1.08,0,0,1,.32,1l0,0a.43.43,0,0,1,0,.05c.51.12.55.57.66,1l0,0s0,0,0,.05l1.71,2.27a23.51,23.51,0,0,1-6.09.7c-3.28-.27-3.92-3.05-4.85-5.42a6.24,6.24,0,0,1,.12-4.85c.18,3,.52,5.84,2.79,8.34l-.66-2.1h0v0c-.32-.1-.27-.39-.33-.63h0s0,0,0,0c-.37-.27-.3-.66-.29-1l0,0v-.09a1.87,1.87,0,0,1-.15-1.82l.15,1.82s0,0,0,.06,0,0,0,.06a.92.92,0,0,1,.29,1h0a.09.09,0,0,1,0,0c.45,0,.39.33.33.63h0v0c.62.06.47.91,1,1-.31-2.05-1.27-4-1.35-6.05h0c-.43-.28-.21-.75-.32-1.13a1,1,0,0,0-.07-.15c-.75.3-.54-1.13-1.34-.74h0c.15.22,0,.27-.18.28s-.44.08-.45-.25a1,1,0,0,0-.93,1.08,16.29,16.29,0,0,0,.23,4.46c-.32-1.29-.84-2.53-.39-3.93A1.33,1.33,0,0,0,40.75,48c-.82-.5-1.25.26-1.9.73a2.26,2.26,0,0,0-1.66-.88c.81-2.45,4.16-3.95,6.23-2.75.52.31.45.06.68-.14.68-.6,1-.24,1.12.68-1,0-1.87,0-2.75.13a12.19,12.19,0,0,0-2.5.62h10.6L52,46.07h0c-1.93-.82-4-.09-6.12-.49.11-.39,0-.94.62-.93,4.3.12,8.6.24,12.14,3.21a5.81,5.81,0,0,1,.51.77c-2.56-1-4.51-2.88-7.15-2.56h0c0,.12-.07.23-.11.35,2.89.49,5.18,2.29,7.8,3.68a14.76,14.76,0,0,1-2.22,6.47c0,.16,0,.33,0,.49,1.74-1.37,2-3.54,3-5.6,1.57,3.1-.11,5.45-1.6,8.21A4.93,4.93,0,0,0,61.32,56q.8-5.15,1.39-10.31c.49-4.25.78-8.52,1.36-12.75C65.08,25.57,59,18.56,51.61,18.81ZM41.48,55.69A8.8,8.8,0,0,1,40.13,49c.72.35.38,1,.43,1.47.2,2.25.54,4.39,2.7,5.77A1.83,1.83,0,0,1,44.12,58h0l0,0c.22,0,.34,0,.32.28l0,0h0c.14-.13.26,0,.37.07s0,.13,0,.14-.31,0-.32-.21l0,0v-.05L44.18,58h-.06v0c-.84.26-1.2-.88-2-.73a0,0,0,0,0,0,0h0c-.21.1.33.79-.35.5a4.77,4.77,0,0,1-1.78-1.55c1,0,1.33,1,2.13,1h.06C42.38,56.53,41.77,56.14,41.48,55.69Zm-1.66-.13s.1.09.1.13-.07.08-.11.13-.1-.1-.1-.14S39.78,55.6,39.82,55.56ZM50,19.76c0,1.14-.7,1.87-1.08,2.73C48.56,21.36,48.26,20.27,50,19.76Zm-8.76,2.4c.22.53,0,.75-.44.88C40.65,22.53,41,22.4,41.28,22.16ZM45.2,29.3c-1.77-.71-3.26.2-5.12-.13,2.37-1.71,4.78-1.08,7.12-1.5-.43,1.39-.43,1.39-1.47.39a1.51,1.51,0,0,0,.13,1.72c-2.39.2-4.73.25-6.8,1.49C40.54,29.22,43,30.15,45.2,29.3Zm0-2.31L40,27.58c.09-1.71,2.32-2.45,5.89-1.92-1.45.84-3,.23-4.17,1.13C42.9,27.21,44,26.77,45.19,27Zm2.73.16c-.83-.14-1.34.13-1.54-.55Zm-1.25-1.68a1.52,1.52,0,0,1,.41-.18c.36-.08.54.14.54.47s-.24.38-.47.39S46.69,26.09,46.67,25.47Zm5.43.73h0a.73.73,0,0,1-.42.25.33.33,0,0,1-.21-.05.73.73,0,0,1-.2-.22c-.92-.27-2.06.32-2.89-.67,3.35-1.11,10.52,1,12.48,3.8A14.07,14.07,0,0,0,52.1,26.2Zm6.29,2.65-.12,0,0-.09Zm-.65-.41s-.09.09-.13.08-.07-.06-.11-.1l.12-.1ZM57,28c-1.85-.26-3.64-.86-5.52-1A9.66,9.66,0,0,1,57,28Zm-7-.19A15.51,15.51,0,0,1,60,31a8.42,8.42,0,0,1,.77.69c.06.06,0,.21.1.65-1.9-1-3.26-2.53-5.28-2.86A46.33,46.33,0,0,0,50.1,29c-.69,0-2,.44-1.94-.66S49.39,27.83,50,27.81ZM61.34,33s.16.23.22.31c-.05.32-.23.45-.46.37s-.19-.24-.27-.37A3,3,0,0,1,61.34,33Zm-.2-2.06a.33.33,0,0,1,.4-.4c.27.05.34.26.33.59-.07.06-.24.25-.28.22S61.18,31.09,61.14,30.92Zm0,5.42s-.08.17-.13.26a1.8,1.8,0,0,1-.37-.3s.08-.17.15-.31A2.89,2.89,0,0,1,61.14,36.34ZM57.57,31.2a51.2,51.2,0,0,0-6.15-1.44C53.57,29.83,55.74,29.83,57.57,31.2Zm-9.19-.59c4.24-.05,8.34.44,11.75,3.32a3.9,3.9,0,0,1,.54.88c-1,0-1.51-.73-2.19-1.05s-.95-1-1.74-.62h0c-.06.37-.06.76-.65.59-1-.28-2-.52-3.13-.83,1.45-.5,2.56.53,3.78.24h0c-.34-1-1.35-.84-2.06-1a30,30,0,0,0-3.8-.35l-1,.3c.49.7-.12.61-.46.59a9.46,9.46,0,0,0-3.35.6c-.1.49.33.59.55.83a1.34,1.34,0,0,1-1.7,2,1.1,1.1,0,0,1-.08-1.69c.53-.64.35-1.27.18-2.06a12.23,12.23,0,0,0,3.44-.31h0a.42.42,0,0,1,0-.19s0-.06,0-.1c-.3-.12-.72-.1-.74-.58S48,30.61,48.38,30.61Zm7.23,4.69-.8.3v0h0l1.12.86a40.81,40.81,0,0,0-7.84-.93c0-.18,0-.36,0-.54l6.67.61h0l0,0,.19-.36a15.27,15.27,0,0,0-4.93-.73A2.13,2.13,0,0,1,48,33.58c3.88-.68,11,1,12.25,4.14-1.61-.89-2.87-2.15-4.62-2.43Zm1.64-1.23.11-.13c.2.12.39.25.58.38l0,.08ZM53.66,39.5a19.3,19.3,0,0,1,5.07,2.22,1.84,1.84,0,0,1,1,1.78c-2.36-1.54-4.44-2.94-7.08-3.19S47.55,40.14,45,40c-.16-.78,0-1.44.74-1.28C48.38,39.27,51.07,38.77,53.66,39.5Zm-.73-1a1.71,1.71,0,0,1,1.61.08C54,39,53.45,38.46,52.93,38.55Zm3.54,3.85c-.34.19-.28-.08-.32-.23l0,0h0c-.34.24-.59.21-.72-.24h0l0,0c-.93.12-1.73-.42-2.61-.54a2.86,2.86,0,0,1,2.61.54h0s0,0,0,0l.72.24s0,0,0,0,0,0,0,.07ZM44.21,38c1.19-1.36,2.28-.16,3-.09A10,10,0,0,1,44.21,38Zm-1-3.05h0l-1-.08h-2c.22-1.14.64-1.29,3.57-1.31.33.68-.55.6-.63,1h0c0,.12.06.25.1.37h0v0c.16.06.41.08.45.19.15.37-.06.53-.42.46a11.39,11.39,0,0,0-3.23.14c1.19-.78,2.42.18,3.2-.79Zm-3.8-1.46c.31-.63.76-.62,1.29-.51Zm2.09-.87,1,0C42.14,32.8,41.89,32.81,41.46,32.58Zm2.4,6.8c-1.27,1-2.89.56-4.29,1,0,0-.21-.24-.25-.4-.12-.37.13-.45.43-.56A7.55,7.55,0,0,1,43.86,39.38ZM40.56,32a7.84,7.84,0,0,1,6.37-1.18c-.38,1.68-1.82-.21-2.68.8C43.69,32.28,41.91,31.9,40.56,32Zm3,5c-1.23.39-2.49.12-3.6.9,1,.42,1.93-.19,3,.33a8.8,8.8,0,0,0-5,1.33C39.66,36.22,41.65,35.92,43.57,37Zm-2.8,6c1.21.59,2.28.2,3.3.63-2,.37-4,.29-6.22.83,0-1.58,1-1.91,2.1-2.12,3.85-.75,5.1-.67,5.56.44Zm-2.51-1.21c0-.49-.12-.94,0-1.12,3.36.69,6.56-.71,9.7,0C44.8,41.15,41.48,40.78,38.26,41.79ZM56,45.28a.94.94,0,0,1-.28-.1s.08-.13.1-.12a1.25,1.25,0,0,1,.3.12S56,45.29,56,45.28ZM49.16,43h0l-.15.32h0c1.23.6,2.61.41,3.89.72.59.15,1.23.15,1.62.7l.08,0h0c.18-.18.37-.08.6,0-.23.36-.42.18-.6,0,0,0,0,0,0,0l-.06-.06a31.07,31.07,0,0,0-7.72-.81c.14-.72.63-.42.86-.62h0a.19.19,0,0,1-.09-.15.23.23,0,0,1,0-.16l-1.37-.16c-.18-.58,0-.93.61-1,4.43-.19,8.67.34,12.26,3.29a1.36,1.36,0,0,1,.35.91A17.3,17.3,0,0,0,49.16,43ZM59.71,47.6c-.13-.19-.27-.38,0-.55C60,47.25,59.93,47.43,59.71,47.6ZM47.11,37.19c3.32-1.9,11.52.26,12.89,3.37C56.37,37.29,51.86,37.32,47.11,37.19Zm13.31,4.6-.28-.15.12-.3c.08,0,.21.08.23.14A.73.73,0,0,1,60.42,41.79Zm.4,8c-.41-.39-.25-.78-.15-1.39C61,49,61.07,49.41,60.82,49.81Zm.4-2.6c-.54-.26-.45-.62-.32-1.3C61.33,46.54,61.35,46.85,61.22,47.21Zm.28-3c-.29-.23-.25-.45-.11-.72A.53.53,0,0,1,61.5,44.2Zm.63-5c-1-.08-.33-.79-.73-1.48C62.19,38.23,62.5,38.58,62.13,39.16Zm.06-11.89c-.47.24-.15.73-.32,1C55.16,23.49,47.72,24,40,25c-.21-1.39,2.82-.86,2-3,.54.63.63,1.17,1.21,1.15v0h0l0,0a1.92,1.92,0,0,1,1-2.32,3.3,3.3,0,0,1-1,2.32,0,0,0,0,0,0,0,10,10,0,0,1,3.07.34c.52.14,1.12-.47,1.06-1.25L47,21.7c-.31.23-.33.76-.82.83-.76-.23-.41-.81-.4-1.28h0c0-.23,0-.45,0-.67,0,0,.05-.07.08-.11l.13.11c.38-.24.6-.85,1.23-.54.31.59-.38,1-.2,1.59h0c.21,0,.25.09.26.21s0,.21.08.27c1.28,1.54,2,1.53,3.31-.14.19.9.57,1.71,1.62,1.43,1.4-.38,1.06-1.69,1.37-2.78-1.06.35-.47,1.67-1.57,1.92-.73-.44-.49-1.13-.22-1.74.61-1.32,1.72-.41,2.77-.59A13.52,13.52,0,0,0,54,22c-.08.43-.37,1.18.62,1h0c.4-.86-.24-2.63,2-2.17-.41,1.11-.39,2.35-2,2.17h0c-.44.57.09.64.42.73a1.28,1.28,0,0,0,1.54-.52,15.7,15.7,0,0,0,.76-1.54c3.24.5,5.87,4.45,5.73,8.68C61.68,29.61,62.78,28.22,62.19,27.27Z"/><path class="cls-6" d="M52,46.06Z"/><polygon class="cls-6" points="46.27 55.84 46.26 55.84 46.27 55.85 46.27 55.84"/><path class="cls-6" d="M56.09,42.13h0l0,0s0-.05,0-.07S56.1,42.12,56.09,42.13Z"/><path class="cls-6" d="M45.2,54.78v0h0v0Z"/><path class="cls-6" d="M44.53,52.94V53l0,0s0,0,0-.06S44.55,53,44.53,52.94Z"/><path class="cls-6" d="M44.85,54.09s0,0,0,0h0a.09.09,0,0,0,0,0Z"/><path class="cls-6" d="M52,46.07h0Z"/><path class="cls-6" d="M54.78,35.62h0Z"/><path class="cls-6" d="M54.63,44.73h0l-.08,0,.06.06S54.61,44.74,54.63,44.73Z"/><path class="cls-6" d="M43.17,34.9h0v0Z"/><path class="cls-6" d="M42.06,57.25h0a0,0,0,0,1,0,0h-.06Z"/><path class="cls-6" d="M54.81,35.6l0,0,0,0Z"/><path class="cls-6" d="M43.14,23h0a0,0,0,0,1,0,0Z"/><path class="cls-6" d="M52,46.06Z"/><path class="cls-6" d="M54.66,23h0Z"/><path class="cls-6" d="M44.53,58.29h0l0,0v.05Z"/><path class="cls-6" d="M44.18,58l0,0h0v0Z"/><path class="cls-6" d="M46.14,74.27a1.81,1.81,0,0,1,1.2-.44,2.15,2.15,0,0,1,.6.13,3,3,0,0,1,.6.33.66.66,0,0,0,.28,0l.65-.6-4,0,.3.58Z"/><path class="cls-6" d="M48.82,74.29l.65-.6-.65.6Z"/><path class="cls-6" d="M43.48,60a2.44,2.44,0,0,1,.09.89c0,.21,0,.41,0,.61a1.67,1.67,0,0,0,.24.88c0-.89.07-1.77.11-2.66l-.42-.18Z"/><path class="cls-6" d="M43.8,62.35h0a1.67,1.67,0,0,1-.24-.88A1.67,1.67,0,0,0,43.8,62.35Z"/><path class="cls-6" d="M56.72,57.07l.12.37.61-.38c0-.16,0-.33,0-.49Z"/><path class="cls-6" d="M44.38,75.77c0-.7.1-1.4.14-2.1A3.58,3.58,0,0,0,44.38,75.77Z"/><path class="cls-6" d="M44.52,73.67l0,0h0Z"/><path class="cls-6" d="M52.9,49.42h0L53,51.94a1.93,1.93,0,0,0,.21-.76c0-.13,0-.25,0-.38s0-.52-.06-.78a4.07,4.07,0,0,1,0-.78,2,2,0,0,1,.08-.33Z"/><path class="cls-6" d="M53.23,48.91h0l-.33.51h0Z"/><path class="cls-6" d="M53.15,50c0,.26.05.52.06.78C53.2,50.54,53.17,50.28,53.15,50Z"/><path class="cls-6" d="M53.24,48.86s0,0,0,0l0,0Z"/><path class="cls-6" d="M53.24,48.86h0s0,0,0,0h0S53.24,48.88,53.24,48.86Z"/><path class="cls-6" d="M48.45,31.79s0,.07,0,.1a.42.42,0,0,0,0,.19h0l1.42,0,1-.3H48.45Z"/><path class="cls-6" d="M49.91,32.1l1-.3h0Z"/><path class="cls-6" d="M48.46,31.89a.42.42,0,0,0,0,.19h0A.42.42,0,0,1,48.46,31.89Z"/><path class="cls-6" d="M47.58,43.12a.19.19,0,0,0,.09.15H49l.14-.32H47.6A.23.23,0,0,0,47.58,43.12Z"/><path class="cls-6" d="M47.58,43.12a.19.19,0,0,0,.09.15h0A.19.19,0,0,1,47.58,43.12Z"/><path class="cls-6" d="M49,43.28l.15-.32h0l-.14.32Z"/><path class="cls-6" d="M44.7,48.14l-.18.38a1,1,0,0,1,.07.15c.11.38-.11.85.32,1.12,0-.24,0-.49,0-.74Z"/><path class="cls-6" d="M44.59,48.67c.11.38-.11.85.32,1.13h0C44.48,49.52,44.7,49.05,44.59,48.67Z"/><path class="cls-6" d="M52,46.07l-1.42.27,1.31.08C51.92,46.3,52,46.19,52,46.07Z"/><path class="cls-6" d="M51.88,46.42c0-.12.08-.23.11-.35h0C52,46.19,51.92,46.3,51.88,46.42Z"/><path class="cls-6" d="M52,46.06h0Z"/><path class="cls-2" d="M52,46.07l-1.42.26h0L52,46.07Z"/><path class="cls-2" d="M50.6,46.49h0l-.05-.31,1.1-.2.32-.06.06.3Z"/><path class="cls-2" d="M51.47,26.4a.33.33,0,0,0,.21.05.73.73,0,0,0,.42-.25l-.83,0A.73.73,0,0,0,51.47,26.4Z"/><path class="cls-2" d="M51.66,26.61a.45.45,0,0,1-.27-.08h0a.78.78,0,0,1-.25-.26L51,26h.29l.84,0h.36l-.26.26a.84.84,0,0,1-.52.3Z"/><path class="cls-2" d="M52.1,26.2h0a.73.73,0,0,1-.42.25A.73.73,0,0,0,52.1,26.2Z"/><path class="cls-2" d="M51.69,26.61l0-.31h0a.66.66,0,0,0,.32-.21l0,0h.44l-.27.26A.84.84,0,0,1,51.69,26.61Z"/><path class="cls-2" d="M47.31,22.11c-.07-.06-.07-.17-.08-.27s0-.23-.26-.21l0,.07.36.43Z"/><path class="cls-2" d="M47.45,22.54l-.66-.8v-.15l0-.1H47a.36.36,0,0,1,.44.34v.05s0,.1,0,.12l.06.05Z"/><polygon class="cls-2" points="47.47 22.13 47.16 22.13 47.47 22.13 47.47 22.13"/><path class="cls-2" d="M47.31,22.13,47,21.7l.36.43Z"/><polygon class="cls-2" points="47.47 22.57 46.83 21.8 47.07 21.6 47.47 22.07 47.47 22.57"/><path class="cls-2" d="M47.23,21.84c0-.12,0-.23-.26-.21h0C47.18,21.61,47.22,21.72,47.23,21.84Z"/><path class="cls-2" d="M47.07,21.86h0a.17.17,0,0,0,0-.07H47l-.22,0,.08-.32.11,0c.27,0,.4.09.44.34h0Z"/><path class="cls-2" d="M45.81,20.47s-.08.07-.08.11c0,.22,0,.44,0,.67l.21-.67Z"/><path class="cls-2" d="M45.58,22.25V20.57a.32.32,0,0,1,.1-.18l.1-.13.15.09.2.19Z"/><path class="cls-2" d="M45.73,21.25h0c0-.23,0-.45,0-.67C45.72,20.8,45.73,21,45.73,21.25Z"/><path class="cls-2" d="M45.57,21.91V20.57h.32a3.38,3.38,0,0,0,0,.45v.2Z"/><path class="cls-2" d="M54.81,35.6l.8-.3L55,35.24Z"/><path class="cls-2" d="M54.48,35.9l.19-.37.2-.37.05-.09,1.38.13Z"/><path class="cls-2" d="M54.81,35.6l.8-.3h0l-.8.3Z"/><polygon class="cls-2" points="54.86 35.75 54.75 35.46 55.55 35.15 55.55 35.15 55.56 35.15 55.67 35.44 54.86 35.75"/><path class="cls-2" d="M54.81,35.6l0,0h0Z"/><polygon class="cls-2" points="54.88 35.78 54.73 35.77 54.3 35.66 55.14 35.28 54.88 35.78"/><path class="cls-2" d="M54.8,35.63h0v0h0Z"/><polygon class="cls-2" points="54.65 36.27 54.64 35.59 54.66 35.54 54.73 35.58 54.67 35.53 54.85 35.63 54.95 35.63 54.85 35.63 54.95 35.67 54.94 35.69 54.94 35.69 54.94 35.69 54.65 36.27"/><path class="cls-2" d="M43,48.06c.14,0,.33-.06.17-.28l-.62,0C42.57,48.14,42.83,48.07,43,48.06Z"/><path class="cls-2" d="M42.81,48.23a.43.43,0,0,1-.28-.09.42.42,0,0,1-.12-.33v-.15l.87,0,0,.07a.34.34,0,0,1,.06.35.39.39,0,0,1-.35.17h-.21Z"/><path class="cls-2" d="M43,48.06c.14,0,.33-.06.18-.28h0C43.34,48,43.15,48.05,43,48.06Z"/><path class="cls-2" d="M43,48.21l0-.31h.07v0l-.17-.25h.38l0,.07a.36.36,0,0,1,0,.35.37.37,0,0,1-.34.17Z"/><path class="cls-2" d="M43.07,34.53h0l-.89.29,1,.08C43.13,34.78,43.1,34.65,43.07,34.53Z"/><polygon class="cls-2" points="43.38 35.08 41.4 34.92 43.18 34.33 43.38 35.08"/><path class="cls-2" d="M43.19,34.9h0Z"/><polygon class="cls-2" points="43.17 35.07 43.07 35.07 43.02 34.94 42.97 34.75 43.96 34.75 43.17 35.07"/><path class="cls-2" d="M42.18,34.82l1,.08h0Z"/><polygon class="cls-2" points="43.15 35.06 42.17 34.98 42.19 34.67 43.18 34.75 43.15 35.06"/><path class="cls-2" d="M43.17,34.9h0c0-.12-.07-.25-.1-.37h0C43.1,34.65,43.13,34.78,43.17,34.9Z"/><polygon class="cls-2" points="43.02 34.94 42.92 34.57 42.92 34.57 42.92 34.57 43.22 34.49 43.32 34.86 43.32 34.86 43.02 34.94"/><polygon class="cls-2" points="43.17 34.9 43.17 34.9 43.17 34.9 43.17 34.9 43.17 34.9"/><path class="cls-2" d="M43.17,35.06A.16.16,0,0,1,43,34.9a.16.16,0,0,1,.16-.15.15.15,0,0,1,.15.15A.16.16,0,0,1,43.17,35.06Z"/><path class="cls-2" d="M48.54,74.29a3,3,0,0,0-.6-.33,2.15,2.15,0,0,0-.6-.13,1.81,1.81,0,0,0-1.2.44Z"/><path class="cls-2" d="M49,74.45h-.5l-2.38,0h-.45l.33-.28a1.9,1.9,0,0,1,1.31-.46,1.73,1.73,0,0,1,.65.14,2.78,2.78,0,0,1,.63.34Zm-2.35-.34,1.24,0,0,0a1.88,1.88,0,0,0-.55-.12A1.63,1.63,0,0,0,46.69,74.11Z"/><path class="cls-2" d="M47.34,73.83a2.15,2.15,0,0,1,.6.13A2.15,2.15,0,0,0,47.34,73.83Z"/><path class="cls-2" d="M47.89,74.11a1.88,1.88,0,0,0-.55-.12v-.31a1.73,1.73,0,0,1,.65.14Z"/><path class="cls-2" d="M47.1,75.52c-.6-.34-1.05,0-1.08.73a1.14,1.14,0,1,0,2.26.28C48.4,75.88,48,75.44,47.1,75.52Z"/><path class="cls-2" d="M47.19,77.74h-.11a1.29,1.29,0,0,1-1.22-1.49,1,1,0,0,1,.47-.91.82.82,0,0,1,.8,0,1.3,1.3,0,0,1,1.11.33,1,1,0,0,1,.19.86A1.31,1.31,0,0,1,47.19,77.74Zm-.51-2.18a.48.48,0,0,0-.2,0,.8.8,0,0,0-.31.65,1,1,0,0,0,.93,1.17,1,1,0,0,0,1-.92.71.71,0,0,0-.13-.6,1,1,0,0,0-.89-.22h0l0,0A.79.79,0,0,0,46.68,75.56Z"/><path class="cls-2" d="M48.06,88.35c.17-1.86-1.28-.64-2.05-1.19-.18,1-.21,1.71.4,2l1.21,0A1.16,1.16,0,0,0,48.06,88.35Z"/><path class="cls-2" d="M47.67,89.39l-1.34,0c-.74-.42-.64-1.33-.48-2.22l0-.24.2.14a1.32,1.32,0,0,0,.91.1,1.2,1.2,0,0,1,1,.18,1.27,1.27,0,0,1,.22,1.06h0a1.34,1.34,0,0,1-.51,1Zm-1.22-.34,1.11,0a1,1,0,0,0,.35-.73,1.13,1.13,0,0,0-.13-.81c-.15-.14-.44-.11-.74-.08a2,2,0,0,1-.91,0C46,88.24,46,88.78,46.45,89.05Z"/><path class="cls-2" d="M50.6,53a18.87,18.87,0,0,1-.46-3.59c-.09-.73-.21-1.78-1.48-1.69s-1.08,1-1.11,1.76A19,19,0,0,0,48.32,55l0,.1a0,0,0,0,1,0,0c.85.08,1,.9,1.41,1.41a2,2,0,0,0,2.7.94c.25-.65-.49-1.06-.28-1.64v0a.07.07,0,0,1,0,0c-.62-.05-.6-.54-.66-1l0,0v-.06a.87.87,0,0,1-.32-1l0,0v0C50.72,53.67,50.69,53.28,50.6,53Zm.84,3.84a6.33,6.33,0,0,1-2.59-3.45,13.18,13.18,0,0,1-.63-4.09c0-.34.07-.74.5-.79s.63.25.6.65A12.22,12.22,0,0,0,51.44,56.83Z"/><path class="cls-2" d="M51.58,57.87a2.38,2.38,0,0,1-1.92-1.2c-.09-.13-.17-.28-.25-.42-.25-.45-.48-.87-1-.92h-.12l0-.12,0,0,0-.08a19.22,19.22,0,0,1-.78-5.61,2.26,2.26,0,0,0,0-.26c0-.7,0-1.57,1.25-1.66,1.41-.09,1.55,1.1,1.64,1.81.05.41.08.8.1,1.18a10.88,10.88,0,0,0,.36,2.4h0c0,.05,0,.11,0,.16.07.28.12.44.36.47h.11l0,.1.06,0,0,.07c-.06.36,0,.64.24.83l.08,0v0h0v.09a1,1,0,0,1,0,.17c0,.42.1.64.5.68h.11l0,.11,0,.06,0,.09a.83.83,0,0,0,.13.65,1.17,1.17,0,0,1,.15,1l0,.06-.06,0A2.71,2.71,0,0,1,51.58,57.87ZM48.49,55c.66.1.94.61,1.19,1.07q.12.21.24.39a1.89,1.89,0,0,0,2.45.91,1,1,0,0,0-.16-.68A1.26,1.26,0,0,1,52,56c-.54-.12-.6-.59-.64-.94a.13.13,0,0,0,0-.06l-.08,0,0-.1a1,1,0,0,1-.33-1c-.36-.11-.44-.43-.51-.68a.57.57,0,0,0,0-.14h0a11.19,11.19,0,0,1-.37-2.48c0-.37,0-.76-.1-1.14-.1-.86-.27-1.56-1.17-1.56h-.14c-.94.07-1,.64-1,1.35v.27a18.41,18.41,0,0,0,.76,5.5Zm3.69.81Zm-.26,1.43-.55-.3a6.38,6.38,0,0,1-2.65-3.5,9.05,9.05,0,0,1-.58-3.17c0-.33,0-.66-.08-1-.05-.53.2-.9.64-.95a.64.64,0,0,1,.56.16.78.78,0,0,1,.22.65,12,12,0,0,0,2.09,7.58Zm-3.11-8.62h-.07c-.38,0-.38.44-.36.61,0,.34,0,.68.07,1a9,9,0,0,0,.55,3,7.3,7.3,0,0,0,1.92,3,12.14,12.14,0,0,1-1.75-7.16.52.52,0,0,0-.12-.4A.32.32,0,0,0,48.81,48.65Z"/><path class="cls-2" d="M51.17,53.78a.08.08,0,0,0,0,0l0,0v0Z"/><polygon class="cls-2" points="51.28 54.08 50.99 53.83 50.99 53.78 50.95 53.56 51.4 53.6 51.33 53.81 51.28 54.08"/><path class="cls-2" d="M51.53,54.84a.43.43,0,0,0,0-.05l0,0v.06Z"/><polygon class="cls-2" points="51.71 55.02 51.3 54.93 51.33 54.75 51.34 54.46 51.69 54.7 51.68 54.76 51.71 55.02"/><path class="cls-2" d="M52.21,55.88s0,0,0-.05l0,0a.07.07,0,0,0,0,0Z"/><polygon class="cls-2" points="52.26 56.22 52.08 55.97 52.15 55.91 52.07 55.96 52.04 55.9 51.98 55.64 52.49 55.69 52.36 55.93 52.26 56.22"/><path class="cls-2" d="M46,48.31c.06.14.23.35.21.54-.33,3.13.9,5.86,2.22,8.56.27.56.38,1.49,1.41.6-.35-1-1.27-1.74-1.44-2.84h0l0-.12a9.58,9.58,0,0,1-1.25-5.79,1.45,1.45,0,0,0-.79-1.6c-.61-.25-1.25-.31-1.58.49l.19.91C45.21,48.78,45.21,48.11,46,48.31Z"/><path class="cls-2" d="M49.12,58.54l-.13,0c-.33-.08-.48-.44-.61-.76a2.33,2.33,0,0,0-.11-.28C46.85,54.59,45.71,52,46,48.83c0-.08-.07-.2-.12-.3l-.05-.08c-.36-.07-.46.1-.61.36a1.36,1.36,0,0,1-.27.36l-.2.17-.26-1.21,0-.05c.31-.74.91-.93,1.79-.58.64.26.93.83.88,1.76A9.52,9.52,0,0,0,48.45,55l0,.07h.08l0,.11a3.86,3.86,0,0,0,.76,1.58A6,6,0,0,1,50,58l0,.1-.08.07A1.34,1.34,0,0,1,49.12,58.54Zm-3.4-10.42a1.13,1.13,0,0,1,.3,0l.07,0,0,.07s0,.08.07.12a.85.85,0,0,1,.16.5c-.32,3,.81,5.63,2.2,8.47a2.71,2.71,0,0,1,.13.3c.1.26.21.53.38.57s.33-.05.58-.25A5.61,5.61,0,0,0,49,56.91a4.81,4.81,0,0,1-.78-1.59h0l-.06-.21a9.77,9.77,0,0,1-1.26-5.87c0-.78-.18-1.24-.69-1.44-.7-.29-1.12-.18-1.36.36l.11.52,0,0A.81.81,0,0,1,45.72,48.12Z"/><path class="cls-2" d="M48.38,55.17a0,0,0,0,0,0,0l0-.1,0,.12Z"/><polygon class="cls-2" points="48.37 55.33 48.23 55.32 47.92 54.11 48.53 55.12 48.56 55.32 48.37 55.33"/><path class="cls-2" d="M46.9,56.59l.05,0c-.06-.39-.11-.79-.68-.7C46.29,56.26,46.31,56.67,46.9,56.59Z"/><path class="cls-2" d="M46.76,56.75a.62.62,0,0,1-.4-.12,1,1,0,0,1-.25-.77v-.14l.14,0a.71.71,0,0,1,.54.1,1.05,1.05,0,0,1,.32.73v.1l-.19.12ZM46.44,56a.54.54,0,0,0,.12.39.28.28,0,0,0,.2.06h0a.65.65,0,0,0-.16-.4A.29.29,0,0,0,46.44,56Z"/><polygon class="cls-2" points="46.27 55.85 46.27 55.84 46.27 55.85 46.27 55.85"/><path class="cls-2" d="M46.27,56H46l.45-.68V56Zm-.16-.16h0Z"/><path class="cls-2" d="M47.37,57.46s.06.13.08.13a.86.86,0,0,0,.25-.07c-.06-.09-.11-.18-.16-.27A1.12,1.12,0,0,0,47.37,57.46Z"/><path class="cls-2" d="M47.45,57.75a.21.21,0,0,1-.17-.11.25.25,0,0,1-.05-.25h0a1.33,1.33,0,0,1,.14-.19l.19-.22.37.64-.25.08-.22,0Z"/><path class="cls-2" d="M47.07,56.91l.13-.08L47,56.55l0,0Z"/><path class="cls-2" d="M47,57.13l-.1-.2c0-.1-.09-.19-.13-.27l.13-.09-.07-.12.15-.1.47.52Z"/><path class="cls-2" d="M47,89.39a.9.9,0,0,0,.66-.16l-1.21,0A1.77,1.77,0,0,0,47,89.39Z"/><path class="cls-2" d="M47.1,89.56l-.16,0h0a1.74,1.74,0,0,1-.61-.19L45.78,89l2.32,0-.39.28A1.06,1.06,0,0,1,47.1,89.56Z"/><path class="cls-4" d="M50,11.74A38.26,38.26,0,1,1,11.74,50,38.3,38.3,0,0,1,50,11.74M50,9A41,41,0,1,0,91,50,41,41,0,0,0,50,9Z"/></g></g></svg>