<svg xmlns="http://www.w3.org/2000/svg" viewBox="0 0 300 100"><defs><style>.cls-1{isolation:isolate;}.cls-2,.cls-6{fill:#3953a4;}.cls-3{opacity:0.2;mix-blend-mode:multiply;}.cls-4{fill:#fff;}.cls-5{fill:none;}.cls-6{stroke:#3953a4;stroke-miterlimit:10;stroke-width:0.23px;}</style></defs><title>NOVIS Logo</title><g class="cls-1"><g id="Layer_1" data-name="Layer 1"><rect class="cls-2" width="300" height="100"/><g class="cls-3"><path d="M43.45,53.46V81.38H27.85V24.58H40l22.8,28.88V24.58h15.6v56.8H66Z"/></g><path class="cls-4" d="M41.45,50.46V78.38H25.85V21.58H38l22.8,28.88V21.58h15.6v56.8H64Z"/><g class="cls-3"><circle cx="116.7" cy="53.08" r="29.57"/></g><circle class="cls-4" cx="114.7" cy="50.08" r="29.57"/><path class="cls-5" d="M122.32,40.1a1.83,1.83,0,0,0,.26.21c0-.06.12-.15.1-.18a1.52,1.52,0,0,0-.25-.26C122.38,40,122.3,40.07,122.32,40.1Z"/><path class="cls-5" d="M120.1,36.4c-1.32-1-2.9-1-4.45-1A36.71,36.71,0,0,1,120.1,36.4Z"/><path class="cls-5" d="M113,62.19c.63.15.69-.41.76-.89a2.21,2.21,0,0,0-1.27-.5C112.64,61.38,112.25,62,113,62.19Z"/><path class="cls-5" d="M116.76,37.64c.85.22,1.56.4,2.27.6.42.12.42-.16.47-.42C118.62,38,117.81,37.28,116.76,37.64Z"/><path class="cls-5" d="M123.2,36.34c0-.24,0-.39-.23-.42a.23.23,0,0,0-.29.28c0,.12.19.23.32.3S123.16,36.38,123.2,36.34Z"/><path class="cls-5" d="M111.05,37.27c.12.56.25,1-.14,1.49A.8.8,0,0,0,111,40a1,1,0,0,0,1.23-1.47c-.16-.17-.47-.24-.4-.59a6.6,6.6,0,0,1,2.42-.43c.25,0,.69.07.34-.43l-1,0A9.25,9.25,0,0,1,111.05,37.27Z"/><path class="cls-5" d="M120.13,34.47s.06,0,.09-.06l-.08-.08-.09.07S120.1,34.47,120.13,34.47Z"/><path class="cls-5" d="M120.69,34.71l0-.09,0,.06Z"/><path class="cls-5" d="M113.29,34.3c0,.8.91.45,1.4.48a33.1,33.1,0,0,1,4,.39c1.46.24,2.44,1.33,3.82,2.07,0-.32,0-.43-.07-.47a5.27,5.27,0,0,0-.56-.5A11.21,11.21,0,0,0,114.64,34C114.18,34,113.3,33.54,113.29,34.3Z"/><path class="cls-5" d="M119.7,34.09a7,7,0,0,0-4-.71C117.06,33.47,118.36,33.91,119.7,34.09Z"/><path class="cls-5" d="M122.65,38.18c.16.06.29,0,.33-.26,0-.06-.13-.24-.15-.23a1.83,1.83,0,0,0-.38.23C122.52,38,122.56,38.15,122.65,38.18Z"/><path class="cls-5" d="M117.91,41.78a1.25,1.25,0,0,0-1.17-.06C117.12,41.66,117.48,42.05,117.91,41.78Z"/><path class="cls-5" d="M111,42.77c1.82.1,3.66,0,5.49.22s3.42,1.2,5.12,2.31a1.32,1.32,0,0,0-.71-1.29,13.75,13.75,0,0,0-3.66-1.6c-1.88-.53-3.82-.17-5.7-.57C111,41.73,110.92,42.21,111,42.77Z"/><path class="cls-5" d="M120,38.39l-.08.09.47.24,0-.06Z"/><path class="cls-5" d="M113.45,32.29c.6.72,1.43.29,2.09.49h.6A10.19,10.19,0,0,1,122.48,35C121.06,33,115.88,31.49,113.45,32.29Z"/><path class="cls-5" d="M119,44.31l-.52-.17C118.6,44.46,118.78,44.49,119,44.31Z"/><path class="cls-5" d="M113,36.41c0,.35.31.34.53.42,0,0,0,.05,0,.07s0,0,0-.07h1.76a21,21,0,0,1,2.75.25c.51.11,1.24,0,1.49.72.57-.27.85.25,1.26.45s.83.78,1.58.76a2.57,2.57,0,0,0-.39-.64c-2.47-2.08-5.43-2.44-8.5-2.4C113.19,36,113,36.07,113,36.41Z"/><path class="cls-5" d="M119.3,44.5l-.23-.17C119.1,44.45,119.05,44.64,119.3,44.5Z"/><path class="cls-5" d="M113.14,60.44c.35.1.53-.09.57-.62-.28,0-.57-.23-.76.12A.35.35,0,0,0,113.14,60.44Z"/><path class="cls-5" d="M113.22,39.55a29.38,29.38,0,0,1,5.67.67c-.44-.33-.63-.47-.81-.62l-4.82-.44Z"/><path class="cls-5" d="M113.2,74.3c-.55-.32-.87-.38-1.21,0C112.34,74.79,112.66,74.71,113.2,74.3Z"/><path class="cls-5" d="M109.59,60.36c-.36,1.24-.51,2.46.46,3.52A7.66,7.66,0,0,1,109.59,60.36Z"/><path class="cls-5" d="M122,41.12c-.9-2.27-6-3.49-8.86-3,.35.61.91.65,1.51.67a11.07,11.07,0,0,1,3.57.52l-.14.27h0c.05-.09.09-.18.14-.26l.44,0h0C119.94,39.57,120.85,40.48,122,41.12Z"/><path class="cls-5" d="M115.7,53.44a.79.79,0,0,0-.23-.71A.64.64,0,0,0,115.7,53.44Z"/><path class="cls-5" d="M115.84,33a.17.17,0,0,1-.15,0A.17.17,0,0,0,115.84,33Z"/><path class="cls-5" d="M116.57,43.72a7.24,7.24,0,0,0,1.89.4A2,2,0,0,0,116.57,43.72Z"/><path class="cls-5" d="M120,54.75a10.68,10.68,0,0,0,1.6-4.68c-1.89-1-3.55-2.3-5.64-2.66l-1-.06h-7.66a8.16,8.16,0,0,1,1.8-.44c.64-.08,1.29-.07,2-.1-.12-.67-.32-.92-.82-.49-.16.14-.11.33-.49.1-1.49-.86-3.91.22-4.5,2a1.64,1.64,0,0,1,1.2.64c.47-.34.78-.89,1.37-.53a1,1,0,0,1,.52,1.06,4.91,4.91,0,0,0,.29,2.84,11.6,11.6,0,0,1-.17-3.22.73.73,0,0,1,.68-.78l.44,0h0c.58-.28.43.76,1,.54,0-.09.08-.18.13-.27.24-.58.7-.54,1.15-.36a1.05,1.05,0,0,1,.56,1.16,7,7,0,0,0,.91,4.19,13.77,13.77,0,0,1-.56-4c0-.58-.08-1.21.8-1.28s1,.7,1.07,1.23a14.14,14.14,0,0,0,.34,2.59c.06.21.08.49.39.53a9.36,9.36,0,0,1-.25-3c0-.48,0-.93.62-1s1-.14,1.15.55a.33.33,0,0,1,.26.36c-.24,2.26,1.08,3.88,2.25,5.57l.09.27a2.76,2.76,0,0,1-.08-.27Z"/><path class="cls-5" d="M116.9,49.45a1.05,1.05,0,0,1,.06-.24h0A1.05,1.05,0,0,0,116.9,49.45Z"/><path class="cls-5" d="M116.2,54.2c-.07-.29-.1-.61-.47-.7C115.77,53.81,115.75,54.16,116.2,54.2Z"/><path class="cls-5" d="M116.42,55.44a1.49,1.49,0,0,1-2-.68c-.26-.37-.4-1-1-1,.13.79.79,1.33,1,2-.75.65-.83,0-1-.43-1-2-1.84-3.93-1.6-6.19,0-.14-.11-.29-.16-.39-.55-.15-.55.34-.78.54,0,.18,0,.36,0,.53h0c.06,1.52.76,2.89,1,4.37h0c.4-.07.44.22.49.51l.18.2-.1.06c0-.08-.07-.16-.12-.24l0,0,0,0c-.43.06-.44-.23-.45-.53h0c-.41-.07-.3-.69-.74-.73l.47,1.51c-1.64-1.81-1.88-3.89-2-6a4.51,4.51,0,0,0-.08,3.51c.67,1.72,1.13,3.73,3.51,3.92a17,17,0,0,0,4.4-.51l-1.24-1.64C116.07,54.67,116.6,55,116.42,55.44Zm-3.64.05s-.07-.07-.06-.09a1,1,0,0,1,.12-.16l.12.2A.61.61,0,0,1,112.78,55.49Z"/><path class="cls-5" d="M110.91,53c0,.17,0,.39.25.46C111.19,53.24,111.24,53,110.91,53Z"/><path class="cls-5" d="M121.24,49a3.21,3.21,0,0,0-.37-.55c-2.56-2.15-5.67-2.24-8.78-2.32-.47,0-.37.38-.45.67,1.54.29,3-.24,4.43.35C118,46.92,119.39,48.25,121.24,49Z"/><path class="cls-5" d="M110.69,52.21c0,.27-.06.55.21.74A.68.68,0,0,0,110.69,52.21Z"/><path class="cls-5" d="M110.67,52.13c0-.44-.08-.88-.11-1.32A1.35,1.35,0,0,0,110.67,52.13Z"/><path class="cls-5" d="M116.07,49.14a6.21,6.21,0,0,0,1.71,6c.46-.23.53-.5.24-1a8.52,8.52,0,0,1-1.23-2.73c0-.61-.05-1.22-.07-1.82C116.5,49.43,116.49,49,116.07,49.14Z"/><path class="cls-5" d="M114.13,49.39c0-.3-.13-.51-.44-.47s-.38.32-.36.57a9.94,9.94,0,0,0,.46,3,4.58,4.58,0,0,0,1.87,2.49A8.82,8.82,0,0,1,114.13,49.39Z"/><path class="cls-5" d="M111.53,34.13c.76.73.76.73,1.07-.28-1.69.31-3.44-.15-5.15,1.09,1.34.24,2.42-.43,3.7.09-1.6.62-3.37-.05-4.44,1.42,1.5-.89,3.19-.92,4.92-1.07A1.1,1.1,0,0,1,111.53,34.13Z"/><path class="cls-5" d="M107.41,33.79l3.73-.43c-.84-.16-1.65.16-2.48-.14.86-.65,2-.22,3-.82C109.09,32,107.48,32.55,107.41,33.79Z"/><path class="cls-5" d="M113.12,33.47,112,33.08C112.15,33.57,112.52,33.38,113.12,33.47Z"/><path class="cls-5" d="M112.9,32.47c0-.23-.13-.4-.39-.34a1,1,0,0,0-.3.13c0,.45.18.5.35.49S112.9,32.68,112.9,32.47Z"/><path class="cls-5" d="M116.94,50.58a1.22,1.22,0,0,1,0,.27A1.22,1.22,0,0,0,116.94,50.58Z"/><path class="cls-5" d="M110.37,55.76a1.34,1.34,0,0,0-.62-1.26c-1.57-1-1.81-2.55-2-4.18,0-.34.21-.8-.31-1.06a6.44,6.44,0,0,0,1,4.85c.21.33.65.61.46,1.12C109.51,55.12,109.76,56,110.37,55.76Z"/><path class="cls-5" d="M110.42,55.77l.23.21C110.66,55.8,110.57,55.75,110.42,55.77Z"/><path class="cls-5" d="M110.9,56.15s0-.09,0-.1-.16-.15-.26,0S110.77,56.18,110.9,56.15Z"/><path class="cls-5" d="M108.62,55.61c.5.2.11-.29.26-.37-.57,0-.82-.77-1.54-.76A3.46,3.46,0,0,0,108.62,55.61Z"/><path class="cls-5" d="M114.65,28.13c-1.29.37-1.07,1.16-.78,2C114.14,29.49,114.68,29,114.65,28.13Z"/><path class="cls-5" d="M107.33,54.11s0-.06-.07-.09-.08,0-.08.08,0,.07.08.11S107.33,54.15,107.33,54.11Z"/><path class="cls-5" d="M108.32,29.86c-.21.18-.46.28-.32.65C108.35,30.41,108.48,30.25,108.32,29.86Z"/><path class="cls-5" d="M121.65,48.27c.15-.13.17-.26,0-.4C121.45,48,121.55,48.13,121.65,48.27Z"/><path class="cls-5" d="M112.53,40.73c3.44.1,6.7.08,9.32,2.44C120.86,40.93,114.93,39.37,112.53,40.73Z"/><path class="cls-5" d="M122.44,49.86c.19-.29.11-.55-.1-1C122.27,49.3,122.15,49.58,122.44,49.86Z"/><path class="cls-5" d="M112.34,44.1c-.42,0-.57.27-.44.69l1,.12a.15.15,0,0,0,0,.11.15.15,0,0,1,0-.11H114a12.54,12.54,0,0,1,7.44,2.23,1,1,0,0,0-.26-.66C118.61,44.34,115.54,44,112.34,44.1Z"/><path class="cls-5" d="M122,44l.2.11a.59.59,0,0,0,0-.22c0-.05-.11-.07-.17-.1Z"/><path class="cls-5" d="M118.76,46.51a.9.9,0,0,0,.21.08s0-.05.08-.08a.9.9,0,0,0-.21-.08S118.79,46.48,118.76,46.51Z"/><path class="cls-5" d="M117,62.74c.19.08.18-.08.21-.19l-.1-.19a1.25,1.25,0,0,0-.23.23A.25.25,0,0,0,117,62.74Z"/><path class="cls-5" d="M116.62,60.08c-.49,1.07-.49,1.07-.14,1.86C116.94,61.38,116.79,60.84,116.62,60.08Z"/><path class="cls-5" d="M122.73,48c.1-.26.09-.48-.23-.93C122.41,47.53,122.35,47.79,122.73,48Z"/><path class="cls-5" d="M118.4,46.19c-.16-.06-.3-.13-.43,0C118.1,46.32,118.24,46.45,118.4,46.19Z"/><path class="cls-5" d="M112.94,45.13c-.17.15-.53-.07-.63.45a22.69,22.69,0,0,1,5.59.59c-.29-.4-.75-.4-1.17-.51a12.86,12.86,0,0,1-2.82-.52h-1Z"/><path class="cls-5" d="M112.43,29.49c-.13-.41.37-.73.15-1.16-.46-.22-.62.22-.89.4,0,.16-.11.32-.16.48h0c0,.34-.25.76.3.92.35,0,.36-.43.59-.59v-.05Z"/><path class="cls-5" d="M110,58.29c0-.14,0-.29,0-.43C110,58,110,58.15,110,58.29Z"/><path class="cls-5" d="M111.74,76.87c.56.4,1.6-.48,1.48.86a.85.85,0,0,1-.32.64l1.22,0c0-3.39.06-6.79.1-10.18a.57.57,0,0,0-.45-.65h0a.45.45,0,0,1-.2,0l-1.74,0a1.31,1.31,0,0,1,.87-.32,1.31,1.31,0,0,0-.87.32l-.26,0c-.39.07-.73.19-.7.7a17.72,17.72,0,0,0,.12,3.09c.47,0,.81,0,.86-.53s.54-.42.88-.43.64.28.54.39c-.44.48-.23,1.39-1,1.6.18.25.17.65.58.71.25-.35,0-1,.57-1.12.74,2.72.25,4.16-1.57,4.32.11-.59-.4-1-.44-1.56,0-.32.07-.75-.46-.72s-.45.54-.43.87c.07,1.14.27,2.28.23,3.48l1.32,0C111.58,78.11,111.61,77.57,111.74,76.87Zm.78-6.93a.83.83,0,0,1-.78-1c0-.49.35-.77.78-.52.66-.06,1,.26.86.72A.82.82,0,0,1,112.52,69.94Z"/><path class="cls-5" d="M119.94,29.54a11.45,11.45,0,0,1-.55,1.11.91.91,0,0,1-1.11.37c-.24-.06-.63-.11-.31-.52-.72.14-.5-.41-.45-.72a10.38,10.38,0,0,1,.42-1.32c-.76.13-1.56-.53-2,.43-.2.44-.37.94.16,1.25.79-.18.37-1.13,1.13-1.39-.22.8,0,1.74-1,2-.76.21-1-.38-1.17-1-.91,1.21-1.46,1.22-2.39.1-.05,0-.05-.12-.06-.19s0,.15.06.19v0h0c0,.56-.39,1-.77.9a7,7,0,0,0-2.22-.24v0c-.42,0-.48-.38-.88-.83.61,1.58-1.58,1.19-1.43,2.2,5.59-.67,11-1.07,15.83,2.41.12-.22-.11-.57.22-.75.44.69-.36,1.7.65,2.25C124.18,32.75,122.28,29.9,119.94,29.54Z"/><path class="cls-5" d="M122.94,45.81c.08-.2.11-.36-.08-.52A.35.35,0,0,0,122.94,45.81Z"/><path class="cls-5" d="M119.41,28.92c-1.59-.33-1.13.95-1.42,1.57C119.13,30.62,119.11,29.73,119.41,28.92Z"/><path class="cls-5" d="M109.68,30.48a2.35,2.35,0,0,0,.7-1.67A1.38,1.38,0,0,0,109.68,30.48Z"/><path class="cls-5" d="M122.87,41.09c.29.5-.19,1,.52,1.07C123.66,41.75,123.44,41.49,122.87,41.09Z"/><path class="cls-5" d="M118.1,60.7c0-.29.08-.6.13-.91a1.47,1.47,0,0,0-1.14.5A.8.8,0,0,0,118.1,60.7Z"/><path class="cls-5" d="M106.15,43.26c-.11.13,0,.45,0,.8,2.32-.73,4.72-.46,7-.8C110.9,42.74,108.58,43.75,106.15,43.26Z"/><path class="cls-5" d="M117.26,77.09a3.58,3.58,0,0,1-.22,1.35l1.11,0a55.85,55.85,0,0,0-.83-7.4C117.24,73.07,117.2,75.08,117.26,77.09Z"/><path class="cls-5" d="M111,72c.1.47-.24,1,.4,1.2s.43-.64.77-.86C112,71.63,111.54,72,111,72Z"/><path class="cls-5" d="M107.38,39.67a7.89,7.89,0,0,1,2.33-.1c.26,0,.42-.07.31-.34,0-.08-.21-.09-.33-.14C109.13,39.8,108.24,39.1,107.38,39.67Z"/><path class="cls-5" d="M106.93,38l.94-.36C107.48,37.59,107.16,37.57,106.93,38Z"/><path class="cls-5" d="M116.26,62.92a1.24,1.24,0,0,0,.87,1.44A1.3,1.3,0,0,0,116.26,62.92Z"/><path class="cls-5" d="M110.44,41.29a7.05,7.05,0,0,0,2.13-.06C112.09,41.18,111.3,40.31,110.44,41.29Z"/><path class="cls-5" d="M110.07,38.08c-2.12,0-2.43.12-2.59,1H109l.64-.22C109.67,38.51,110.31,38.57,110.07,38.08Z"/><path class="cls-5" d="M108.45,37.4c.31.17.49.16.7,0Z"/><path class="cls-5" d="M112.4,36.13a5.66,5.66,0,0,0-4.6.85c1-.07,2.26.21,2.67-.27C111.09,36,112.13,37.34,112.4,36.13Z"/><path class="cls-5" d="M107.36,44.46c-.78.15-1.49.39-1.52,1.53,1.56-.39,3-.33,4.49-.6-.73-.31-1.5,0-2.38-.45l3.43-.16C111,44,110.14,43.92,107.36,44.46Z"/><path class="cls-5" d="M107.21,42.35c-.22.08-.4.13-.31.41,0,.11.15.3.18.29,1-.32,2.19,0,3.11-.73A5.48,5.48,0,0,0,107.21,42.35Z"/><path class="cls-5" d="M107.37,41.27c.8-.56,1.71-.37,2.6-.65-1.39-.8-2.83-.58-4,1.85a6.44,6.44,0,0,1,3.58-1C108.76,41.13,108.06,41.57,107.37,41.27Z"/><path class="cls-6" d="M113.77,67.56h0a.57.57,0,0,1,.45.65c0,3.39-.06,6.79-.1,10.18h.58c.07-3.46.35-6.92.23-10.39,0-.46,0-1-.69-.88l-.47.43Z"/><path class="cls-6" d="M112.2,72.35h0s0,0,0,0S112.21,72.34,112.2,72.35Z"/><polygon class="cls-6" points="110.67 67.09 110.67 67.09 110.67 67.09 110.67 67.09"/><path class="cls-6" d="M110,58.29c0-.14,0-.29,0-.43a1.78,1.78,0,0,0-.06-.65,23.55,23.55,0,0,1-.76,3c-.82,2.13-.13,3.91,1.64,4.68-1.53.74-.53,1.86-.58,2.86-.16,3.52.09,7.06-.33,10.56l.83,0c0-1.2-.16-2.34-.23-3.48,0-.33-.18-.83.43-.87s.43.4.46.72c0,.56.55,1,.44,1.56,1.82-.16,2.31-1.6,1.57-4.32-.6.16-.32.77-.57,1.12-.41-.06-.4-.46-.58-.71h0c-.34.22-.06,1.06-.77.86s-.3-.73-.4-1.2c.51,0,1-.38,1.17.34,0,0,0,0,0,0s0,0,0,0c.81-.21.6-1.12,1-1.6.1-.11-.27-.4-.54-.39s-.83-.13-.88.43-.39.56-.86.53a17.72,17.72,0,0,1-.12-3.09c0-.51.31-.63.7-.7l-.22-.42-.68,0h0s0,0,0,0c0,.51-.07,1-.1,1.52a2.55,2.55,0,0,1,.1-1.52v0h0c-.51-1.22-.17-1.8,1.14-1.76a15.47,15.47,0,0,1,4,.24c-1.8-2.1-1.13-4.26-1-6.3a8.4,8.4,0,0,0-2.76-.11c-.32,0-.59.12-.63.49a7,7,0,0,0,.15,3.78c.48-.21.19-.8.58-1,.52.69,1.18.39,1.84.24a6.94,6.94,0,0,1,0,2.18h-1.2c-1.62,0-2.29-.54-2.43-2.12-.12-1.25-.09-2.51-.13-3.76h0A1.24,1.24,0,0,1,110,58.29Zm-.37,2.07a7.66,7.66,0,0,0,.46,3.52C109.08,62.82,109.23,61.6,109.59,60.36ZM113.2,74.3c-.54.41-.86.49-1.21,0C112.33,73.92,112.65,74,113.2,74.3ZM113,59.94c.19-.35.48-.13.76-.12,0,.53-.22.72-.57.62A.35.35,0,0,1,113,59.94Zm0,2.25c-.71-.17-.32-.81-.51-1.39a2.21,2.21,0,0,1,1.27.5C113.65,61.78,113.59,62.34,113,62.19Z"/><path class="cls-6" d="M118.23,59.79h0l0,0h0Z"/><path class="cls-6" d="M117.26,77.09c-.06-2,0-4,.06-6a55.85,55.85,0,0,1,.83,7.4h.38a55.77,55.77,0,0,0-.55-6c-.31-2.21-.16-4.5-1-6.63a.81.81,0,0,1,.45-1.15C119,64,119,62.74,119,61.34c0-1.71-.1-3.46,1.9-4.33-1,0-1.78.26-2,1.39-.09.51-.07,1.1-.69,1.36l0,0h0c0,.31-.09.62-.13.91a.8.8,0,0,1-1-.41,1.47,1.47,0,0,1,1.14-.5v0h0c-.47-1-.65-1.08-1.32-.39-.46.09-.28-.63-.82-.52a6.6,6.6,0,0,0-.24,4.72,4.91,4.91,0,0,1,.49,2.65,7.2,7.2,0,0,0-4.82-.29c1.39.35,2.84-.05,4.22.55a1.29,1.29,0,0,1,.93,1.39c-.05,2.51-.08,5,0,7.54a8.56,8.56,0,0,1-.3,3H117A3.58,3.58,0,0,0,117.26,77.09Zm-.16-14.73.1.19c0,.11,0,.27-.21.19a.25.25,0,0,1-.12-.15A1.25,1.25,0,0,1,117.1,62.36Zm-.48-2.28c.17.76.32,1.3-.14,1.86C116.13,61.15,116.13,61.15,116.62,60.08Zm-.36,2.84a1.3,1.3,0,0,1,.87,1.44A1.24,1.24,0,0,1,116.26,62.92Z"/><polygon class="cls-6" points="119.5 37.82 119.5 37.82 119.5 37.81 119.5 37.81 119.5 37.82"/><path class="cls-6" d="M117,49.21v0Z"/><path class="cls-6" d="M118.46,44.12h.05s0,0,0,0Z"/><polygon class="cls-6" points="116.97 49.19 116.97 49.18 116.97 49.18 116.97 49.19"/><path class="cls-6" d="M115.79,27.45a24,24,0,0,0-5.65.64,4.46,4.46,0,0,0-3.29,3.27c-.39,2.77-.64,5.56-1,8.33s-.77,5.79-1.08,8.7A8.64,8.64,0,0,0,106.19,54c.89,1.44,2.38,2,3.72,2.86l.31.12c.08-.29.2-.55.59-.41a11.52,11.52,0,0,0,5.35.16.67.67,0,0,1,.23.11c.17.26-.13.72.43,1-.11-1.28.58-1.76,1.63-2a1.69,1.69,0,0,0,1.12-.53l-.09-.27c-1.17-1.69-2.49-3.31-2.25-5.57a.33.33,0,0,0-.26-.36h0v0a1.05,1.05,0,0,0-.06.24,2.62,2.62,0,0,0,0,.56c0,.19,0,.38,0,.57a1.22,1.22,0,0,1,0,.27,1.56,1.56,0,0,1-.15.55A8.52,8.52,0,0,0,118,54.13c.29.49.22.76-.24,1a6.21,6.21,0,0,1-1.71-6c.42-.16.43.29.65.44h0l.24-.36a0,0,0,0,1,0,0h0c-.14-.69-.64-.63-1.15-.55s-.57.55-.62,1a9.36,9.36,0,0,0,.25,3h0v0a.79.79,0,0,1,.23.71l0,0v0c.37.09.4.41.47.7h0s0,0,0,0l1.24,1.64a17,17,0,0,1-4.4.51c-2.38-.19-2.84-2.2-3.51-3.92a4.51,4.51,0,0,1,.08-3.51c.14,2.14.38,4.22,2,6l-.47-1.51h0v0c-.24-.07-.21-.29-.25-.46h0a.08.08,0,0,1,0,0c-.27-.19-.22-.47-.21-.74l0,0v-.06a1.35,1.35,0,0,1-.11-1.32c0,.44.07.88.11,1.32,0,0,0,0,0,0v0a.68.68,0,0,1,.21.74v0c.33,0,.28.24.25.46h0v0c.44,0,.33.66.74.73-.22-1.48-.92-2.85-1-4.37h0c-.31-.21-.15-.55-.23-.82a.54.54,0,0,0,0-.11c-.54.22-.39-.82-1-.54h0c.1.16,0,.2-.13.21s-.32.06-.32-.18a.73.73,0,0,0-.68.78,11.6,11.6,0,0,0,.17,3.22,4.91,4.91,0,0,1-.29-2.84,1,1,0,0,0-.52-1.06c-.59-.36-.9.19-1.37.53a1.64,1.64,0,0,0-1.2-.64c.59-1.77,3-2.85,4.5-2,.38.23.33,0,.49-.1.5-.43.7-.18.82.49-.71,0-1.36,0-2,.1a8.16,8.16,0,0,0-1.8.44H115l1-.19h0c-1.4-.59-2.89-.06-4.43-.35.08-.29,0-.69.45-.67,3.11.08,6.22.17,8.78,2.32a3.21,3.21,0,0,1,.37.55c-1.85-.75-3.26-2.08-5.17-1.85h0a2.41,2.41,0,0,1-.08.25c2.09.36,3.75,1.66,5.64,2.66a10.68,10.68,0,0,1-1.6,4.68c0,.12,0,.24,0,.35,1.26-1,1.45-2.56,2.14-4,1.14,2.23-.08,3.93-1.15,5.93a3.56,3.56,0,0,0,1.81-2.66q.57-3.72,1-7.45c.36-3.07.57-6.16,1-9.22A9.08,9.08,0,0,0,115.79,27.45Zm-7.33,26.66a6.44,6.44,0,0,1-1-4.85c.52.26.28.72.31,1.06.15,1.63.39,3.18,2,4.18a1.34,1.34,0,0,1,.62,1.26h0l0,0c.15,0,.24,0,.23.21h0c.1-.1.18,0,.26,0s0,.09,0,.1-.23,0-.23-.15h0s0,0,0,0l-.23-.21h0v0c-.61.19-.86-.64-1.45-.53v0h0c-.15.08.24.57-.26.37a3.46,3.46,0,0,1-1.28-1.13c.72,0,1,.74,1.54.76h0C109.11,54.72,108.67,54.44,108.46,54.11Zm-1.2-.09s.08.06.07.09,0,.06-.07.1-.08-.08-.08-.11S107.23,54.05,107.26,54Zm7.39-25.89c0,.83-.51,1.36-.78,2C113.58,29.29,113.36,28.5,114.65,28.13Zm-6.33,1.73c.16.39,0,.55-.32.65C107.86,30.14,108.11,30,108.32,29.86ZM111.15,35c-1.28-.52-2.36.15-3.7-.09,1.71-1.24,3.46-.78,5.15-1.09-.31,1-.31,1-1.07.28a1.1,1.1,0,0,0,.1,1.25c-1.73.15-3.42.18-4.92,1.07C107.78,35,109.55,35.65,111.15,35Zm0-1.67-3.73.43c.07-1.24,1.68-1.77,4.26-1.39-1,.6-2.15.17-3,.82C109.49,33.52,110.3,33.2,111.14,33.36Zm2,.11c-.6-.09-1,.1-1.12-.39Zm-.91-1.21a1,1,0,0,1,.3-.13c.26-.06.39.11.39.34s-.17.28-.34.28S112.23,32.71,112.21,32.26Zm3.93.53h0a.54.54,0,0,1-.3.18.17.17,0,0,1-.15,0,.53.53,0,0,1-.15-.15c-.66-.2-1.49.23-2.09-.49,2.43-.8,7.61.71,9,2.75A10.19,10.19,0,0,0,116.14,32.79Zm4.55,1.92-.08,0,0-.06Zm-.47-.3s-.06.06-.09.06-.06,0-.08-.07l.09-.07Zm-.52-.32c-1.34-.18-2.64-.62-4-.71A7,7,0,0,1,119.7,34.09ZM114.64,34a11.21,11.21,0,0,1,7.22,2.32,5.27,5.27,0,0,1,.56.5s0,.15.07.47c-1.38-.74-2.36-1.83-3.82-2.07a33.1,33.1,0,0,0-4-.39c-.49,0-1.41.32-1.4-.48S114.18,34,114.64,34Zm8.19,3.74s.11.17.15.23c0,.23-.17.32-.33.26s-.13-.17-.2-.26A1.83,1.83,0,0,1,122.83,37.69Zm-.15-1.49a.23.23,0,0,1,.29-.28c.19,0,.24.18.23.42,0,0-.16.18-.2.16S122.71,36.32,122.68,36.2Zm0,3.93s-.06.12-.1.18a1.83,1.83,0,0,1-.26-.21s.06-.13.11-.23A1.52,1.52,0,0,1,122.68,40.13ZM120.1,36.4a36.71,36.71,0,0,0-4.45-1C117.2,35.42,118.78,35.41,120.1,36.4ZM113.45,36c3.07,0,6,.32,8.5,2.4a2.57,2.57,0,0,1,.39.64c-.75,0-1.1-.53-1.58-.76s-.69-.72-1.26-.45h0c0,.26,0,.54-.47.42-.71-.2-1.42-.38-2.27-.6,1-.36,1.86.38,2.74.18h0c-.25-.73-1-.61-1.49-.72a21,21,0,0,0-2.75-.25l-.7.22c.35.5-.09.44-.34.43a6.6,6.6,0,0,0-2.42.43c-.07.35.24.42.4.59A1,1,0,0,1,111,40a.8.8,0,0,1-.06-1.22c.39-.46.26-.93.14-1.49a9.25,9.25,0,0,0,2.48-.23h0a.32.32,0,0,1,0-.14s0,0,0-.07c-.22-.08-.52-.07-.53-.42S113.19,36,113.45,36Zm5.23,3.39-.58.22v0h0c.18.15.37.29.81.62a29.38,29.38,0,0,0-5.67-.67l0-.39,4.82.44h0l.14-.27a11.07,11.07,0,0,0-3.57-.52c-.6,0-1.16-.06-1.51-.67,2.81-.5,8,.72,8.86,3-1.17-.64-2.08-1.55-3.34-1.75Zm1.19-.89.08-.09.41.27,0,.06Zm-2.6,3.93a13.75,13.75,0,0,1,3.66,1.6,1.32,1.32,0,0,1,.71,1.29c-1.7-1.11-3.21-2.13-5.12-2.31s-3.67-.12-5.49-.22c-.11-.56,0-1,.54-.93C113.45,42.24,115.39,41.88,117.27,42.41Zm-.53-.69a1.25,1.25,0,0,1,1.17.06C117.48,42.05,117.12,41.66,116.74,41.72Zm2.56,2.78c-.25.14-.2,0-.23-.17h0c-.25.18-.43.15-.52-.17h-.05a7.24,7.24,0,0,1-1.89-.4,2,2,0,0,1,1.89.4h0s0,0,0,0l.52.17,0,0v0Zm-8.86-3.21c.86-1,1.65-.11,2.13-.06A7.05,7.05,0,0,1,110.44,41.29Zm-.76-2.2h0L109,39h-1.49c.16-.83.47-.94,2.59-1,.24.49-.4.43-.46.73h0c0,.09,0,.18.07.27h0c.12,0,.3.06.33.14.11.27,0,.39-.31.34a7.89,7.89,0,0,0-2.33.1c.86-.57,1.75.13,2.31-.58ZM106.93,38c.23-.46.55-.44.94-.36Zm1.52-.63.7,0C108.94,37.56,108.76,37.57,108.45,37.4Zm1.74,4.92c-.92.75-2.09.41-3.11.73,0,0-.15-.18-.18-.29-.09-.28.09-.33.31-.41A5.48,5.48,0,0,1,110.19,42.32ZM107.8,37a5.66,5.66,0,0,1,4.6-.85c-.27,1.21-1.31-.15-1.93.58C110.06,37.19,108.77,36.91,107.8,37ZM110,40.62c-.89.28-1.8.09-2.6.65.69.3,1.39-.14,2.18.24a6.44,6.44,0,0,0-3.58,1C107.14,40,108.58,39.82,110,40.62Zm-2,4.32c.88.42,1.65.14,2.38.45-1.44.27-2.93.21-4.49.6,0-1.14.74-1.38,1.52-1.53,2.78-.54,3.68-.48,4,.32Zm-1.81-.88c0-.35-.1-.67,0-.8,2.43.49,4.75-.52,7,0C110.86,43.6,108.46,43.33,106.14,44.06ZM119,46.59a.9.9,0,0,1-.21-.08s.06-.09.08-.08a.9.9,0,0,1,.21.08S119,46.59,119,46.59Zm-5-1.68h0l-.11.23h0a12.86,12.86,0,0,0,2.82.52c.42.11.88.11,1.17.51H118c.13-.13.27-.06.43,0-.16.26-.3.13-.43,0l0,0s0,0,0,0a22.69,22.69,0,0,0-5.59-.59c.1-.52.46-.3.63-.45h0a.19.19,0,0,1-.07-.11.15.15,0,0,1,0-.11l-1-.12c-.13-.42,0-.67.44-.69,3.2-.14,6.27.24,8.86,2.38a1,1,0,0,1,.26.66A12.54,12.54,0,0,0,114,44.91Zm7.63,3.36c-.1-.14-.2-.28,0-.4C121.82,48,121.8,48.14,121.65,48.27Zm-9.12-7.54c2.4-1.36,8.33.2,9.32,2.44C119.23,40.81,116,40.83,112.53,40.73Zm9.63,3.33L122,44l.08-.21c.06,0,.16,0,.17.1A.59.59,0,0,1,122.16,44.06Zm.28,5.8c-.29-.28-.17-.56-.1-1C122.55,49.31,122.63,49.57,122.44,49.86Zm.29-1.88c-.38-.19-.32-.45-.23-.93C122.82,47.5,122.83,47.72,122.73,48Zm.21-2.17a.35.35,0,0,1-.08-.52C123.05,45.45,123,45.61,122.94,45.81Zm.45-3.65c-.71,0-.23-.57-.52-1.07C123.44,41.49,123.66,41.75,123.39,42.16Zm0-8.6c-.33.18-.1.53-.22.75-4.85-3.48-10.24-3.08-15.83-2.41-.15-1,2-.62,1.43-2.2.4.45.46.84.88.83v0h0l0,0a1.38,1.38,0,0,1,.7-1.67,2.35,2.35,0,0,1-.7,1.67v0a7,7,0,0,1,2.22.24c.38.1.81-.34.77-.9l-.26-.31c-.23.16-.24.55-.59.59-.55-.16-.3-.58-.3-.92h0c0-.16,0-.32,0-.48s0-.06.06-.08l.09.08c.27-.18.43-.62.89-.4.22.43-.28.75-.15,1.16h0c.15,0,.18.07.19.16s0,.15.06.19c.93,1.12,1.48,1.11,2.39-.1.14.65.41,1.24,1.17,1,1-.27.77-1.21,1-2-.76.26-.34,1.21-1.13,1.39-.53-.31-.36-.81-.16-1.25.44-1,1.24-.3,2-.43a10.38,10.38,0,0,0-.42,1.32c0,.31-.27.86.45.72h0c.29-.62-.17-1.9,1.42-1.57-.3.81-.28,1.7-1.42,1.57h0c-.32.41.07.46.31.52a.91.91,0,0,0,1.11-.37,11.45,11.45,0,0,0,.55-1.11c2.34.36,4.24,3.21,4.14,6.27C123.07,35.26,123.87,34.25,123.43,33.56Z"/><path class="cls-6" d="M116.07,47.15Z"/><polygon class="cls-6" points="111.93 54.23 111.92 54.22 111.92 54.23 111.93 54.23"/><path class="cls-6" d="M119,44.31h0v0Z"/><path class="cls-6" d="M111.16,53.46v0h0v0Z"/><path class="cls-6" d="M110.67,52.13v.06l0,0v0S110.68,52.14,110.67,52.13Z"/><path class="cls-6" d="M110.9,53a.08.08,0,0,0,0,0h0v0Z"/><path class="cls-6" d="M116.06,47.16h0Z"/><path class="cls-6" d="M118.08,39.6h0Z"/><path class="cls-6" d="M118,46.19h-.07s0,0,0,0Z"/><path class="cls-6" d="M109.68,39.08Z"/><path class="cls-6" d="M108.88,55.24h0v0h0Z"/><path class="cls-6" d="M118.1,39.59h0Z"/><path class="cls-6" d="M109.66,30.51h0v0Z"/><polygon class="cls-6" points="116.07 47.15 116.07 47.15 116.06 47.16 116.06 47.16 116.07 47.15"/><path class="cls-6" d="M118,30.49h0Z"/><path class="cls-6" d="M110.67,56h0s0,0,0,0Z"/><path class="cls-6" d="M110.42,55.77l0,0h0v0Z"/><path class="cls-6" d="M111.83,67.55a1.31,1.31,0,0,1,.87-.32,1.4,1.4,0,0,1,.44.1,1.7,1.7,0,0,1,.43.24.45.45,0,0,0,.2,0l.47-.43-2.89,0,.22.42Z"/><path class="cls-6" d="M113.77,67.56l.47-.43-.47.43Z"/><path class="cls-6" d="M109.91,57.21a1.78,1.78,0,0,1,.06.65c0,.14,0,.29,0,.43a1.24,1.24,0,0,0,.18.64c0-.64,0-1.28.08-1.93l-.31-.12Z"/><path class="cls-6" d="M110.14,58.93h0a1.24,1.24,0,0,1-.18-.64A1.24,1.24,0,0,0,110.14,58.93Z"/><path class="cls-6" d="M119.49,55.11a2.76,2.76,0,0,0,.08.27l.44-.28c0-.11,0-.23,0-.35Z"/><path class="cls-6" d="M110.56,68.63c0-.5.07-1,.1-1.52A2.55,2.55,0,0,0,110.56,68.63Z"/><path class="cls-6" d="M110.66,67.11s0,0,0,0h0Z"/><path class="cls-6" d="M116.72,49.58h0c0,.6,0,1.21.07,1.82a1.56,1.56,0,0,0,.15-.55,1.22,1.22,0,0,0,0-.27c0-.19,0-.38,0-.57a2.62,2.62,0,0,1,0-.56,1.05,1.05,0,0,1,.06-.24Z"/><path class="cls-6" d="M117,49.21h0l-.24.36h0Z"/><path class="cls-6" d="M116.9,50c0,.19,0,.38,0,.57C116.94,50.39,116.91,50.2,116.9,50Z"/><path class="cls-6" d="M117,49.18a0,0,0,0,0,0,0v0Z"/><path class="cls-6" d="M117,49.18h0a0,0,0,0,0,0,0h0A0,0,0,0,1,117,49.18Z"/><path class="cls-6" d="M113.5,36.83s0,.05,0,.07a.32.32,0,0,0,0,.14h0l1,0,.7-.22H113.5Z"/><path class="cls-6" d="M114.56,37.06l.7-.22h0Z"/><path class="cls-6" d="M113.51,36.9a.32.32,0,0,0,0,.14h0A.32.32,0,0,1,113.51,36.9Z"/><path class="cls-6" d="M112.87,45a.19.19,0,0,0,.07.11h1l.11-.23h-1.13A.15.15,0,0,0,112.87,45Z"/><path class="cls-6" d="M112.87,45a.19.19,0,0,0,.07.11h0A.19.19,0,0,1,112.87,45Z"/><path class="cls-6" d="M113.91,45.14l.11-.23h0l-.11.23Z"/><path class="cls-6" d="M110.79,48.66c-.05.09-.09.18-.13.27a.54.54,0,0,1,0,.11c.08.27-.08.61.23.81,0-.17,0-.35,0-.53Z"/><path class="cls-6" d="M110.71,49c.08.27-.08.61.23.82h0C110.63,49.65,110.79,49.31,110.71,49Z"/><path class="cls-6" d="M116.06,47.16l-1,.19,1,.06A2.41,2.41,0,0,0,116.06,47.16Z"/><path class="cls-6" d="M116,47.41a2.41,2.41,0,0,0,.08-.25h0A2.41,2.41,0,0,1,116,47.41Z"/><path class="cls-6" d="M116.09,47.15h0Z"/><path class="cls-6" d="M116.06,47.16l-1,.19h0l1-.19Z"/><path class="cls-6" d="M115.69,32.93a.17.17,0,0,0,.15,0,.54.54,0,0,0,.3-.18h-.6A.53.53,0,0,0,115.69,32.93Z"/><path class="cls-6" d="M116.14,32.79h0a.54.54,0,0,1-.3.18A.54.54,0,0,0,116.14,32.79Z"/><path class="cls-6" d="M112.68,29.83c-.05,0-.05-.12-.06-.19s0-.17-.19-.15v.05l.26.31Z"/><path class="cls-6" d="M112.68,29.85l-.26-.31.26.31Z"/><path class="cls-6" d="M112.62,29.64c0-.09,0-.17-.19-.16h0C112.58,29.47,112.61,29.55,112.62,29.64Z"/><path class="cls-6" d="M111.6,28.65s-.06.05-.06.08,0,.32,0,.48c0-.16.11-.32.16-.48Z"/><path class="cls-6" d="M111.53,29.21h0c0-.16,0-.32,0-.48C111.53,28.89,111.53,29.05,111.53,29.21Z"/><path class="cls-6" d="M118.1,39.59l.58-.22-.44,0C118.19,39.41,118.15,39.5,118.1,39.59Z"/><path class="cls-6" d="M118.1,39.59l.58-.22h0l-.58.22Z"/><path class="cls-6" d="M118.1,39.59h0Z"/><path class="cls-6" d="M118.09,39.61h0v0h0Z"/><path class="cls-6" d="M109.57,48.6c.1,0,.23-.05.12-.21l-.44,0C109.25,48.66,109.43,48.6,109.57,48.6Z"/><path class="cls-6" d="M109.57,48.6c.1,0,.23-.05.13-.21h0C109.8,48.55,109.67,48.59,109.57,48.6Z"/><path class="cls-6" d="M109.61,38.81h0L109,39l.71,0Z"/><path class="cls-6" d="M109.7,39.08h0Z"/><path class="cls-6" d="M109,39l.71,0h0Z"/><path class="cls-6" d="M109.68,39.08h0c0-.09-.05-.18-.07-.27h0Z"/><path class="cls-6" d="M113.57,67.57a1.7,1.7,0,0,0-.43-.24,1.4,1.4,0,0,0-.44-.1,1.31,1.31,0,0,0-.87.32Z"/><path class="cls-6" d="M112.7,67.23a1.4,1.4,0,0,1,.44.1A1.4,1.4,0,0,0,112.7,67.23Z"/><path class="cls-6" d="M112.52,68.46c-.43-.25-.75,0-.78.52a.83.83,0,0,0,.78,1,.82.82,0,0,0,.86-.76C113.47,68.72,113.18,68.4,112.52,68.46Z"/><path class="cls-6" d="M113.22,77.73c.12-1.34-.92-.46-1.48-.86-.13.7-.16,1.24.29,1.48l.87,0A.85.85,0,0,0,113.22,77.73Z"/><path class="cls-6" d="M115.06,52.16a14.14,14.14,0,0,1-.34-2.59c-.06-.53-.15-1.29-1.07-1.23s-.78.7-.8,1.28a13.77,13.77,0,0,0,.56,4l0,.07v0c.62,0,.76.65,1,1a1.49,1.49,0,0,0,2,.68c.18-.47-.35-.77-.2-1.19h0v0c-.45,0-.43-.39-.47-.7l0,0v0a.64.64,0,0,1-.23-.71s0,0,0,0v0C115.14,52.65,115.12,52.37,115.06,52.16Zm.6,2.78a4.58,4.58,0,0,1-1.87-2.49,9.94,9.94,0,0,1-.46-3c0-.25.06-.54.36-.57s.46.17.44.47A8.82,8.82,0,0,0,115.66,54.94Z"/><path class="cls-6" d="M115.47,52.73v0h0v0S115.46,52.73,115.47,52.73Z"/><path class="cls-6" d="M115.73,53.5v0l0,0v0Z"/><path class="cls-6" d="M116.22,54.25s0,0,0,0h0v0Z"/><path class="cls-6" d="M111.71,48.78c.05.1.17.25.16.39-.24,2.26.65,4.24,1.6,6.19.2.4.28,1.08,1,.43-.26-.72-.92-1.26-1-2h0a.24.24,0,0,1,0-.08,7,7,0,0,1-.91-4.19,1.05,1.05,0,0,0-.56-1.16c-.45-.18-.91-.22-1.15.36l.14.66C111.16,49.12,111.16,48.63,111.71,48.78Z"/><path class="cls-6" d="M113.45,53.74v0l0-.07a.24.24,0,0,0,0,.08Z"/><path class="cls-6" d="M112.38,54.76l0,0c0-.29-.09-.58-.49-.51C111.94,54.53,112,54.82,112.38,54.76Z"/><polygon class="cls-6" points="111.93 54.23 111.93 54.23 111.92 54.23 111.93 54.23"/><path class="cls-6" d="M112.72,55.4s0,.09.06.09a.61.61,0,0,0,.18-.05l-.12-.2A1,1,0,0,0,112.72,55.4Z"/><path class="cls-6" d="M112.5,55l.1-.06-.18-.2,0,0C112.43,54.84,112.46,54.92,112.5,55Z"/><path class="cls-6" d="M112.42,78.48a.63.63,0,0,0,.48-.11l-.87,0A1,1,0,0,0,112.42,78.48Z"/><path class="cls-4" d="M114.62,22.33A27.67,27.67,0,1,1,87,50a27.7,27.7,0,0,1,27.66-27.67m0-2A29.65,29.65,0,1,0,144.27,50a29.66,29.66,0,0,0-29.65-29.65Z"/><g class="cls-3"><path d="M163.41,24.65l10.93,36.87,10.77-36.87h16.12L180.71,80.94H168L147.22,24.65Z"/></g><path class="cls-4" d="M161.41,21.65l10.93,36.87,10.77-36.87h16.12L178.71,77.94H166L145.22,21.65Z"/><g class="cls-3"><path d="M207.47,80.94V24.65h15.34V80.94Z"/></g><path class="cls-4" d="M205.47,77.94V21.65h15.34V77.94Z"/><g class="cls-3"><path d="M268.2,43.36a44,44,0,0,0-4.87-2.52,44.45,44.45,0,0,0-4.76-1.76,16.82,16.82,0,0,0-5.14-.83,7.15,7.15,0,0,0-3.27.63A2.21,2.21,0,0,0,248.94,41a2.45,2.45,0,0,0,.71,1.81,6.84,6.84,0,0,0,2,1.3A27,27,0,0,0,255,45.25c1.28.36,2.74.81,4.36,1.33a56.61,56.61,0,0,1,7,2.6,21.68,21.68,0,0,1,5.31,3.34A12.92,12.92,0,0,1,275,57.2a17,17,0,0,1,1.18,6.68,17.63,17.63,0,0,1-1.85,8.45,15.21,15.21,0,0,1-4.88,5.47,20.43,20.43,0,0,1-6.84,2.94,32.67,32.67,0,0,1-7.66.91,44,44,0,0,1-6.29-.47,54.89,54.89,0,0,1-6.41-1.34,57.94,57.94,0,0,1-6.13-2,39.16,39.16,0,0,1-5.47-2.68l6.61-13.44A46.34,46.34,0,0,0,243,64.74a40.13,40.13,0,0,0,5.7,2.13,22.63,22.63,0,0,0,6.48.94,6.53,6.53,0,0,0,3.5-.67,2,2,0,0,0,1-1.77,2.52,2.52,0,0,0-1-2,9,9,0,0,0-2.71-1.46c-1.15-.41-2.48-.83-4-1.25s-3.08-.92-4.76-1.5a41.17,41.17,0,0,1-6.36-2.71,17.16,17.16,0,0,1-4.41-3.3,11.84,11.84,0,0,1-2.55-4.21,16.37,16.37,0,0,1-.83-5.42,18.74,18.74,0,0,1,1.69-8.18,16.89,16.89,0,0,1,4.6-5.9A20.65,20.65,0,0,1,246,25.87a25.43,25.43,0,0,1,7.91-1.22,29.49,29.49,0,0,1,6,.59,47.73,47.73,0,0,1,5.62,1.49c1.81.61,3.5,1.26,5.07,2s3,1.37,4.25,2Z"/></g><path class="cls-4" d="M266.2,40.36a44,44,0,0,0-4.87-2.52,44.45,44.45,0,0,0-4.76-1.76,16.82,16.82,0,0,0-5.14-.83,7.15,7.15,0,0,0-3.27.63A2.21,2.21,0,0,0,246.94,38a2.45,2.45,0,0,0,.71,1.81,6.84,6.84,0,0,0,2,1.3A27,27,0,0,0,253,42.25c1.28.36,2.74.81,4.36,1.33a56.61,56.61,0,0,1,7,2.6,21.68,21.68,0,0,1,5.31,3.34A12.92,12.92,0,0,1,273,54.2a17,17,0,0,1,1.18,6.68,17.63,17.63,0,0,1-1.85,8.45,15.21,15.21,0,0,1-4.88,5.47,20.43,20.43,0,0,1-6.84,2.94,32.67,32.67,0,0,1-7.66.91,44,44,0,0,1-6.29-.47,54.89,54.89,0,0,1-6.41-1.34,57.94,57.94,0,0,1-6.13-2,39.16,39.16,0,0,1-5.47-2.68l6.61-13.44A46.34,46.34,0,0,0,241,61.74a40.13,40.13,0,0,0,5.7,2.13,22.63,22.63,0,0,0,6.48.94,6.53,6.53,0,0,0,3.5-.67,2,2,0,0,0,1-1.77,2.52,2.52,0,0,0-1-2,9,9,0,0,0-2.71-1.46c-1.15-.41-2.48-.83-4-1.25s-3.08-.92-4.76-1.5a41.17,41.17,0,0,1-6.36-2.71,17.16,17.16,0,0,1-4.41-3.3,11.84,11.84,0,0,1-2.55-4.21,16.37,16.37,0,0,1-.83-5.42,18.74,18.74,0,0,1,1.69-8.18,16.89,16.89,0,0,1,4.6-5.9A20.65,20.65,0,0,1,244,22.87a25.43,25.43,0,0,1,7.91-1.22,29.49,29.49,0,0,1,6,.59,47.73,47.73,0,0,1,5.62,1.49c1.81.61,3.5,1.26,5.07,2s3,1.37,4.25,2Z"/></g></g></svg>