<svg xmlns="http://www.w3.org/2000/svg" viewBox="0 0 271.05 116.65"><defs><style>.cls-1{isolation:isolate;}.cls-2{opacity:0.2;mix-blend-mode:multiply;}.cls-3,.cls-6{fill:#fff;}.cls-4,.cls-9{fill:none;}.cls-5{fill:#3953a4;stroke:#3953a4;stroke-width:0.23px;}.cls-5,.cls-9{stroke-miterlimit:10;}.cls-6{font-size:28px;font-family:Raleway-Light, Raleway;font-weight:300;letter-spacing:0.37em;}.cls-7{letter-spacing:0.4em;}.cls-8{letter-spacing:0.37em;}.cls-9{stroke:#fff;}</style></defs><title>Shirt Logo</title><g class="cls-1"><g id="Layer_2" data-name="Layer 2"><g id="Layer_1-2" data-name="Layer 1"><g class="cls-2"><path d="M28.45,33.11V61H12.85V4.23H25l22.8,28.88V4.23h15.6V61H51Z"/></g><path class="cls-3" d="M26.45,30.11V58H10.85V1.23H23l22.8,28.88V1.23h15.6V58H49Z"/><g class="cls-2"><circle cx="101.7" cy="32.73" r="29.57"/></g><circle class="cls-3" cx="99.7" cy="29.73" r="29.57"/><path class="cls-4" d="M107.32,19.74a1.38,1.38,0,0,0,.26.22c0-.06.12-.16.1-.19a2,2,0,0,0-.25-.25C107.38,19.62,107.3,19.72,107.32,19.74Z"/><path class="cls-4" d="M105.1,16.05c-1.32-1-2.9-1-4.45-1A38.74,38.74,0,0,1,105.1,16.05Z"/><path class="cls-4" d="M98,41.84c.63.15.69-.42.76-.9a2.35,2.35,0,0,0-1.27-.5C97.64,41,97.25,41.67,98,41.84Z"/><path class="cls-4" d="M101.76,17.29c.85.22,1.56.4,2.27.6.42.12.42-.16.47-.43C103.62,17.67,102.81,16.93,101.76,17.29Z"/><path class="cls-4" d="M108.2,16c0-.24,0-.39-.23-.43a.24.24,0,0,0-.29.29c0,.12.19.23.32.3S108.16,16,108.2,16Z"/><path class="cls-4" d="M96.05,16.91c.12.57.25,1-.14,1.49A.81.81,0,0,0,96,19.63a.86.86,0,0,0,1.15-.15.84.84,0,0,0,.08-1.32c-.16-.17-.47-.24-.4-.59a6.61,6.61,0,0,1,2.42-.44c.25,0,.69.08.34-.42l-1,0A8.86,8.86,0,0,1,96.05,16.91Z"/><path class="cls-4" d="M105.13,14.12s.06,0,.09-.07l-.08-.08-.09.07S105.1,14.12,105.13,14.12Z"/><path class="cls-4" d="M105.69,14.35l0-.08,0,.06Z"/><path class="cls-4" d="M98.29,14c0,.79.91.45,1.4.48a33.1,33.1,0,0,1,4,.39c1.46.24,2.44,1.33,3.82,2.06,0-.31,0-.42-.07-.46a5.27,5.27,0,0,0-.56-.5,11.21,11.21,0,0,0-7.22-2.32C99.18,13.61,98.3,13.19,98.29,14Z"/><path class="cls-4" d="M104.7,13.74a7,7,0,0,0-4-.71C102.06,13.12,103.36,13.55,104.7,13.74Z"/><path class="cls-4" d="M107.65,17.83c.16.06.29,0,.33-.26,0-.07-.13-.24-.15-.23a1.79,1.79,0,0,0-.38.22C107.52,17.66,107.56,17.8,107.65,17.83Z"/><path class="cls-4" d="M102.91,21.43a1.25,1.25,0,0,0-1.17-.06C102.12,21.31,102.48,21.7,102.91,21.43Z"/><path class="cls-4" d="M96,22.42c1.82.1,3.66,0,5.49.22s3.42,1.2,5.12,2.31a1.32,1.32,0,0,0-.71-1.29,14.11,14.11,0,0,0-3.66-1.61c-1.88-.52-3.82-.16-5.7-.56C96,21.37,95.92,21.85,96,22.42Z"/><path class="cls-4" d="M105,18l-.08.1.47.24,0-.06Z"/><path class="cls-4" d="M98.45,11.94c.6.72,1.43.29,2.09.49h.6a10.19,10.19,0,0,1,6.34,2.25C106.06,12.65,100.88,11.14,98.45,11.94Z"/><path class="cls-4" d="M104,24l-.52-.17C103.6,24.11,103.78,24.13,104,24Z"/><path class="cls-4" d="M98,16.06c0,.35.31.33.53.42,0,0,0,.05,0,.07s0,0,0-.07h1.76a22.85,22.85,0,0,1,2.75.26c.51.11,1.24,0,1.49.72.57-.27.85.25,1.26.44s.83.79,1.58.77A2.39,2.39,0,0,0,107,18c-2.47-2.08-5.43-2.44-8.5-2.4C98.19,15.63,98,15.71,98,16.06Z"/><path class="cls-4" d="M104.3,24.15l-.23-.17C104.1,24.1,104.05,24.29,104.3,24.15Z"/><path class="cls-4" d="M98.14,40.09c.35.1.53-.09.57-.62-.28,0-.57-.23-.76.11A.36.36,0,0,0,98.14,40.09Z"/><path class="cls-4" d="M98.22,19.2a29.38,29.38,0,0,1,5.67.67c-.44-.33-.63-.47-.81-.62l-4.82-.44Z"/><path class="cls-4" d="M98.2,54c-.55-.32-.87-.38-1.21,0C97.34,54.44,97.66,54.36,98.2,54Z"/><path class="cls-4" d="M94.59,40c-.36,1.24-.51,2.46.46,3.52A7.68,7.68,0,0,1,94.59,40Z"/><path class="cls-4" d="M107,20.77c-.9-2.27-6-3.49-8.86-3a1.55,1.55,0,0,0,1.51.68,11.07,11.07,0,0,1,3.57.52l-.14.27h0l.14-.27.44,0h0C104.94,19.21,105.85,20.13,107,20.77Z"/><path class="cls-4" d="M100.7,33.09a.79.79,0,0,0-.23-.71A.65.65,0,0,0,100.7,33.09Z"/><path class="cls-4" d="M100.84,12.62a.21.21,0,0,1-.15,0A.21.21,0,0,0,100.84,12.62Z"/><path class="cls-4" d="M101.57,23.37c.64.09,1.22.48,1.89.39A2,2,0,0,0,101.57,23.37Z"/><path class="cls-4" d="M105,34.4a10.68,10.68,0,0,0,1.6-4.68c-1.89-1-3.55-2.31-5.64-2.66L100,27H92.37a8.16,8.16,0,0,1,1.8-.44c.64-.08,1.29-.07,2-.1-.12-.67-.32-.92-.82-.49-.16.14-.11.32-.49.1-1.49-.87-3.91.21-4.5,2a1.61,1.61,0,0,1,1.2.64c.47-.35.78-.9,1.37-.53a1,1,0,0,1,.52,1.06,4.91,4.91,0,0,0,.29,2.84,11.66,11.66,0,0,1-.17-3.23.74.74,0,0,1,.68-.78l.44,0h0c.58-.28.43.75,1,.54l.13-.28c.24-.57.7-.53,1.15-.35a1,1,0,0,1,.56,1.15,7,7,0,0,0,.91,4.2,13.77,13.77,0,0,1-.56-4c0-.58-.08-1.22.8-1.28s1,.7,1.07,1.22a14.13,14.13,0,0,0,.34,2.6c.06.21.08.49.39.53a9.36,9.36,0,0,1-.25-3c0-.48,0-.93.62-1s1-.14,1.15.55a.33.33,0,0,1,.26.36c-.24,2.26,1.08,3.88,2.25,5.57l.09.27a2.76,2.76,0,0,1-.08-.27Z"/><path class="cls-4" d="M101.9,29.1a1.05,1.05,0,0,1,.06-.24h0A1.05,1.05,0,0,0,101.9,29.1Z"/><path class="cls-4" d="M101.2,33.85c-.07-.29-.1-.61-.47-.7C100.77,33.46,100.75,33.81,101.2,33.85Z"/><path class="cls-4" d="M101.42,35.09a1.48,1.48,0,0,1-2-.69c-.26-.37-.4-1-1-1,.13.79.79,1.33,1,2-.75.65-.83,0-1-.43-1-2-1.84-3.93-1.6-6.19,0-.14-.11-.29-.16-.39-.55-.15-.55.34-.78.53,0,.18,0,.36,0,.54h0c.06,1.52.76,2.89,1,4.37h0c.4-.07.44.22.49.51l.18.2-.1,0c0-.07-.07-.15-.12-.23l0,0,0,0c-.43.06-.44-.24-.45-.53h0c-.41-.08-.3-.69-.74-.73l.47,1.51c-1.64-1.81-1.88-3.89-2-6a4.51,4.51,0,0,0-.08,3.51c.67,1.71,1.13,3.72,3.51,3.92a17,17,0,0,0,4.4-.51l-1.24-1.64C101.07,34.32,101.6,34.62,101.42,35.09Zm-3.64,0s-.07-.08-.06-.1a1.58,1.58,0,0,1,.12-.15l.12.2Z"/><path class="cls-4" d="M95.91,32.65c0,.17,0,.38.25.46C96.19,32.89,96.24,32.66,95.91,32.65Z"/><path class="cls-4" d="M106.24,28.65a2.8,2.8,0,0,0-.37-.55c-2.56-2.15-5.67-2.24-8.78-2.33-.47,0-.37.39-.45.67,1.54.29,3-.24,4.43.36C103,26.57,104.39,27.9,106.24,28.65Z"/><path class="cls-4" d="M95.69,31.86c0,.27-.06.55.21.74A.68.68,0,0,0,95.69,31.86Z"/><path class="cls-4" d="M95.67,31.78c0-.44-.08-.88-.11-1.32A1.35,1.35,0,0,0,95.67,31.78Z"/><path class="cls-4" d="M101.07,28.79a6.21,6.21,0,0,0,1.71,6c.46-.24.53-.5.24-1a8.52,8.52,0,0,1-1.23-2.73c0-.61-.05-1.22-.07-1.83C101.5,29.08,101.49,28.63,101.07,28.79Z"/><path class="cls-4" d="M99.13,29c0-.3-.13-.51-.44-.48s-.38.33-.36.57a9.84,9.84,0,0,0,.46,3,4.6,4.6,0,0,0,1.87,2.5A8.84,8.84,0,0,1,99.13,29Z"/><path class="cls-4" d="M96.53,13.78c.76.73.76.73,1.07-.28-1.69.31-3.44-.15-5.15,1.08,1.34.24,2.42-.42,3.7.1-1.6.61-3.37-.06-4.44,1.42A11.1,11.1,0,0,1,96.63,15,1.08,1.08,0,0,1,96.53,13.78Z"/><path class="cls-4" d="M92.41,13.44,96.14,13c-.84-.16-1.65.16-2.48-.15.86-.64,2-.21,3-.82C94.09,11.66,92.48,12.2,92.41,13.44Z"/><path class="cls-4" d="M98.12,13.12,97,12.73C97.15,13.22,97.52,13,98.12,13.12Z"/><path class="cls-4" d="M97.9,12.12c0-.24-.13-.4-.39-.34a1,1,0,0,0-.3.13c0,.45.18.5.35.49S97.9,12.33,97.9,12.12Z"/><path class="cls-4" d="M101.94,30.22a1.31,1.31,0,0,1,0,.28A1.31,1.31,0,0,0,101.94,30.22Z"/><path class="cls-4" d="M95.37,35.4a1.33,1.33,0,0,0-.62-1.25c-1.57-1-1.81-2.55-2-4.18,0-.34.21-.81-.31-1.06a6.45,6.45,0,0,0,1,4.85c.21.33.65.61.46,1.12C94.51,34.77,94.76,35.59,95.37,35.4Z"/><path class="cls-4" d="M95.42,35.42l.23.2C95.66,35.45,95.57,35.4,95.42,35.42Z"/><path class="cls-4" d="M95.9,35.79s0-.08,0-.1-.16-.14-.26,0S95.77,35.83,95.9,35.79Z"/><path class="cls-4" d="M93.62,35.25c.5.21.11-.28.26-.36-.57,0-.82-.78-1.54-.76A3.43,3.43,0,0,0,93.62,35.25Z"/><path class="cls-4" d="M99.65,7.78c-1.29.37-1.07,1.16-.78,2C99.14,9.13,99.68,8.61,99.65,7.78Z"/><path class="cls-4" d="M92.33,33.76s0-.06-.07-.09-.08,0-.08.08,0,.07.08.1S92.33,33.79,92.33,33.76Z"/><path class="cls-4" d="M93.32,9.51c-.21.18-.46.27-.32.64C93.35,10.06,93.48,9.9,93.32,9.51Z"/><path class="cls-4" d="M106.65,27.92c.15-.13.17-.26,0-.4C106.45,27.64,106.55,27.78,106.65,27.92Z"/><path class="cls-4" d="M97.53,20.38c3.44.1,6.7.08,9.32,2.44C105.86,20.58,99.93,19,97.53,20.38Z"/><path class="cls-4" d="M107.44,29.51c.19-.29.11-.55-.1-1C107.27,29,107.15,29.23,107.44,29.51Z"/><path class="cls-4" d="M97.34,23.75c-.42,0-.57.27-.44.69l1,.12a.15.15,0,0,0,0,.11.15.15,0,0,1,0-.11H99a12.61,12.61,0,0,1,7.44,2.23,1,1,0,0,0-.26-.66C103.61,24,100.54,23.61,97.34,23.75Z"/><path class="cls-4" d="M107,23.6l.2.11a.63.63,0,0,0,0-.22s-.11-.07-.17-.1Z"/><path class="cls-4" d="M103.76,26.16l.21.08s0,0,.08-.08l-.21-.09S103.79,26.13,103.76,26.16Z"/><path class="cls-4" d="M102,42.39c.19.08.18-.09.21-.2l-.1-.19a1.73,1.73,0,0,0-.23.24A.25.25,0,0,0,102,42.39Z"/><path class="cls-4" d="M101.62,39.73c-.49,1.07-.49,1.07-.14,1.86C101.94,41,101.79,40.48,101.62,39.73Z"/><path class="cls-4" d="M107.73,27.63c.1-.26.09-.49-.23-.94C107.41,27.18,107.35,27.44,107.73,27.63Z"/><path class="cls-4" d="M103.4,25.84c-.16-.06-.3-.13-.43,0C103.1,26,103.24,26.1,103.4,25.84Z"/><path class="cls-4" d="M97.94,24.78c-.17.15-.53-.07-.63.45a22.22,22.22,0,0,1,5.59.59c-.29-.4-.75-.4-1.17-.51a13.48,13.48,0,0,1-2.82-.52h-1Z"/><path class="cls-4" d="M97.43,9.13c-.13-.4.37-.72.15-1.15-.46-.22-.62.22-.89.4,0,.16-.11.32-.16.48h0c0,.34-.25.76.3.92.35,0,.36-.43.59-.6v0Z"/><path class="cls-4" d="M95,37.94c0-.14,0-.29,0-.44C95,37.65,95,37.8,95,37.94Z"/><path class="cls-4" d="M96.74,56.52c.56.4,1.6-.48,1.48.86a.87.87,0,0,1-.32.64l1.22,0c0-3.4.06-6.79.1-10.18,0-.35-.11-.57-.45-.65h0a.34.34,0,0,1-.2,0H96.83a1.31,1.31,0,0,1,.87-.32,1.31,1.31,0,0,0-.87.32l-.26,0c-.39.08-.73.2-.7.71A17.72,17.72,0,0,0,96,51c.47,0,.81,0,.86-.53s.54-.42.88-.44.64.29.54.4c-.44.48-.23,1.39-1,1.6.18.24.17.65.58.71.25-.35,0-1,.57-1.12.74,2.72.25,4.16-1.57,4.32.11-.6-.4-1-.44-1.57,0-.31.07-.74-.46-.71s-.45.54-.43.86c.07,1.15.27,2.29.23,3.49L97,58C96.58,57.75,96.61,57.22,96.74,56.52Zm.78-6.93a.83.83,0,0,1-.78-1c0-.49.35-.77.78-.52.66-.07,1,.25.86.72A.82.82,0,0,1,97.52,49.59Z"/><path class="cls-4" d="M104.94,9.19c-.18.36-.33.75-.55,1.11a.93.93,0,0,1-1.11.37c-.24-.06-.63-.11-.31-.52-.72.13-.5-.41-.45-.72a9.9,9.9,0,0,1,.42-1.32c-.76.13-1.56-.53-2,.42-.2.44-.37.94.16,1.26.79-.18.37-1.14,1.13-1.39-.22.79,0,1.74-1,2-.76.21-1-.38-1.17-1-.91,1.2-1.46,1.22-2.39.1-.05,0-.05-.12-.06-.19s0,.15.06.19h0c0,.56-.39,1-.77.9a7.29,7.29,0,0,0-2.22-.25v0c-.42,0-.48-.37-.88-.83.61,1.59-1.58,1.2-1.43,2.21,5.59-.67,11-1.07,15.83,2.41.12-.22-.11-.57.22-.75.44.69-.36,1.69.65,2.25C109.18,12.4,107.28,9.54,104.94,9.19Z"/><path class="cls-4" d="M107.94,25.46c.08-.2.11-.37-.08-.53A.36.36,0,0,0,107.94,25.46Z"/><path class="cls-4" d="M104.41,8.57c-1.59-.34-1.13.94-1.42,1.57C104.13,10.27,104.11,9.37,104.41,8.57Z"/><path class="cls-4" d="M94.68,10.13a2.36,2.36,0,0,0,.7-1.68A1.4,1.4,0,0,0,94.68,10.13Z"/><path class="cls-4" d="M107.87,20.74c.29.5-.19,1,.52,1.07C108.66,21.39,108.44,21.14,107.87,20.74Z"/><path class="cls-4" d="M103.1,40.35c0-.29.08-.6.13-.91a1.47,1.47,0,0,0-1.14.5A.81.81,0,0,0,103.1,40.35Z"/><path class="cls-4" d="M91.15,22.9c-.11.13,0,.45,0,.81,2.32-.73,4.72-.46,7-.8C95.9,22.39,93.58,23.4,91.15,22.9Z"/><path class="cls-4" d="M102.26,56.73a3.63,3.63,0,0,1-.22,1.36l1.11,0a55.85,55.85,0,0,0-.83-7.4C102.24,52.72,102.2,54.73,102.26,56.73Z"/><path class="cls-4" d="M96,51.66c.1.47-.24,1,.4,1.2s.43-.64.77-.86C97,51.27,96.54,51.65,96,51.66Z"/><path class="cls-4" d="M92.38,19.31a8.64,8.64,0,0,1,2.33-.1c.26.06.42-.06.31-.33,0-.08-.21-.1-.33-.14C94.13,19.44,93.24,18.75,92.38,19.31Z"/><path class="cls-4" d="M91.93,17.68l.94-.37C92.48,17.23,92.16,17.22,91.93,17.68Z"/><path class="cls-4" d="M101.26,42.57a1.23,1.23,0,0,0,.87,1.43A1.29,1.29,0,0,0,101.26,42.57Z"/><path class="cls-4" d="M95.44,20.94a7,7,0,0,0,2.13-.07C97.09,20.83,96.3,20,95.44,20.94Z"/><path class="cls-4" d="M95.07,17.73c-2.12,0-2.43.12-2.59.94H94l.64-.21C94.67,18.16,95.31,18.21,95.07,17.73Z"/><path class="cls-4" d="M93.45,17.05c.31.17.49.16.7,0Z"/><path class="cls-4" d="M97.4,15.78a5.66,5.66,0,0,0-4.6.85c1-.07,2.26.2,2.67-.27C96.09,15.63,97.13,17,97.4,15.78Z"/><path class="cls-4" d="M92.36,24.11c-.78.15-1.49.39-1.52,1.53,1.56-.39,3-.33,4.49-.6-.73-.31-1.5,0-2.38-.45l3.43-.16C96,23.62,95.14,23.57,92.36,24.11Z"/><path class="cls-4" d="M92.21,22c-.22.08-.4.13-.31.4,0,.11.15.3.18.29,1-.31,2.19,0,3.11-.72A5.48,5.48,0,0,0,92.21,22Z"/><path class="cls-4" d="M92.37,20.92c.8-.56,1.71-.37,2.6-.65-1.39-.8-2.83-.59-4,1.85a6.44,6.44,0,0,1,3.58-1C93.76,20.78,93.06,21.22,92.37,20.92Z"/><path class="cls-5" d="M98.77,47.21h0c.34.08.45.3.45.65,0,3.39-.06,6.78-.1,10.18h.58c.07-3.46.35-6.92.23-10.39,0-.46,0-1-.69-.88l-.47.43Z"/><path class="cls-5" d="M97.2,52h0s0,0,0,0S97.21,52,97.2,52Z"/><polygon class="cls-5" points="95.67 46.74 95.67 46.74 95.67 46.74 95.67 46.74"/><path class="cls-5" d="M95,37.94c0-.14,0-.29,0-.44a1.72,1.72,0,0,0-.06-.64,23.55,23.55,0,0,1-.76,3c-.82,2.13-.13,3.9,1.64,4.68-1.53.74-.53,1.86-.58,2.85-.16,3.52.09,7.06-.33,10.57l.83,0c0-1.2-.16-2.34-.23-3.49,0-.32-.18-.82.43-.86s.43.4.46.71c0,.57.55,1,.44,1.57,1.82-.16,2.31-1.6,1.57-4.32-.6.16-.32.77-.57,1.12-.41-.06-.4-.47-.58-.71h0c-.34.22-.06,1.06-.77.86s-.3-.73-.4-1.2c.51,0,1-.39,1.17.34,0,0,0,0,0,0s0,0,0,0c.81-.21.6-1.12,1-1.6.1-.11-.27-.4-.54-.4s-.83-.12-.88.44S96.46,51,96,51a17.72,17.72,0,0,1-.12-3.09c0-.51.31-.63.7-.71l-.22-.41-.68,0h0s0,0,0,0c0,.51-.07,1-.1,1.52a2.55,2.55,0,0,1,.1-1.52v0h0c-.51-1.22-.17-1.8,1.14-1.76a15.47,15.47,0,0,1,4,.24c-1.8-2.1-1.13-4.26-1-6.31a8.67,8.67,0,0,0-2.76-.1c-.32,0-.59.12-.63.49a7,7,0,0,0,.15,3.78c.48-.22.19-.81.58-1,.52.68,1.18.39,1.84.23a7,7,0,0,1,0,2.19H97.7c-1.62,0-2.29-.55-2.43-2.12-.12-1.25-.09-2.51-.13-3.76h0A1.27,1.27,0,0,1,95,37.94ZM94.59,40a7.68,7.68,0,0,0,.46,3.52C94.08,42.47,94.23,41.25,94.59,40ZM98.2,54c-.54.41-.86.49-1.21,0C97.33,53.57,97.65,53.63,98.2,54ZM98,39.58c.19-.34.48-.12.76-.11,0,.53-.22.72-.57.62A.36.36,0,0,1,98,39.58Zm0,2.26c-.71-.17-.32-.81-.51-1.4a2.35,2.35,0,0,1,1.27.5C98.65,41.42,98.59,42,98,41.84Z"/><path class="cls-5" d="M103.23,39.44h0l0,0h0Z"/><path class="cls-5" d="M102.26,56.73c-.06-2,0-4,.06-6a55.85,55.85,0,0,1,.83,7.4h.38a55.55,55.55,0,0,0-.55-6c-.31-2.21-.16-4.5-1-6.63a.81.81,0,0,1,.45-1.15C104,43.69,104,42.39,104,41c0-1.7-.1-3.46,1.9-4.32-1,0-1.78.26-2,1.39-.09.51-.07,1.1-.69,1.36l0,0h0c0,.31-.09.62-.13.91a.81.81,0,0,1-1-.41,1.47,1.47,0,0,1,1.14-.5v0h0c-.47-1-.65-1.08-1.32-.39-.46.09-.28-.63-.82-.52a6.6,6.6,0,0,0-.24,4.72,4.91,4.91,0,0,1,.49,2.65,7.08,7.08,0,0,0-4.82-.29c1.39.35,2.84,0,4.22.55a1.29,1.29,0,0,1,.93,1.38c-.05,2.52-.08,5,0,7.55a8.56,8.56,0,0,1-.3,3H102A3.63,3.63,0,0,0,102.26,56.73ZM102.1,42l.1.19c0,.11,0,.28-.21.2a.25.25,0,0,1-.12-.15A1.73,1.73,0,0,1,102.1,42Zm-.48-2.27c.17.75.32,1.3-.14,1.86C101.13,40.8,101.13,40.8,101.62,39.73Zm-.36,2.84a1.29,1.29,0,0,1,.87,1.43A1.23,1.23,0,0,1,101.26,42.57Z"/><polygon class="cls-5" points="104.5 17.46 104.5 17.46 104.5 17.46 104.5 17.46 104.5 17.46"/><path class="cls-5" d="M102,28.86v0Z"/><path class="cls-5" d="M103.46,23.76s0,0,0,0h0v0Z"/><polygon class="cls-5" points="101.97 28.83 101.97 28.83 101.97 28.83 101.97 28.83"/><path class="cls-5" d="M100.79,7.09a25,25,0,0,0-5.65.64A4.48,4.48,0,0,0,91.85,11c-.39,2.77-.64,5.55-1,8.33S90.11,25.13,89.8,28a8.61,8.61,0,0,0,1.39,5.63c.89,1.45,2.38,2,3.72,2.87l.31.12c.08-.3.2-.55.59-.42a11.39,11.39,0,0,0,5.35.17c.06,0,.14.06.23.1.17.27-.13.73.43,1-.11-1.28.58-1.76,1.63-2a1.69,1.69,0,0,0,1.12-.53l-.09-.27c-1.17-1.69-2.49-3.31-2.25-5.57a.33.33,0,0,0-.26-.36h0v0a1.05,1.05,0,0,0-.06.24,2.62,2.62,0,0,0,0,.56c0,.19,0,.38,0,.56a1.31,1.31,0,0,1,0,.28,1.56,1.56,0,0,1-.15.55A8.52,8.52,0,0,0,103,33.78c.29.49.22.75-.24,1a6.21,6.21,0,0,1-1.71-6c.42-.16.43.29.65.43h0l.24-.36a0,0,0,0,1,0,0h0c-.14-.69-.64-.63-1.15-.55s-.57.55-.62,1a9.36,9.36,0,0,0,.25,3h0v0a.79.79,0,0,1,.23.71l0,0v0c.37.09.4.41.47.7h0a.06.06,0,0,1,0,0l1.24,1.64a17,17,0,0,1-4.4.51c-2.38-.2-2.84-2.21-3.51-3.92a4.51,4.51,0,0,1,.08-3.51c.14,2.14.38,4.22,2,6l-.47-1.51h0v0c-.24-.08-.21-.29-.25-.46h0a.08.08,0,0,1,0,0c-.27-.19-.22-.47-.21-.74l0,0v-.06a1.35,1.35,0,0,1-.11-1.32c0,.44.07.88.11,1.32,0,0,0,0,0,0v0a.68.68,0,0,1,.21.74v0c.33,0,.28.24.25.46h0v0c.44,0,.33.65.74.73-.22-1.48-.92-2.85-1-4.37h0c-.31-.2-.15-.54-.23-.81a.37.37,0,0,0,0-.11c-.54.21-.39-.82-1-.54h0c.1.16,0,.2-.13.2s-.32.07-.32-.18a.74.74,0,0,0-.68.78,11.66,11.66,0,0,0,.17,3.23,4.91,4.91,0,0,1-.29-2.84,1,1,0,0,0-.52-1.06c-.59-.37-.9.18-1.37.53a1.61,1.61,0,0,0-1.2-.64c.59-1.78,3-2.86,4.5-2,.38.22.33,0,.49-.1.5-.43.7-.18.82.49-.71,0-1.36,0-2,.1a8.16,8.16,0,0,0-1.8.44H100l1-.19h0c-1.4-.6-2.89-.07-4.43-.36.08-.28,0-.68.45-.67,3.11.09,6.22.18,8.78,2.33a2.8,2.8,0,0,1,.37.55c-1.85-.75-3.26-2.08-5.17-1.85h0c0,.08,0,.16-.08.25,2.09.35,3.75,1.66,5.64,2.66A10.68,10.68,0,0,1,105,34.4c0,.12,0,.23,0,.35,1.26-1,1.45-2.56,2.14-4.05,1.14,2.24-.08,3.94-1.15,5.94A3.58,3.58,0,0,0,107.81,34q.57-3.72,1-7.46c.36-3.07.57-6.16,1-9.22A9.09,9.09,0,0,0,100.79,7.09ZM93.46,33.76a6.45,6.45,0,0,1-1-4.85c.52.25.28.72.31,1.06.15,1.63.39,3.18,2,4.18a1.33,1.33,0,0,1,.62,1.25h0l0,0c.15,0,.24,0,.23.2v0h0c.1-.09.18,0,.26,0s0,.1,0,.1-.23,0-.23-.15l0,0s0,0,0,0l-.23-.2h0v0c-.61.19-.86-.63-1.45-.52v0h0c-.15.08.24.57-.26.36a3.43,3.43,0,0,1-1.28-1.12c.72,0,1,.74,1.54.76h0C94.11,34.37,93.67,34.09,93.46,33.76Zm-1.2-.09s.08.06.07.09,0,.06-.07.09-.08-.07-.08-.1S92.23,33.7,92.26,33.67ZM99.65,7.78c0,.83-.51,1.35-.78,2C98.58,8.94,98.36,8.15,99.65,7.78ZM93.32,9.51c.16.39,0,.55-.32.64C92.86,9.78,93.11,9.69,93.32,9.51Zm2.83,5.17c-1.28-.52-2.36.14-3.7-.1,1.71-1.23,3.46-.77,5.15-1.08-.31,1-.31,1-1.07.28a1.08,1.08,0,0,0,.1,1.24,11.1,11.1,0,0,0-4.92,1.08C92.78,14.62,94.55,15.29,96.15,14.68Zm0-1.67-3.73.43c.07-1.24,1.68-1.78,4.26-1.4-1,.61-2.15.18-3,.82C94.49,13.17,95.3,12.85,96.14,13Zm2,.11c-.6-.1-1,.1-1.12-.39Zm-.91-1.21a1,1,0,0,1,.3-.13c.26-.06.39.1.39.34s-.17.27-.34.28S97.23,12.36,97.21,11.91Zm3.93.53h0a.54.54,0,0,1-.3.18.21.21,0,0,1-.15,0,.53.53,0,0,1-.15-.15c-.66-.2-1.49.23-2.09-.49,2.43-.8,7.61.71,9,2.75A10.19,10.19,0,0,0,101.14,12.44Zm4.55,1.91-.08,0,0-.06Zm-.47-.3s-.06.07-.09.07-.06,0-.08-.08l.09-.07Zm-.52-.31c-1.34-.19-2.64-.62-4-.71A7,7,0,0,1,104.7,13.74Zm-5.06-.14a11.21,11.21,0,0,1,7.22,2.32,5.27,5.27,0,0,1,.56.5s0,.15.07.46c-1.38-.73-2.36-1.82-3.82-2.06a33.1,33.1,0,0,0-4-.39c-.49,0-1.41.31-1.4-.48S99.18,13.61,99.64,13.6Zm8.19,3.74s.11.16.15.23c0,.23-.17.32-.33.26s-.13-.17-.2-.27A1.79,1.79,0,0,1,107.83,17.34Zm-.15-1.49a.24.24,0,0,1,.29-.29c.19,0,.24.19.23.43,0,0-.16.18-.2.16S107.71,16,107.68,15.85Zm0,3.92s-.06.13-.1.19a1.38,1.38,0,0,1-.26-.22s.06-.12.11-.22A2,2,0,0,1,107.68,19.77Zm-2.58-3.72a38.74,38.74,0,0,0-4.45-1C102.2,15.06,103.78,15.06,105.1,16.05Zm-6.65-.42c3.07,0,6,.32,8.5,2.4a2.39,2.39,0,0,1,.39.64c-.75,0-1.1-.53-1.58-.77s-.69-.71-1.26-.44h0c0,.27,0,.55-.47.43-.71-.2-1.42-.38-2.27-.6,1-.36,1.86.38,2.74.17h0c-.25-.73-1-.61-1.49-.72a22.85,22.85,0,0,0-2.75-.26l-.7.23c.35.5-.09.44-.34.42a6.61,6.61,0,0,0-2.42.44c-.07.35.24.42.4.59a.84.84,0,0,1-.08,1.32.86.86,0,0,1-1.15.15.81.81,0,0,1-.06-1.23c.39-.46.26-.92.14-1.49a8.86,8.86,0,0,0,2.48-.22h0a.32.32,0,0,1,0-.14s0,0,0-.07c-.22-.09-.52-.07-.53-.42S98.19,15.63,98.45,15.63ZM103.68,19l-.58.23h0c.18.15.37.29.81.62a29.38,29.38,0,0,0-5.67-.67l0-.39,4.82.44h0l.14-.27a11.07,11.07,0,0,0-3.57-.52,1.55,1.55,0,0,1-1.51-.68c2.81-.49,8,.73,8.86,3-1.17-.64-2.08-1.56-3.34-1.76Zm1.19-.88L105,18l.41.28,0,.06Zm-2.6,3.92a14.11,14.11,0,0,1,3.66,1.61,1.32,1.32,0,0,1,.71,1.29c-1.7-1.11-3.21-2.13-5.12-2.31s-3.67-.12-5.49-.22c-.11-.57,0-1.05.54-.93C98.45,21.89,100.39,21.53,102.27,22.05Zm-.53-.68a1.25,1.25,0,0,1,1.17.06C102.48,21.7,102.12,21.31,101.74,21.37Zm2.56,2.78c-.25.14-.2,0-.23-.17l0,0h0c-.25.17-.43.15-.52-.17h0s0,0,0,0c-.67.09-1.25-.3-1.89-.39a2,2,0,0,1,1.89.39h0v0L104,24l0,0s0,0,0,0Zm-8.86-3.21c.86-1,1.65-.11,2.13-.07A7,7,0,0,1,95.44,20.94Zm-.76-2.2h0L94,18.67H92.48c.16-.82.47-.93,2.59-.94.24.48-.4.43-.46.73h0c0,.09,0,.18.07.27h0c.12,0,.3.06.33.14.11.27,0,.39-.31.33a8.64,8.64,0,0,0-2.33.1c.86-.56,1.75.13,2.31-.57Zm-2.75-1.06c.23-.46.55-.45.94-.37Zm1.52-.63.7,0C93.94,17.21,93.76,17.22,93.45,17.05ZM95.19,22c-.92.75-2.09.41-3.11.72,0,0-.15-.18-.18-.29-.09-.27.09-.32.31-.4A5.48,5.48,0,0,1,95.19,22ZM92.8,16.63a5.66,5.66,0,0,1,4.6-.85c-.27,1.21-1.31-.15-1.93.58C95.06,16.83,93.77,16.56,92.8,16.63ZM95,20.27c-.89.28-1.8.09-2.6.65.69.3,1.39-.14,2.18.24a6.44,6.44,0,0,0-3.58,1C92.14,19.68,93.58,19.47,95,20.27Zm-2,4.32c.88.42,1.65.14,2.38.45-1.44.27-2.93.21-4.49.6,0-1.14.74-1.38,1.52-1.53,2.78-.54,3.68-.49,4,.32Zm-1.81-.88c0-.36-.1-.68,0-.81,2.43.5,4.75-.51,7,0C95.86,23.25,93.46,23,91.14,23.71ZM104,26.24l-.21-.08s.06-.09.08-.09l.21.09S104,26.24,104,26.24Zm-5-1.69h0l-.11.24h0a13.48,13.48,0,0,0,2.82.52c.42.11.88.11,1.17.51H103c.13-.13.27-.06.43,0-.16.26-.3.12-.43,0l0,0s0,0,0,0a22.22,22.22,0,0,0-5.59-.59c.1-.52.46-.3.63-.45h0a.19.19,0,0,1-.07-.11.15.15,0,0,1,0-.11l-1-.12c-.13-.42,0-.67.44-.69,3.2-.14,6.27.24,8.86,2.37a1,1,0,0,1,.26.66A12.61,12.61,0,0,0,99,24.55Zm7.63,3.37c-.1-.14-.2-.28,0-.4C106.82,27.66,106.8,27.79,106.65,27.92Zm-9.12-7.54c2.4-1.37,8.33.2,9.32,2.44C104.23,20.46,101,20.48,97.53,20.38Zm9.63,3.33-.2-.11.08-.21c.06,0,.16.05.17.1A.63.63,0,0,1,107.16,23.71Zm.28,5.8c-.29-.28-.17-.56-.1-1C107.55,29,107.63,29.22,107.44,29.51Zm.29-1.88c-.38-.19-.32-.45-.23-.94C107.82,27.14,107.83,27.37,107.73,27.63Zm.21-2.17a.36.36,0,0,1-.08-.53C108.05,25.09,108,25.26,107.94,25.46Zm.45-3.65c-.71-.06-.23-.57-.52-1.07C108.44,21.14,108.66,21.39,108.39,21.81Zm0-8.6c-.33.18-.1.53-.22.75-4.85-3.48-10.24-3.08-15.83-2.41-.15-1,2-.62,1.43-2.21.4.46.46.85.88.83v0h0l0,0a1.4,1.4,0,0,1,.7-1.68,2.36,2.36,0,0,1-.7,1.68v0a7.29,7.29,0,0,1,2.22.25c.38.1.81-.34.77-.9l-.26-.32c-.23.17-.24.56-.59.6-.55-.16-.3-.58-.3-.92h0c0-.16,0-.33,0-.49s0,0,.06-.08l.09.09c.27-.18.43-.62.89-.4.22.43-.28.75-.15,1.15h0c.15,0,.18.07.19.16s0,.15.06.19c.93,1.12,1.48,1.1,2.39-.1.14.65.41,1.24,1.17,1,1-.27.77-1.22,1-2-.76.25-.34,1.21-1.13,1.39-.53-.32-.36-.82-.16-1.26.44-.95,1.24-.29,2-.42a9.9,9.9,0,0,0-.42,1.32c0,.31-.27.85.45.72h0c.29-.63-.17-1.91,1.42-1.57-.3.8-.28,1.7-1.42,1.57h0c-.32.41.07.46.31.52a.93.93,0,0,0,1.11-.37c.22-.36.37-.75.55-1.11,2.34.35,4.24,3.21,4.14,6.27C108.07,14.9,108.87,13.9,108.43,13.21Z"/><path class="cls-5" d="M101.07,26.8Z"/><polygon class="cls-5" points="96.93 33.87 96.92 33.87 96.92 33.88 96.93 33.87"/><path class="cls-5" d="M104,24h0l0,0s0,0,0,0Z"/><path class="cls-5" d="M96.16,33.11v0h0v0Z"/><path class="cls-5" d="M95.67,31.78v.06l0,0v0S95.68,31.79,95.67,31.78Z"/><path class="cls-5" d="M95.9,32.6a.08.08,0,0,0,0,0h0v0Z"/><path class="cls-5" d="M101.06,26.81h0Z"/><path class="cls-5" d="M103.08,19.25h0Z"/><path class="cls-5" d="M103,25.84h-.07s0,0,0,0Z"/><path class="cls-5" d="M94.68,18.73Z"/><path class="cls-5" d="M93.88,34.89h0v0h0Z"/><path class="cls-5" d="M103.1,19.24h0Z"/><path class="cls-5" d="M94.66,10.15h0v0Z"/><polygon class="cls-5" points="101.07 26.8 101.07 26.8 101.06 26.81 101.06 26.81 101.07 26.8"/><path class="cls-5" d="M103,10.14h0Z"/><path class="cls-5" d="M95.67,35.64h0v0s0,0,0,0Z"/><polygon class="cls-5" points="103.1 19.24 103.1 19.24 103.1 19.24 103.1 19.24 103.1 19.24"/><path class="cls-5" d="M95.42,35.42l0,0h0v0Z"/><path class="cls-5" d="M96.83,47.2a1.31,1.31,0,0,1,.87-.32,1.4,1.4,0,0,1,.44.1,2,2,0,0,1,.43.23.34.34,0,0,0,.2,0l.47-.43-2.89,0,.22.41Z"/><path class="cls-5" d="M98.77,47.21l.47-.43-.47.43Z"/><path class="cls-5" d="M94.91,36.86a1.72,1.72,0,0,1,.06.64c0,.15,0,.3,0,.44a1.27,1.27,0,0,0,.18.64c0-.64,0-1.28.08-1.93l-.31-.12Z"/><path class="cls-5" d="M95.14,38.58h0a1.27,1.27,0,0,1-.18-.64A1.27,1.27,0,0,0,95.14,38.58Z"/><path class="cls-5" d="M104.49,34.76a2.76,2.76,0,0,0,.08.27l.44-.28c0-.12,0-.23,0-.35Z"/><path class="cls-5" d="M95.56,48.28c0-.51.07-1,.1-1.52A2.55,2.55,0,0,0,95.56,48.28Z"/><path class="cls-5" d="M95.66,46.76s0,0,0,0h0Z"/><path class="cls-5" d="M101.72,29.23h0c0,.61,0,1.22.07,1.83a1.56,1.56,0,0,0,.15-.55,1.31,1.31,0,0,0,0-.28c0-.18,0-.37,0-.56a2.62,2.62,0,0,1,0-.56,1.05,1.05,0,0,1,.06-.24Z"/><path class="cls-5" d="M102,28.86h0l-.24.36h0Z"/><path class="cls-5" d="M101.9,29.66c0,.19,0,.38,0,.56C101.94,30,101.91,29.85,101.9,29.66Z"/><path class="cls-5" d="M102,28.83a0,0,0,0,0,0,0v0Z"/><path class="cls-5" d="M102,28.83h0a0,0,0,0,0,0,0h0A0,0,0,0,1,102,28.83Z"/><path class="cls-5" d="M98.5,16.48s0,.05,0,.07a.32.32,0,0,0,0,.14h0l1,0,.7-.23H98.5Z"/><path class="cls-5" d="M99.56,16.71l.7-.23h0Z"/><path class="cls-5" d="M98.51,16.55a.32.32,0,0,0,0,.14h0A.32.32,0,0,1,98.51,16.55Z"/><path class="cls-5" d="M97.87,24.67a.19.19,0,0,0,.07.11h1l.11-.24H97.89A.15.15,0,0,0,97.87,24.67Z"/><path class="cls-5" d="M97.87,24.67a.19.19,0,0,0,.07.11h0A.19.19,0,0,1,97.87,24.67Z"/><path class="cls-5" d="M98.91,24.79l.11-.24h0l-.11.24Z"/><path class="cls-5" d="M95.79,28.3l-.13.28a.37.37,0,0,1,0,.11c.08.27-.08.61.23.81,0-.18,0-.36,0-.54Z"/><path class="cls-5" d="M95.71,28.69c.08.27-.08.61.23.81h0C95.63,29.3,95.79,29,95.71,28.69Z"/><path class="cls-5" d="M101.06,26.81,100,27l1,.06C101,27,101,26.89,101.06,26.81Z"/><path class="cls-5" d="M101,27.06c0-.09.06-.17.08-.25h0C101,26.89,101,27,101,27.06Z"/><path class="cls-5" d="M101.09,26.8h0Z"/><polygon class="cls-5" points="101.06 26.81 101.06 26.81 101.06 26.81 101.06 26.81 101.06 26.81"/><path class="cls-5" d="M101.06,26.81,100,27h0l1-.19Z"/><path class="cls-5" d="M100.69,12.58a.21.21,0,0,0,.15,0,.54.54,0,0,0,.3-.18h-.6A.53.53,0,0,0,100.69,12.58Z"/><path class="cls-5" d="M101.14,12.44h0a.54.54,0,0,1-.3.18A.54.54,0,0,0,101.14,12.44Z"/><path class="cls-5" d="M97.68,9.48c-.05,0-.05-.12-.06-.19s0-.17-.19-.16v0l.26.31Z"/><path class="cls-5" d="M97.68,9.49l-.26-.31.26.32Z"/><path class="cls-5" d="M97.62,9.29c0-.09,0-.17-.19-.16h0C97.58,9.12,97.61,9.2,97.62,9.29Z"/><path class="cls-5" d="M96.6,8.29s-.06.06-.06.08,0,.32,0,.49c0-.16.11-.32.16-.48Z"/><path class="cls-5" d="M96.53,8.86h0c0-.17,0-.33,0-.49C96.53,8.53,96.53,8.7,96.53,8.86Z"/><path class="cls-5" d="M103.1,19.24l.58-.23-.44,0Z"/><path class="cls-5" d="M103.1,19.24l.58-.23h0l-.58.23Z"/><path class="cls-5" d="M103.1,19.24h0Z"/><path class="cls-5" d="M103.09,19.25Z"/><path class="cls-5" d="M94.57,28.24c.1,0,.23,0,.12-.2l-.44,0C94.25,28.31,94.43,28.25,94.57,28.24Z"/><path class="cls-5" d="M94.57,28.24c.1,0,.23,0,.13-.2h0C94.8,28.2,94.67,28.24,94.57,28.24Z"/><path class="cls-5" d="M94.61,18.46h0l-.64.21.71.06Z"/><path class="cls-5" d="M94.7,18.73h0Z"/><path class="cls-5" d="M94,18.67l.71.06h0Z"/><path class="cls-5" d="M94.68,18.73h0c0-.09-.05-.18-.07-.27h0Z"/><path class="cls-5" d="M98.57,47.21a2,2,0,0,0-.43-.23,1.4,1.4,0,0,0-.44-.1,1.31,1.31,0,0,0-.87.32Z"/><path class="cls-5" d="M97.7,46.88a1.4,1.4,0,0,1,.44.1A1.4,1.4,0,0,0,97.7,46.88Z"/><path class="cls-5" d="M97.52,48.11c-.43-.25-.75,0-.78.52a.83.83,0,0,0,.78,1,.82.82,0,0,0,.86-.76C98.47,48.36,98.18,48,97.52,48.11Z"/><path class="cls-5" d="M98.22,57.38c.12-1.34-.92-.46-1.48-.86-.13.7-.16,1.23.29,1.48l.87,0A.87.87,0,0,0,98.22,57.38Z"/><path class="cls-5" d="M100.06,31.81a14.13,14.13,0,0,1-.34-2.6c-.06-.52-.15-1.28-1.07-1.22s-.78.7-.8,1.28a13.77,13.77,0,0,0,.56,4l0,.06v0c.62,0,.76.64,1,1a1.48,1.48,0,0,0,2,.69c.18-.47-.35-.77-.2-1.19h0v0c-.45,0-.43-.39-.47-.7l0,0v0a.65.65,0,0,1-.23-.71s0,0,0,0v0C100.14,32.3,100.12,32,100.06,31.81Zm.6,2.78a4.6,4.6,0,0,1-1.87-2.5,9.84,9.84,0,0,1-.46-3c0-.24.06-.53.36-.57s.46.18.44.48A8.84,8.84,0,0,0,100.66,34.59Z"/><path class="cls-5" d="M100.47,32.38v0h0v0S100.46,32.38,100.47,32.38Z"/><path class="cls-5" d="M100.73,33.15v0l0,0v0Z"/><path class="cls-5" d="M101.22,33.9a.06.06,0,0,0,0,0h0v0Z"/><path class="cls-5" d="M96.71,28.43c.05.1.17.25.16.39-.24,2.26.65,4.23,1.6,6.19.2.4.28,1.08,1,.43-.26-.72-.92-1.26-1-2h0a.31.31,0,0,1,0-.08,7,7,0,0,1-.91-4.2A1,1,0,0,0,96.94,28c-.45-.18-.91-.22-1.15.35l.14.66C96.16,28.77,96.16,28.28,96.71,28.43Z"/><path class="cls-5" d="M98.45,33.39v0l0-.06a.31.31,0,0,0,0,.08Z"/><path class="cls-5" d="M97.38,34.41l0,0c0-.29-.09-.58-.49-.51C96.94,34.17,97,34.47,97.38,34.41Z"/><polygon class="cls-5" points="96.93 33.88 96.93 33.87 96.92 33.88 96.93 33.88"/><path class="cls-5" d="M97.72,35s0,.1.06.1l.18,0-.12-.2A1.58,1.58,0,0,0,97.72,35Z"/><path class="cls-5" d="M97.5,34.64l.1,0-.18-.2,0,0C97.43,34.49,97.46,34.57,97.5,34.64Z"/><path class="cls-5" d="M97.42,58.13A.68.68,0,0,0,97.9,58L97,58A1,1,0,0,0,97.42,58.13Z"/><path class="cls-3" d="M99.62,2A27.67,27.67,0,1,1,72,29.65,27.7,27.7,0,0,1,99.62,2m0-2a29.65,29.65,0,1,0,29.65,29.65A29.65,29.65,0,0,0,99.62,0Z"/><g class="cls-2"><path d="M148.41,4.3l10.93,36.86L170.11,4.3h16.12L165.71,60.59H153L132.22,4.3Z"/></g><path class="cls-3" d="M146.41,1.3l10.93,36.86L168.11,1.3h16.12L163.71,57.59H151L130.22,1.3Z"/><g class="cls-2"><path d="M192.47,60.59V4.3h15.34V60.59Z"/></g><path class="cls-3" d="M190.47,57.59V1.3h15.34V57.59Z"/><g class="cls-2"><path d="M253.2,23a42.32,42.32,0,0,0-4.87-2.52,44.39,44.39,0,0,0-4.76-1.77,17.11,17.11,0,0,0-5.14-.82,7.15,7.15,0,0,0-3.27.63,2.2,2.2,0,0,0-1.22,2.12,2.46,2.46,0,0,0,.71,1.81,6.64,6.64,0,0,0,2,1.29A24,24,0,0,0,240,24.89c1.28.37,2.74.82,4.36,1.34a56.61,56.61,0,0,1,7,2.6,21.39,21.39,0,0,1,5.31,3.34A12.92,12.92,0,0,1,260,36.85a17,17,0,0,1,1.18,6.68A17.63,17.63,0,0,1,259.3,52a15.09,15.09,0,0,1-4.88,5.46,20.25,20.25,0,0,1-6.84,3,33.21,33.21,0,0,1-7.66.91,42.64,42.64,0,0,1-6.29-.48,52.87,52.87,0,0,1-6.41-1.33,55.77,55.77,0,0,1-6.13-2.05,38.06,38.06,0,0,1-5.47-2.67l6.61-13.44A46.34,46.34,0,0,0,228,44.39a40.13,40.13,0,0,0,5.7,2.13,22.63,22.63,0,0,0,6.48.94,6.53,6.53,0,0,0,3.5-.67,2,2,0,0,0,1-1.77,2.52,2.52,0,0,0-1-2,9,9,0,0,0-2.71-1.46c-1.15-.42-2.48-.84-4-1.25s-3.08-.92-4.76-1.5a41.17,41.17,0,0,1-6.36-2.71,17.16,17.16,0,0,1-4.41-3.3,11.84,11.84,0,0,1-2.55-4.21,16.37,16.37,0,0,1-.83-5.42A18.71,18.71,0,0,1,219.75,15a16.8,16.8,0,0,1,4.6-5.9A20.65,20.65,0,0,1,231,5.52,25.14,25.14,0,0,1,238.9,4.3a29.49,29.49,0,0,1,6,.59,47.73,47.73,0,0,1,5.62,1.49,52.06,52.06,0,0,1,5.07,2c1.58.7,3,1.37,4.25,2Z"/></g><path class="cls-3" d="M251.2,20a42.32,42.32,0,0,0-4.87-2.52,44.39,44.39,0,0,0-4.76-1.77,17.11,17.11,0,0,0-5.14-.82,7.15,7.15,0,0,0-3.27.63,2.2,2.2,0,0,0-1.22,2.12,2.46,2.46,0,0,0,.71,1.81,6.64,6.64,0,0,0,2,1.29A24,24,0,0,0,238,21.89c1.28.37,2.74.82,4.36,1.34a56.61,56.61,0,0,1,7,2.6,21.39,21.39,0,0,1,5.31,3.34A12.92,12.92,0,0,1,258,33.85a17,17,0,0,1,1.18,6.68A17.63,17.63,0,0,1,257.3,49a15.09,15.09,0,0,1-4.88,5.46,20.25,20.25,0,0,1-6.84,3,33.21,33.21,0,0,1-7.66.91,42.64,42.64,0,0,1-6.29-.48,52.87,52.87,0,0,1-6.41-1.33,55.77,55.77,0,0,1-6.13-2.05,38.06,38.06,0,0,1-5.47-2.67l6.61-13.44A46.34,46.34,0,0,0,226,41.39a40.13,40.13,0,0,0,5.7,2.13,22.63,22.63,0,0,0,6.48.94,6.53,6.53,0,0,0,3.5-.67,2,2,0,0,0,1-1.77,2.52,2.52,0,0,0-1-2,9,9,0,0,0-2.71-1.46c-1.15-.42-2.48-.84-4-1.25s-3.08-.92-4.76-1.5a41.17,41.17,0,0,1-6.36-2.71,17.16,17.16,0,0,1-4.41-3.3,11.84,11.84,0,0,1-2.55-4.21,16.37,16.37,0,0,1-.83-5.42A18.71,18.71,0,0,1,217.75,12a16.8,16.8,0,0,1,4.6-5.9A20.65,20.65,0,0,1,229,2.52,25.14,25.14,0,0,1,236.9,1.3a29.49,29.49,0,0,1,6,.59,47.73,47.73,0,0,1,5.62,1.49,52.06,52.06,0,0,1,5.07,2c1.58.7,3,1.37,4.25,2Z"/><text class="cls-6" transform="translate(9.65 108.75)">A<tspan class="cls-7" x="29.23" y="0" xml:space="preserve"> CAPPELL</tspan><tspan class="cls-8" x="234.69" y="0">A</tspan></text><line class="cls-9" x1="3.5" y1="75.15" x2="266.5" y2="75.15"/></g></g></g></svg>